<?xml version="1.0" encoding="UTF-8" standalone="no"?>
<svg
   role="img"
   viewBox="0 0 24 24"
   version="1.1"
   id="svg1"
   xml:space="preserve"
   xmlns="http://www.w3.org/2000/svg"
   xmlns:svg="http://www.w3.org/2000/svg"
   xmlns:rdf="http://www.w3.org/1999/02/22-rdf-syntax-ns#"
   xmlns:cc="http://creativecommons.org/ns#"
   xmlns:dc="http://purl.org/dc/elements/1.1/"><defs
     id="defs1" /><title
     id="title1">Instagram</title><metadata
     id="metadata1"><rdf:RDF><cc:Work
         rdf:about=""><dc:title>Instagram</dc:title></cc:Work></rdf:RDF></metadata><path
     style="fill:#ffffff;stroke-width:1.93143"
     d="M 15.853086,21.447152 C 14.701529,20.652094 14.696092,20.656083 14.598115,19.52714 l -4.96862,-0.0034 c 0.007,1.165741 -0.0053,1.139106 -1.042222,1.927144 z m 7.601642,-3.226572 c 0.256425,-0.180944 0.544877,0.253257 0.544877,-7.842537 V 3.189221 c 0,-0.2780686 -0.223632,-0.5171052 -0.515952,-0.5883425 -0.29232,-0.071237 -22.677464,-0.06676 -22.967306,0 C 0.208313,2.6718289 3.95e-4,2.9611353 3.95e-4,3.189221 v 7.183927 c 0,7.366042 0.262266,7.699084 0.529331,7.840476 0.498458,0.263898 22.73581,0.140456 22.925002,0.007 z M 1.32146,3.8280435 H 22.458369 V 15.2772 H 1.32146 Z"
     id="path2-7" /><path
     style="font-weight:bold;font-size:8.16757px;font-family:Monospace;-inkscape-font-specification:'Monospace Bold';letter-spacing:0px;word-spacing:0px;baseline-shift:baseline;fill:#ffffff;stroke-width:7.88464"
     d="M 2.7396986,11.128977 3.9680246,8.6483963 3.4017184,7.5915574 H 3.0388039 q -0.5463657,0 -0.5463657,-0.4067833 0,-0.4107713 0.5463657,-0.4107713 h 0.8454712 l 2.3609382,4.3549742 q 0.5463658,0 0.5463658,0.406783 0,0.410771 -0.5463658,0.410771 H 5.4356348 q -0.5463657,0 -0.5463657,-0.410771 0,-0.366903 0.4227355,-0.406783 L 4.438617,9.5177958 3.6449908,11.128977 q 0.4346998,0.0319 0.4346998,0.406783 0,0.410771 -0.5463658,0.410771 H 2.7436867 q -0.5463658,0 -0.5463658,-0.410771 0,-0.406783 0.5423777,-0.406783 z m 7.2303732,-1.064815 1.2402902,1.064815 q 0.223332,0.01196 0.334998,0.127618 0.111666,0.111666 0.111666,0.283153 0,0.179463 -0.127618,0.295117 -0.123631,0.111666 -0.418748,0.111666 h -0.92922 q -0.2951177,0 -0.422736,-0.111666 -0.1236302,-0.115654 -0.1236302,-0.303093 0,-0.143571 0.087738,-0.251249 0.091726,-0.111666 0.2472604,-0.151546 L 9.3598969,10.602551 8.7377577,11.128977 q 0.1874394,0.04786 0.2672008,0.147558 0.083749,0.0997 0.083749,0.255237 0,0.187439 -0.1236302,0.303093 -0.1236302,0.111666 -0.4187475,0.111666 H 7.6250858 q -0.2951172,0 -0.4227355,-0.111666 -0.1236302,-0.115654 -0.1236302,-0.299105 0,-0.167499 0.111666,-0.279165 0.111666,-0.115654 0.334998,-0.127618 L 8.7377577,10.060174 7.6649666,9.1429171 Q 7.4535988,9.1269649 7.3419328,9.0152989 7.2342549,8.8996448 7.2342549,8.7321458 q 0,-0.1794632 0.1236302,-0.2911292 0.1276182,-0.1156541 0.4227355,-0.1156541 h 0.7657097 q 0.2951173,0 0.4187475,0.1156541 0.1276183,0.111666 0.1276183,0.2871411 0,0.2352962 -0.223332,0.3828549 L 9.3638849,9.5217839 9.8504297,9.1030364 Q 9.6310857,8.9475016 9.6310857,8.74411 q 0,-0.1914274 0.1236302,-0.3030934 0.1276183,-0.1156541 0.4227361,-0.1156541 h 0.757733 q 0.295117,0 0.418748,0.1156541 0.127618,0.111666 0.127618,0.2951173 0,0.1635109 -0.111666,0.279165 -0.107678,0.111666 -0.323034,0.1276182 z m 4.9133042,1.471598 q 0,0.231308 -0.163511,0.386843 -0.163511,0.155535 -0.450652,0.155535 -0.287142,0 -0.450653,-0.155535 -0.16351,-0.155535 -0.16351,-0.386843 0,-0.231308 0.16351,-0.386843 0.163511,-0.155535 0.450653,-0.155535 0.287141,0 0.450652,0.155535 0.163511,0.155535 0.163511,0.386843 z m 2.999029,-2.8434949 v 2.4367119 h 0.295117 q 0.295118,0 0.418748,0.115654 0.127618,0.111666 0.127618,0.295117 0,0.179463 -0.127618,0.295117 -0.12363,0.111666 -0.418748,0.111666 h -1.072791 q -0.295117,0 -0.418747,-0.111666 -0.127619,-0.115654 -0.127619,-0.299105 0,-0.179463 0.123631,-0.291129 0.12363,-0.115654 0.382854,-0.115654 V 7.9305435 q -0.215355,-0.01994 -0.327021,-0.1316064 -0.107678,-0.111666 -0.107678,-0.279165 0,-0.1834513 0.12363,-0.2951173 0.127618,-0.115654 0.422735,-0.115654 l 0.897316,0.00399 1.112672,2.46064 1.092732,-2.464628 0.905292,0.00399 q 0.295117,0 0.418748,0.111666 0.127618,0.111666 0.127618,0.2951173 0,0.167499 -0.111666,0.279165 -0.111666,0.111666 -0.323034,0.1316064 v 3.1984335 q 0.259225,0 0.382855,0.115654 0.12363,0.115654 0.12363,0.295117 0,0.179463 -0.127618,0.295117 -0.12363,0.111666 -0.418748,0.111666 h -1.076779 q -0.291129,0 -0.418747,-0.111666 -0.123631,-0.115654 -0.123631,-0.299105 0,-0.179463 0.123631,-0.291129 0.127618,-0.115654 0.418747,-0.115654 h 0.299105 V 8.6922651 l -0.937196,2.1057019 h -0.709877 z"
     id="text3"
     aria-label="λx.M" /><text
     xml:space="preserve"
     style="font-style:normal;font-variant:normal;font-weight:normal;font-stretch:normal;font-family:'FiraMono Nerd Font Mono';-inkscape-font-specification:'FiraMono Nerd Font Mono';fill:#919191;stroke-width:11.5843"
     x="-9.2639542"
     y="5.0406814"
     id="text4"><tspan
       id="tspan4"
       x="-9.2639542"
       y="5.0406814" /></text><text
     xml:space="preserve"
     style="font-style:normal;font-variant:normal;font-weight:bold;font-stretch:normal;font-family:'FiraMono Nerd Font Mono';-inkscape-font-specification:'FiraMono Nerd Font Mono Bold';letter-spacing:-2.49px;fill:#ffffff;fill-opacity:1;stroke-width:11.5843"
     x="35.284767"
     y="11.307474"
     id="text5"><tspan
       id="tspan5" /></text><text
     xml:space="preserve"
     style="font-style:normal;font-variant:normal;font-weight:bold;font-stretch:normal;font-family:Monospace;-inkscape-font-specification:'Monospace Bold';letter-spacing:0px;word-spacing:0px;fill:#ffffff;fill-opacity:1;stroke-width:11.5843"
     x="29.349279"
     y="24"
     id="text6"><tspan
       id="tspan6" /></text></svg>
