<?xml version="1.0" encoding="UTF-8" standalone="no"?>
<svg
   role="img"
   viewBox="0 0 24 24"
   version="1.1"
   id="svg1"
   xml:space="preserve"
   xmlns="http://www.w3.org/2000/svg"
   xmlns:svg="http://www.w3.org/2000/svg"
   xmlns:rdf="http://www.w3.org/1999/02/22-rdf-syntax-ns#"
   xmlns:cc="http://creativecommons.org/ns#"
   xmlns:dc="http://purl.org/dc/elements/1.1/"><defs
     id="defs1" /><title
     id="title1">Instagram</title><metadata
     id="metadata1"><rdf:RDF><cc:Work
         rdf:about=""><dc:title>Instagram</dc:title></cc:Work></rdf:RDF></metadata><path
     style="fill:#ffffff;stroke-width:1.25448"
     d="M 4.1927404,14.505301 C 2.9815802,14.154597 2.0028078,13.154221 1.6878884,11.945165 1.5328839,11.350061 1.5597324,10.555584 1.754449,9.9755311 1.9516901,9.3879597 2.1570608,9.0492339 2.6000685,8.5808189 3.0378065,8.1179759 3.5594271,7.809719 4.2142325,7.626912 4.749512,7.4774742 4.749512,7.4774742 4.821936,7.1306795 5.0721113,5.932743 6.1604468,4.8202987 7.421754,4.4732705 8.0447841,4.3018538 9.0052963,4.3755675 9.71942,4.6496026 c 0.065647,0.025189 0.1630413,-0.092154 0.315446,-0.3800454 0.45246,-0.8546895 1.552984,-1.7585645 2.5599,-2.1024831 0.59928,-0.2046882 1.774129,-0.2504551 2.467774,-0.096134 0.930427,0.2070002 1.89206,0.8112165 2.55065,1.6026293 0.331076,0.3978465 0.746429,1.2221723 0.85079,1.688511 0.0809,0.361487 0.08183,0.3625012 0.393058,0.4292482 1.53043,0.3282187 2.779092,1.4187457 3.326544,2.9052626 0.243199,0.6603682 0.300368,1.7202208 0.133293,2.4711828 -0.324512,1.458619 -1.503726,2.751879 -2.958939,3.245109 -0.535787,0.1816 -0.535787,0.1816 -7.652796,0.194254 -6.5854247,0.01167 -7.1465426,0.0041 -7.5123996,-0.101838 z"
     id="path2" /><path
     style="fill:#ffffff;stroke-width:1.29972"
     d="m 7.7610424,20.952523 c 0.00168,-0.378496 0.1912617,-0.853585 0.7994359,-1.087267 L 8.5615183,18.04567 7.3249639,16.934566 6.057428,18.141128 c 0.08878,0.222589 0.1154384,0.356766 0.1124582,0.636737 -0.00597,0.561128 -0.4754009,0.991002 -1.0944809,1.000527 -0.6190799,0.0095 -1.0836465,-0.402292 -1.0683824,-1.08255 0.015264,-0.680258 0.566414,-0.992408 1.0780775,-1.01768 0.2420864,-0.01196 0.4247166,0.02542 0.6230831,0.106057 0.4603041,-0.413848 0.9151459,-0.833654 1.3704888,-1.252932 l 0.046192,-1.920502 h 0.4105056 l 0.08209,1.914347 1.436774,1.343465 v 1.99764 c 0.4158335,0.114483 0.8071107,0.549108 0.8203992,1.066349 0.013288,0.517241 -0.258091,1.09059 -1.0435407,1.108299 -0.7854497,0.01771 -1.0717261,-0.709866 -1.0700472,-1.088362 z m 1.6371014,-0.02191 c -0.00791,-0.440293 -0.3175889,-0.619028 -0.587727,-0.6138 -0.2701381,0.0052 -0.5668378,0.213988 -0.5511538,0.61576 0.015684,0.401772 0.2153714,0.59868 0.553091,0.603908 0.3377196,0.0052 0.5937023,-0.165575 0.5857898,-0.605868 z M 5.700751,18.754578 c -0.004,-0.370711 -0.2115352,-0.669992 -0.6282663,-0.650465 -0.4167311,0.01953 -0.6024405,0.315078 -0.5980505,0.648892 0.00439,0.333814 0.2621165,0.593867 0.5920435,0.586349 0.3299271,-0.0075 0.6382782,-0.214065 0.6342733,-0.584776 z m 8.597751,2.130785 c 0.0093,-0.546209 0.40305,-0.926688 0.831124,-0.998967 v -1.51749 l 1.801489,-1.586096 0.0458,-2.170012 c 0.157596,-0.09289 0.326041,-0.01961 0.484346,-0.02913 -0.03371,0.746169 -0.03365,1.492418 -0.0327,2.239067 0,0 0.677079,0.68185 0.999233,1.00328 0.119536,-0.117497 0.455416,-0.149082 0.60783,-0.141505 0.523051,0.026 1.002387,0.417757 1.020178,1.027542 0.01779,0.609785 -0.483972,1.0595 -1.067307,1.061257 -0.583335,0.0018 -1.015767,-0.535968 -1.03692,-0.973527 -0.0089,-0.184884 0.01164,-0.468534 0.150014,-0.637089 -0.306963,-0.322084 -0.629689,-0.631509 -0.946415,-0.942228 -0.508992,0.445336 -1.020619,0.887699 -1.531249,1.331165 l -0.0016,1.334751 c 0.431755,0.12092 0.822764,0.36178 0.821012,1.039419 -0.0018,0.677639 -0.384444,1.090246 -1.067298,1.11152 -0.682854,0.02127 -1.086878,-0.605748 -1.077537,-1.151957 z m 1.652136,0.03886 c 0.0035,-0.434208 -0.240506,-0.608635 -0.57471,-0.607407 -0.334204,0.0012 -0.576671,0.198601 -0.574708,0.595902 0.002,0.397301 0.300825,0.586932 0.543729,0.5918 0.242903,0.0049 0.602187,-0.146087 0.605689,-0.580295 z m 3.637816,-2.192547 c -0.01796,-0.401134 -0.28241,-0.611842 -0.625426,-0.601165 -0.343016,0.01068 -0.585002,0.260334 -0.574709,0.595901 0.01029,0.335567 0.295925,0.635619 0.585823,0.635619 0.289898,0 0.632274,-0.229221 0.614312,-0.630355 z m -8.536184,0.753412 c -0.01185,-0.519864 0.452465,-1.035895 1.024091,-1.07328 0.2104,-0.01376 0.397795,-0.01726 0.653477,0.130702 L 13.446535,17.896684 12.009762,16.473101 12,14.611211 h 0.491339 l 0.01103,1.684528 1.277837,1.270343 0.692594,-0.705702 c -5.36e-4,-0.752932 7.5e-5,-1.505861 9.68e-4,-2.258792 0.201922,-5.39e-4 0.267198,-7.21e-4 0.492681,-0.0014 -0.0015,0.819835 -0.001,1.639671 -0.001,2.459507 -0.606232,0.59115 -1.316875,1.256354 -1.921659,1.848959 0.08794,0.09896 0.166967,0.29155 0.181124,0.621146 0.01896,0.441302 -0.400692,1.042143 -1.100702,1.024919 -0.70001,-0.01722 -1.06009,-0.549769 -1.071942,-1.069633 z m 1.646847,0.02626 c -0.0013,-0.305762 -0.230067,-0.631622 -0.58768,-0.615754 -0.357614,0.01587 -0.591013,0.290998 -0.581203,0.595902 0.0098,0.304904 0.239064,0.609356 0.589021,0.604978 0.349956,-0.0044 0.581171,-0.279364 0.579862,-0.585126 z M 8.72572,16.226 C 8.71834,15.590596 9.2251158,15.276985 9.5056823,15.189391 l 0.041154,-0.579588 h 0.4925967 l 0.04094,0.579588 c 0.376203,0.119194 0.765437,0.52498 0.779655,1.053057 0.01422,0.528077 -0.524691,1.083853 -1.0834582,1.075397 C 9.2178036,17.309389 8.7330961,16.861404 8.72572,16.226 Z m 1.702426,0.0032 c 5.05e-4,-0.354124 -0.270342,-0.612913 -0.6359418,-0.598398 -0.3655994,0.01452 -0.6299493,0.248865 -0.6342719,0.591684 -0.00432,0.342819 0.2355291,0.659003 0.6200075,0.663436 0.3844782,0.0044 0.6497012,-0.302598 0.6502062,-0.656722 z"
     id="path3" /></svg>
