<?xml version="1.0" encoding="UTF-8" standalone="no"?>
<svg
   role="img"
   viewBox="0 0 24 24"
   version="1.1"
   id="svg1"
   xml:space="preserve"
   xmlns="http://www.w3.org/2000/svg"
   xmlns:svg="http://www.w3.org/2000/svg"
   xmlns:rdf="http://www.w3.org/1999/02/22-rdf-syntax-ns#"
   xmlns:cc="http://creativecommons.org/ns#"
   xmlns:dc="http://purl.org/dc/elements/1.1/"><defs
     id="defs1" /><title
     id="title1">Instagram</title><metadata
     id="metadata1"><rdf:RDF><cc:Work
         rdf:about=""><dc:title>Instagram</dc:title></cc:Work></rdf:RDF></metadata><g
     id="g3013"
     transform="matrix(0.03957064,0,0,0.03957064,1.8503347,1.9055086)"
     style="display:inline"><polygon
       id="polygon2989"
       points="107.644,470.877 74.633,100.62 437.367,100.62 404.321,470.819 255.778,512 "
       style="fill:#787878;fill-opacity:1" /><polygon
       id="polygon2991"
       points="404.27,130.894 256,130.894 256,480.523 376.03,447.246 "
       style="fill:#9e9e9e;fill-opacity:1" /><polygon
       id="polygon2993"
       points="154.38,313.627 256,313.627 256,268.217 150.31,268.217 "
       style="fill:#d9d9d9;fill-opacity:1" /><polygon
       id="polygon2995"
       points="146.26,221.716 256,221.716 256,176.305 255.843,176.305 142.132,176.305 "
       style="fill:#d9d9d9;fill-opacity:1" /><polygon
       id="polygon2997"
       points="156.409,336.333 162.771,407.634 255.791,433.457 256,433.399 256,386.153 255.801,386.206 205.227,372.55 201.994,336.333 177.419,336.333 "
       style="display:inline;fill:#d9d9d9;fill-opacity:1" /><path
       id="path2999"
       d="m 160,0 h 55 v 23 h -32 v 23 h 32 v 23 h -55 z"
       style="fill:#ffffff;fill-opacity:1" /><path
       id="path3001"
       d="m 226,0 h 55 v 20 h -32 v 4 h 32 V 70 H 226 V 49 h 32 v -4 h -32 z"
       style="fill:#ffffff;fill-opacity:1" /><path
       id="path3003"
       d="m 292,0 h 55 v 20 h -32 v 4 h 32 V 70 H 292 V 49 h 32 v -4 h -32 z"
       style="fill:#ffffff;fill-opacity:1" /><polygon
       id="polygon3005"
       points="255.843,268.217 255.843,313.627 311.761,313.627 306.49,372.521 255.843,386.191 255.843,433.435 348.937,407.634 349.62,399.962 360.291,280.411 361.399,268.217 369.597,176.305 255.843,176.305 255.843,221.716 319.831,221.716 315.699,268.217 "
       style="fill:#ffffff" /></g></svg>
