<?xml version="1.0" encoding="UTF-8" standalone="no"?>
<svg
   role="img"
   viewBox="0 0 24 24"
   version="1.1"
   id="svg1"
   xml:space="preserve"
   sodipodi:docname="databaseManagement.svg"
   inkscape:version="1.3 (0e150ed6c4, 2023-07-21)"
   xmlns:inkscape="http://www.inkscape.org/namespaces/inkscape"
   xmlns:sodipodi="http://sodipodi.sourceforge.net/DTD/sodipodi-0.dtd"
   xmlns="http://www.w3.org/2000/svg"
   xmlns:svg="http://www.w3.org/2000/svg"
   xmlns:rdf="http://www.w3.org/1999/02/22-rdf-syntax-ns#"
   xmlns:cc="http://creativecommons.org/ns#"
   xmlns:dc="http://purl.org/dc/elements/1.1/"><sodipodi:namedview
     id="namedview1"
     pagecolor="#000000"
     bordercolor="#000000"
     borderopacity="0.25"
     inkscape:showpageshadow="2"
     inkscape:pageopacity="0.0"
     inkscape:pagecheckerboard="0"
     inkscape:deskcolor="#d1d1d1"
     showguides="true"
     inkscape:zoom="23.895833"
     inkscape:cx="24.669573"
     inkscape:cy="13.66347"
     inkscape:window-width="2560"
     inkscape:window-height="1361"
     inkscape:window-x="-9"
     inkscape:window-y="1341"
     inkscape:window-maximized="1"
     inkscape:current-layer="svg1"><sodipodi:guide
       position="12.083074,22.0625"
       orientation="0,-1"
       id="guide1"
       inkscape:locked="false" /><sodipodi:guide
       position="9.2903226,1.941406"
       orientation="0,-1"
       id="guide2"
       inkscape:locked="false" /></sodipodi:namedview><defs
     id="defs1" /><title
     id="title1">Instagram</title><metadata
     id="metadata1"><rdf:RDF><cc:Work
         rdf:about=""><dc:title>Instagram</dc:title></cc:Work></rdf:RDF></metadata><path
     style="fill:#ffffff;fill-opacity:1;stroke-width:0.987377"
     d="m 16.258766,22.058594 -0.06511,-0.375261 c -0.07795,-0.449256 -0.127261,-0.56531 -0.317973,-0.748439 -0.321045,-0.308285 -0.801423,-0.392318 -1.164369,-0.203687 -0.04659,0.02421 -0.206051,0.129911 -0.354377,0.234891 l -0.269682,0.190873 -0.564139,-0.56414 -0.56414,-0.564139 0.0833,-0.116827 c 0.396532,-0.556063 0.43492,-0.638116 0.43588,-0.931707 9.22e-4,-0.291715 -0.09034,-0.523654 -0.287468,-0.730367 -0.192647,-0.202004 -0.307549,-0.252348 -0.747152,-0.32735 -0.160461,-0.02738 -0.31212,-0.05427 -0.337018,-0.05978 l -0.04527,-0.01003 v -0.793979 -0.793993 l 0.04527,-0.01027 c 0.02489,-0.0056 0.18561,-0.03317 0.357138,-0.06116 0.247787,-0.04044 0.340854,-0.06503 0.452941,-0.119627 0.341942,-0.166592 0.560801,-0.527092 0.562413,-0.926399 0.0012,-0.297111 -0.02266,-0.349093 -0.420747,-0.916455 l -0.09955,-0.141885 0.563974,-0.563973 0.563973,-0.563974 0.259913,0.184744 c 0.333417,0.236988 0.39525,0.272476 0.5408,0.310377 0.344063,0.0896 0.719051,-0.01508 0.991602,-0.276798 0.18814,-0.180662 0.235741,-0.292666 0.314757,-0.74061 l 0.06524,-0.369859 0.798486,-0.0052 c 0.439169,-0.0029 0.798498,-0.0029 0.798509,0 2.95e-4,0.07177 0.130765,0.724248 0.160363,0.801971 0.110023,0.288912 0.404354,0.525844 0.74788,0.602035 0.163599,0.03629 0.402589,0.0172 0.553274,-0.04417 0.06793,-0.02768 0.256688,-0.143685 0.419445,-0.257802 l 0.29592,-0.207484 0.56296,0.562959 0.56296,0.562959 -0.222615,0.317156 c -0.258404,0.368147 -0.30358,0.478943 -0.30358,0.744547 0,0.42471 0.249895,0.809902 0.620089,0.95582 0.05584,0.022 0.235697,0.06333 0.399671,0.09183 0.163973,0.02849 0.323031,0.05675 0.353464,0.06279 l 0.05533,0.01099 v 0.791562 0.791562 l -0.05533,0.01153 c -0.03044,0.0063 -0.191146,0.03469 -0.35714,0.06297 -0.381844,0.06509 -0.544224,0.135558 -0.715374,0.310467 -0.209062,0.213657 -0.314186,0.500473 -0.296109,0.8079 0.0137,0.232895 0.06091,0.338789 0.308167,0.690993 l 0.211454,0.301218 -0.561967,0.56197 -0.56197,0.561969 -0.298271,-0.208428 c -0.392493,-0.274276 -0.477349,-0.309271 -0.751899,-0.310094 -0.182471,-5.49e-4 -0.231832,0.007 -0.362169,0.05536 -0.282899,0.104974 -0.516479,0.319344 -0.604602,0.554874 -0.02927,0.07823 -0.159656,0.732457 -0.159957,0.802594 z m 1.339728,-2.904003 c 1.310567,-0.341606 1.984784,-1.768043 1.4223,-3.009154 -0.230767,-0.509182 -0.717823,-0.947252 -1.257116,-1.130679 -1.200709,-0.408392 -2.46818,0.269485 -2.805912,1.500678 -0.06217,0.226629 -0.07728,0.694017 -0.03051,0.943096 0.165134,0.879238 0.855938,1.564647 1.748273,1.734619 0.228849,0.04359 0.680112,0.02474 0.922958,-0.03856 z M 9.9888081,18.061397 C 8.9250427,18.004367 8.2675525,17.937618 7.5341085,17.812183 5.9415725,17.539826 4.8867972,17.103558 4.6366712,16.613765 l -0.050207,-0.09832 -0.00572,-1.103192 c -0.00462,-0.893153 -7.739e-4,-1.100344 0.020125,-1.088237 0.014201,0.0082 0.048443,0.03048 0.076105,0.04945 0.3518135,0.241341 1.016479,0.503526 1.7281569,0.681691 1.1702072,0.292954 2.962259,0.483943 4.5444049,0.484322 l 0.467801,1.12e-4 v 1.267591 1.267591 l -0.658946,-0.0038 c -0.36242,-0.0021 -0.708743,-0.0065 -0.7696089,-0.0096 z M 10.290616,14.882289 C 7.3595051,14.79219 5.0448949,14.195837 4.6335948,13.424769 l -0.04714,-0.08838 -0.00572,-1.111675 -0.00572,-1.111676 0.1565852,0.10251 c 0.8246161,0.539846 2.4479227,0.920042 4.5830911,1.073414 1.2461439,0.08952 2.3692369,0.08341 3.6216889,-0.01965 0.398239,-0.03277 0.897153,-0.08464 0.975842,-0.101434 0.03411,-0.0073 -0.246808,0.286751 -0.873137,0.913886 -0.578965,0.579706 -0.919283,0.934761 -0.912294,0.951796 0.0061,0.01494 0.133367,0.199201 0.282743,0.40946 l 0.271599,0.382289 -0.118294,0.01381 c -0.3388,0.03955 -1.606438,0.06363 -2.272305,0.04316 z M 9.9787471,11.684385 c -0.667465,-0.03894 -0.901062,-0.05586 -1.2474698,-0.09034 -2.201151,-0.219044 -3.7958862,-0.747942 -4.09648,-1.358608 l -0.048342,-0.0982 -0.00554,-1.1042392 -0.00554,-1.1042398 0.055838,0.037135 c 0.3062808,0.2037017 0.6312488,0.3570982 1.0819534,0.5107259 1.325311,0.4517447 3.4764914,0.7115671 5.6136363,0.6780199 2.684534,-0.042141 4.849209,-0.4500752 5.920948,-1.1158099 l 0.166487,-0.1034173 -0.0055,1.1109745 c -0.0065,1.2822059 0.0096,1.1794029 -0.21863,1.4059169 -0.58465,0.580221 -2.198271,1.006568 -4.52527,1.195653 -0.366292,0.02976 -2.341251,0.05655 -2.6860859,0.03642 z m 0.03018,-3.1888712 C 7.2314536,8.3833484 5.0301665,7.7899837 4.6335991,7.0465359 l -0.04714,-0.088371 -0.00572,-1.1101227 -0.00563,-1.1101229 0.1364612,0.090637 c 0.7032625,0.4671012 2.0571323,0.8294687 3.7782696,1.0112658 0.9153792,0.096688 2.1469031,0.1540084 2.8772291,0.133918 2.50957,-0.069034 4.419528,-0.3925171 5.533136,-0.9371273 0.154928,-0.075769 0.330012,-0.1701324 0.389074,-0.2096998 0.05906,-0.039568 0.111126,-0.071941 0.115694,-0.071941 0.0045,0 0.0083,0.4916772 0.0083,1.0926161 v 1.0926162 l -0.05116,0.1027241 C 16.893999,7.9823158 13.568761,8.6391869 10.008965,8.4954765 Z M 9.7373031,5.297052 C 8.1393044,5.2030839 6.8056551,4.979375 5.8439889,4.6439792 5.5550542,4.543209 5.0984995,4.3155431 4.930815,4.1886156 4.4413201,3.8180959 4.4681556,3.3991299 5.0050964,3.0289066 6.5744776,1.9468141 11.728776,1.5916362 15.104627,2.3329574 c 1.25055,0.2746154 2.071213,0.6696485 2.263441,1.089527 0.04044,0.088322 0.04811,0.1315936 0.0413,0.2325955 -0.0115,0.1702565 -0.06002,0.2612989 -0.226945,0.425894 -0.582912,0.5747498 -2.197742,1.0017113 -4.497462,1.1891307 -0.459076,0.037413 -2.458789,0.055694 -2.9476529,0.026948 z"
     id="path2"
     sodipodi:nodetypes="ccsssccccccssccccccsscccscsccccsscscccssssscccccssscccsscsccsssscssscssccccsscccccccscccscscscsccccccccccscsscccscccccccsssssssccccssscsscsss" /></svg>
