<?xml version="1.0" encoding="UTF-8" standalone="no"?>
<svg
   role="img"
   viewBox="0 0 24 24"
   version="1.1"
   id="svg1"
   xml:space="preserve"
   xmlns:xlink="http://www.w3.org/1999/xlink"
   xmlns="http://www.w3.org/2000/svg"
   xmlns:svg="http://www.w3.org/2000/svg"
   xmlns:rdf="http://www.w3.org/1999/02/22-rdf-syntax-ns#"
   xmlns:cc="http://creativecommons.org/ns#"
   xmlns:dc="http://purl.org/dc/elements/1.1/"><defs
     id="defs1"><pattern
       xlink:href="#circle"
       preserveAspectRatio="xMidYMid"
       id="pattern92"
       patternTransform="matrix(0.02,0,0,0.02,307.92203,-100.78567)"
       x="0"
       y="0" /><pattern
       patternUnits="userSpaceOnUse"
       width="10"
       height="10"
       patternTransform="translate(307.92203,-100.78567)"
       preserveAspectRatio="xMidYMid"
       id="circle"
       style="fill:#ffffff"
       x="0"
       y="0"><circle
         style="display:inline;fill-opacity:1;stroke-width:6;stroke-linecap:square;paint-order:markers fill stroke;stop-color:#000000"
         id="path10"
         cx="5"
         cy="5"
         r="5" /></pattern><clipPath
       clipPathUnits="userSpaceOnUse"
       id="clipPath52"><path
         id="path52"
         style="stroke-width:0.1;stroke-linecap:square;paint-order:markers fill stroke;stop-color:#000000"
         d="m -880.82767,-187.29769 h 1640.84 v 73.28155 h -1640.84 z" /></clipPath><clipPath
       clipPathUnits="userSpaceOnUse"
       id="clipPath5"><path
         id="path5"
         style="stroke-width:0.1;stroke-linecap:square;paint-order:markers fill stroke;stop-color:#000000"
         d="m 438.25066,553.76374 859.87054,0 v 201.39554 l -859.87054,0 z" /></clipPath></defs><title
     id="title1">Instagram</title><metadata
     id="metadata1"><rdf:RDF><cc:Work
         rdf:about=""><dc:title>Instagram</dc:title></cc:Work></rdf:RDF></metadata><g
     id="g68"
     transform="matrix(0.85293853,0,0,0.85293853,1.6975909,1.7631213)"><g
       id="g92"
       transform="translate(-0.81684823,-0.00378992)"><path
         id="path71"
         style="fill:#ffffff;fill-opacity:1;stroke-width:0.978177"
         d="m 0.35675241,18.937882 c 0.2296485,-1.266273 0.2883254,-1.674565 0.2442879,-1.699835 -0.0318786,-0.01829 -0.3552591,-0.236761 -0.7186283,-0.485486 -0.5499818,-0.376464 -0.6630669,-0.437331 -0.6749722,-0.363308 -0.00783,0.04891 -0.096781,0.627802 -0.1975888,1.286432 l -0.18328791,1.197508 0.59436571,0.885241 c 0.3269007,0.486881 0.6031877,0.876417 0.6139712,0.865634 0.010779,-0.0108 0.1556172,-0.769567 0.3218524,-1.686186 z m -0.9549616,-0.135803 c -0.3500328,-0.141032 -0.22322,-1.177906 0.1620829,-1.325262 0.3353717,-0.128258 0.5161075,0.182944 0.4151949,0.714912 -0.1117821,0.58927 -0.2546605,0.740335 -0.5772778,0.61035 z m 1.5820296,-4.282236 C 1.094278,13.540044 1.1948337,12.685056 1.207279,12.619869 1.2293071,12.5045 1.2107036,12.495576 0.50896741,12.284426 l -0.7209377,-0.216922 -0.030373,0.14668 c -0.016707,0.08067 -0.099386,0.748546 -0.1837329,1.484161 l -0.1533576,1.33748 0.6556405,0.630301 c 0.360602,0.346665 0.6671478,0.631397 0.6812121,0.632736 0.014066,0.0014 0.1159452,-0.799219 0.226403,-1.779019 z m -1.0762145,-0.03369 c -0.2092809,-0.222769 -0.0691769,-1.113882 0.1950367,-1.240517 0.3571802,-0.171192 0.5327678,0.106025 0.4498977,0.710298 -0.087156,0.635539 -0.3460427,0.848377 -0.6449344,0.530219 z M 1.4418096,9.6250633 1.5821182,7.6207165 1.4165315,7.6442613 c -0.091078,0.012951 -0.42702199,0.052606 -0.74655419,0.088133 -0.3195322,0.035528 -0.5883039,0.072151 -0.5972708,0.081375 -0.013694,0.014095 -0.1443124,2.0475274 -0.1794944,2.7943437 l -0.010799,0.229259 0.6606703,0.39162 c 0.3633691,0.215391 0.68266459,0.3936 0.70954489,0.396021 0.031018,0.0029 0.1001313,-0.727839 0.1891823,-1.999949 z M 0.49425371,10.1698 C 0.11039561,10.010141 0.24552781,8.8002851 0.65174701,8.7597397 1.0084596,8.7241345 1.1025329,8.9102195 1.0448802,9.5373873 0.99334981,10.097961 0.81474261,10.303095 0.49425371,10.169797 Z M 1.598667,5.412017 C 1.5952434,4.6139021 1.5793285,3.7237299 1.5632767,3.4338561 L 1.5340879,2.9068125 0.86695081,3.2141615 0.19981271,3.5215114 0.16570391,4.9917619 c -0.018762,0.8086372 -0.026469,1.5233391 -0.017127,1.5882264 0.017441,0.1211805 0.128282,0.1431474 1.39730979,0.2769268 0.046169,0.00489 0.057644,-0.3091978 0.05278,-1.4448981 z M 0.56010841,5.5931518 C 0.40522201,5.467732 0.38863011,4.4854988 0.53859831,4.3197849 0.86292951,3.9614034 1.1565615,4.2618177 1.1565615,4.9520274 c 0,0.6968668 -0.22669339,0.9405385 -0.59645309,0.6411244 z" /><path
         id="path67"
         style="fill:url(#pattern92);fill-opacity:1;stroke-width:0.978177"
         d="m 6.677884,21.155863 c 1.816846,-0.02988 3.309038,-0.0588 3.315981,-0.06427 0.02102,-0.01656 0.956763,-3.529952 0.943504,-3.542492 -0.05008,-0.04737 -9.6156384,-0.07367 -9.6156384,-0.02644 0,0.0554 -0.59641489,3.492355 -0.63482799,3.658314 -0.020189,0.08722 0.018282,0.08893 1.33342019,0.05952 0.7448142,-0.01667 2.8407172,-0.05475 4.6575612,-0.08463 z m 4.462095,-4.347266 c 0.0014,-0.0065 0.134749,-0.882469 0.29631,-1.94662 l 0.293746,-1.934822 -0.260917,-0.01395 c -0.486273,-0.02599 -9.5102266,-0.326422 -9.5225272,-0.317017 -0.012559,0.0096 -0.4818841,4.012459 -0.4827859,4.117682 -3.932e-4,0.04598 0.6438593,0.06133 2.9843154,0.07114 1.6416497,0.0068 3.8183237,0.01766 4.8370557,0.02394 1.018731,0.0063 1.853392,0.0062 1.854803,-3.59e-4 z m 0.677536,-4.90784 C 11.870394,11.321841 11.994247,8.2705311 11.96601,8.242295 11.950183,8.2264681 9.968157,8.0921156 7.561502,7.9437291 5.154848,7.7953426 2.9936498,7.6604285 2.7588404,7.6439209 L 2.3319152,7.6139104 2.1738927,9.7170481 C 2.0869816,10.873774 2.0242678,11.82769 2.0345299,11.836862 c 0.019094,0.01706 8.6068101,0.340887 9.3468801,0.352449 l 0.409163,0.0064 z m 0.08105,-6.397349 C 11.848656,4.5089848 11.798672,3.68621 11.787481,3.6750197 11.76468,3.6522184 2.6492142,2.7579917 2.4367532,2.7577149 L 2.30122,2.7575389 2.320519,4.8081523 c 0.010614,1.1278368 0.030568,2.0618801 0.044341,2.07565 0.096369,0.096379 9.599018,0.6131446 9.611414,0.5226848 0.0071,-0.052274 -0.02781,-0.9086558 -0.07771,-1.9030791 z" /></g><use
       x="0"
       y="0"
       xlink:href="#g92"
       id="use92"
       transform="matrix(-1,0,0,1,24.157448,-0.00378992)" /></g></svg>
