<?xml version="1.0" encoding="UTF-8" standalone="no"?>
<svg
   role="img"
   viewBox="0 0 24 24"
   version="1.1"
   id="svg1"
   xml:space="preserve"
   xmlns="http://www.w3.org/2000/svg"
   xmlns:svg="http://www.w3.org/2000/svg"
   xmlns:rdf="http://www.w3.org/1999/02/22-rdf-syntax-ns#"
   xmlns:cc="http://creativecommons.org/ns#"
   xmlns:dc="http://purl.org/dc/elements/1.1/"><defs
     id="defs1" /><title
     id="title1">Instagram</title><metadata
     id="metadata1"><rdf:RDF><cc:Work
         rdf:about=""><dc:title>Instagram</dc:title></cc:Work></rdf:RDF></metadata><path
     style="fill:#ffffff;stroke-width:1.93143"
     d="M 15.853086,21.447152 C 14.701529,20.652094 14.696092,20.656083 14.598115,19.52714 l -4.96862,-0.0034 c 0.007,1.165741 -0.0053,1.139106 -1.042222,1.927144 z m 7.601642,-3.226572 c 0.256425,-0.180944 0.544877,0.253257 0.544877,-7.842537 V 3.189221 c 0,-0.2780686 -0.223632,-0.5171052 -0.515952,-0.5883425 -0.29232,-0.071237 -22.677464,-0.06676 -22.967306,0 C 0.208313,2.6718289 3.95e-4,2.9611353 3.95e-4,3.189221 v 7.183927 c 0,7.366042 0.262266,7.699084 0.529331,7.840476 0.498458,0.263898 22.73581,0.140456 22.925002,0.007 z M 1.32146,3.8280435 H 22.458369 V 15.2772 H 1.32146 Z"
     id="path2-7" /><path
     style="font-weight:bold;font-size:10.2558px;font-family:Monospace;-inkscape-font-specification:'Monospace Bold';letter-spacing:0px;word-spacing:0px;baseline-shift:baseline;fill:#ffffff;stroke-width:9.90058"
     d="m 4.7663132,9.6843344 3.3251227,1.8428396 q 0.2503858,0.140216 0.3305092,0.250385 0.085131,0.11017 0.085131,0.280432 0,0.215332 -0.1552392,0.375579 -0.1552391,0.155239 -0.3605555,0.155239 -0.1352083,0 -0.4056249,-0.150231 L 2.6330266,9.6843344 7.5856567,6.9300912 q 0.2704166,-0.1452237 0.4006172,-0.1452237 0.2103241,0 0.3655632,0.1552391 0.1552392,0.1552392 0.1552392,0.370571 0,0.1702623 -0.085131,0.280432 -0.080123,0.1101697 -0.3305092,0.2503857 z M 14.11071,6.249042 10.820641,13.339966 q -0.125193,0.265409 -0.225347,0.345533 -0.130201,0.105162 -0.315486,0.105162 -0.210324,0 -0.3655636,-0.150232 -0.1502315,-0.150231 -0.1502315,-0.340524 0,-0.135209 0.1201852,-0.39561 L 13.184282,5.8183785 q 0.125193,-0.2654089 0.22034,-0.3455323 0.135208,-0.105162 0.315486,-0.105162 0.210324,0 0.360555,0.1502314 0.150232,0.1452237 0.150232,0.3355169 0,0.1352083 -0.120185,0.3956095 z m 5.122892,3.4352924 -3.325123,-1.8428391 q -0.250385,-0.140216 -0.335517,-0.2503857 -0.08012,-0.1101697 -0.08012,-0.280432 0,-0.2153318 0.155239,-0.370571 0.155239,-0.1552391 0.365563,-0.1552391 0.130201,0 0.400618,0.1452237 l 4.95263,2.7542432 -4.95263,2.7542436 q -0.270417,0.150231 -0.400618,0.150231 -0.210324,0 -0.365563,-0.155239 -0.155239,-0.155239 -0.155239,-0.375579 0,-0.170262 0.08012,-0.280432 0.08513,-0.110169 0.335517,-0.250385 z"
     id="text3"
     aria-label="&lt;/&gt;" /></svg>
