<?xml version="1.0" encoding="UTF-8" standalone="no"?>
<svg
   role="img"
   viewBox="0 0 24 24"
   version="1.1"
   id="svg1"
   xml:space="preserve"
   xmlns="http://www.w3.org/2000/svg"
   xmlns:svg="http://www.w3.org/2000/svg"
   xmlns:rdf="http://www.w3.org/1999/02/22-rdf-syntax-ns#"
   xmlns:cc="http://creativecommons.org/ns#"
   xmlns:dc="http://purl.org/dc/elements/1.1/"><defs
     id="defs1" /><title
     id="title1">Instagram</title><metadata
     id="metadata1"><rdf:RDF><cc:Work
         rdf:about=""><dc:title>Instagram</dc:title></cc:Work></rdf:RDF></metadata><g
     id="Layer_1_1_"
     transform="matrix(-0.05243616,0,0,-0.05243616,25.429557,25.423658)"><path
       id="path22"
       class="st0"
       d="M 322.4,140.9 278.3,64.1 H 162.6 c -10.3,0 -19.9,5.5 -24.9,14.5 L 44.1,241.7 c -5.1,8.9 -5.1,19.7 0,28.7 l 35.6,62.1 44,-76.4 66.2,-115.2 z"
       style="fill:#a3a3a3;fill-opacity:1" /><path
       id="path26"
       class="st1"
       d="M 468.2,241.7 374.6,78.6 C 369.4,69.7 359.9,64.1 349.7,64.1 h -71.4 l 44.1,76.8 66.2,115.2 -66.2,115.2 h 88 l 57.8,-100.9 c 5,-8.9 5,-19.8 0,-28.7"
       style="fill:#ababab;fill-opacity:1" /><path
       id="path30"
       class="st2"
       d="M 410.3,371.2 H 189.7 L 123.5,256 l -44,76.4 58,101 c 5.2,8.9 14.7,14.5 24.9,14.5 h 187.1 c 10.3,0 19.9,-5.5 24.9,-14.5 z"
       style="fill:#7a7a7a;fill-opacity:1" /><path
       class="st3"
       d="M 322.2,371.2 H 189.6 L 123.5,256 189.7,140.8 H 322.2 L 388.6,256 Z M 256,198.5 c -31.9,0 -57.6,25.7 -57.6,57.6 0,31.9 25.7,57.6 57.6,57.6 31.9,0 57.6,-25.7 57.6,-57.6 0,-31.9 -25.8,-57.6 -57.6,-57.6 z"
       id="path1"
       style="fill:#ffffff;fill-opacity:1" /></g></svg>
