<?xml version="1.0" encoding="UTF-8" standalone="no"?>
<svg
   role="img"
   viewBox="0 0 24 24"
   version="1.1"
   id="svg1"
   xml:space="preserve"
   xmlns="http://www.w3.org/2000/svg"
   xmlns:svg="http://www.w3.org/2000/svg"
   xmlns:rdf="http://www.w3.org/1999/02/22-rdf-syntax-ns#"
   xmlns:cc="http://creativecommons.org/ns#"
   xmlns:dc="http://purl.org/dc/elements/1.1/"><defs
     id="defs1" /><title
     id="title1">Instagram</title><metadata
     id="metadata1"><rdf:RDF><cc:Work
         rdf:about=""><dc:title>Instagram</dc:title></cc:Work></rdf:RDF></metadata><g
     id="g6"
     transform="matrix(0.03942189,0,0,0.03942189,11.511168,11.643861)"
     style="stroke-width:1.0146647;stroke-dasharray:none"><path
       d="m -135.2,-246 h 23 v 22.8 H -91 V -246 h 23 v 69 h -23 v -23 h -21 v 23 h -23.2 m 97.6,-46 h -20.3 v -23 H 5.8 v 23 h -20.4 v 46 h -23 m 53.5,-69 H 40 l 14.8,24.3 14.8,-24.3 h 24.1 v 69 h -23 v -34.2 l -16.1,24.8 -16.1,-24.8 V -177 H 15.9 m 89.2,-69 h 23 v 46.2 h 32.6 v 22.8 h -55.6"
       id="path1"
       style="fill:#ffffff;fill-opacity:1;stroke-width:1.0146647;stroke-dasharray:none" /><path
       fill="#e44d26"
       d="m -136,225 -33,-370.4 H 193.8 L 160.8,224.8 12.1,266"
       id="path2"
       style="stroke-width:1.0146647;stroke-dasharray:none;fill:#777777;fill-opacity:1" /><path
       fill="#f16529"
       d="M 12.4,234.5 V -115 h 148.3 l -28.3,316"
       id="path3"
       style="stroke-width:1.0146647;stroke-dasharray:none;fill:#9d9d9d;fill-opacity:1" /><path
       fill="#ebebeb"
       d="m -101.6,-69.7 h 114 v 45.4 h -64.2 l 4.2,46.5 h 60 V 67.5 H -89.2 m 2,22.8 h 45.6 l 3.2,36.3 50.8,13.6 v 47.4 l -93.2,-26"
       id="path4"
       style="stroke-width:1.0146647;stroke-dasharray:none;fill:#d8d8d8;fill-opacity:1" /><path
       fill="#ffffff"
       d="M 126,-69.7 H 12.2 v 45.4 h 109.6 m -4.1,46.5 H 12.2 v 45.4 h 56 l -5.3,59 -50.7,13.6 v 47.2 l 93,-25.8"
       id="path5"
       style="stroke-width:1.0146647;stroke-dasharray:none" /></g></svg>
