<?xml version="1.0" encoding="UTF-8" standalone="no"?>
<svg
   role="img"
   viewBox="0 0 24 24"
   version="1.1"
   id="svg1"
   xmlns="http://www.w3.org/2000/svg"
   xmlns:svg="http://www.w3.org/2000/svg"
   xmlns:rdf="http://www.w3.org/1999/02/22-rdf-syntax-ns#"
   xmlns:cc="http://creativecommons.org/ns#"
   xmlns:dc="http://purl.org/dc/elements/1.1/">
  <defs
     id="defs1" />
  <title
     id="title1">IMDb</title>
  <path
     d="m 4.7954,8.2603 v 7.3636 H 2.8899 V 8.2603 Z m 6.5367,0 v 7.3636 H 9.6707 V 10.6535 L 8.9996,15.6239 H 7.813 L 7.1144,10.7621 7.1078,15.6239 H 5.4398 V 8.2603 h 2.468 C 7.9826,8.7079 8.057,9.2297 8.1385,9.8337 L 8.4097,11.705 8.8504,8.2603 Z m 2.9772,1.3289 c 0.0742,0.0404 0.122,0.108 0.1417,0.2034 0.0279,0.0953 0.0345,0.3118 0.0345,0.6442 v 2.8548 c 0,0.4881 -0.0345,0.7867 -0.0955,0.8954 -0.0609,0.1152 -0.2304,0.1695 -0.5018,0.1695 V 9.5211 c 0.204,0 0.3457,0.0205 0.4211,0.0681 z m -0.0211,6.0347 c 0.4543,0 0.8006,-0.0265 1.0245,-0.0742 0.2304,-0.0477 0.4204,-0.1357 0.5694,-0.2648 0.1556,-0.1218 0.2642,-0.298 0.3251,-0.5219 0.0611,-0.2238 0.1021,-0.6648 0.1021,-1.3224 v -2.5832 c 0,-0.6986 -0.0271,-1.1668 -0.0742,-1.4039 C 16.1941,9.2165 16.092,8.9992 15.9225,8.8098 15.753,8.6125 15.5027,8.4774 15.1769,8.3888 14.8578,8.308 14.3227,8.2603 13.4075,8.2603 h -1.4244 v 7.3636 z m 5.14,-1.7827 c 0,0.3523 -0.0199,0.5762 -0.0544,0.6708 -0.033,0.0947 -0.1894,0.1424 -0.3046,0.1424 -0.1086,0 -0.19,-0.0477 -0.2238,-0.1351 -0.041,-0.0887 -0.0609,-0.2986 -0.0609,-0.6238 v -1.9469 c 0,-0.3324 0.0199,-0.5423 0.0543,-0.6237 0.0338,-0.0808 0.1086,-0.122 0.2171,-0.122 0.1153,0 0.2709,0.0412 0.3114,0.1425 0.041,0.0947 0.0609,0.2986 0.0609,0.6032 z M 16.9535,8.2603 v 7.3636 h 1.7157 l 0.1152,-0.4675 c 0.1556,0.1894 0.3251,0.3324 0.5152,0.4271 0.1828,0.0881 0.4608,0.1357 0.678,0.1357 0.3047,0 0.5629,-0.0748 0.7802,-0.237 0.2165,-0.1562 0.3589,-0.3462 0.4198,-0.5628 0.0543,-0.2173 0.0887,-0.543 0.0887,-0.9841 v -2.0675 c 0,-0.4409 -0.0139,-0.7324 -0.0344,-0.8681 -0.0199,-0.1357 -0.0742,-0.2781 -0.1695,-0.4204 -0.1021,-0.1425 -0.2437,-0.251 -0.4272,-0.3325 -0.1834,-0.0742 -0.3999,-0.1152 -0.6576,-0.1152 -0.2172,0 -0.4952,0.0477 -0.6846,0.1285 -0.1835,0.0887 -0.353,0.2238 -0.5086,0.4007 V 8.2603 Z"
     id="path1"
     style="fill:#ffffff" />
  <path
     d="m 7.0300816,0.08401679 c -1.2768,0.0602 -2.1487,0.264 -2.911,0.5634 -0.7888,0.3075 -1.4575,0.72000001 -2.1228,1.38770001 -0.6652,0.6677 -1.07500001,1.3368 -1.38020001,2.127 -0.2954,0.7638 -0.4956,1.6365 -0.552,2.914 -0.0564,1.2775 -0.0689,1.6882 -0.0626,4.9470002 0.0062,3.2586 0.0206,3.6671 0.0825,4.9473 0.061,1.2765 0.264,2.1482 0.5635,2.9107 0.308,0.7889 0.72000001,1.4573 1.38800001,2.1228 0.6679,0.6655 1.3365,1.0743 2.1285,1.38 0.7632,0.295 1.6361,0.4961 2.9134,0.552 1.2773,0.056 1.6884,0.069 4.9462004,0.0627 3.2578,-0.0062 3.668,-0.0207 4.9478,-0.0814 1.28,-0.0607 2.147,-0.2652 2.9098,-0.5633 0.7889,-0.3086 1.4578,-0.72 2.1228,-1.3881 0.665,-0.6682 1.0745,-1.3378 1.3795,-2.1284 0.2957,-0.7632 0.4966,-1.636 0.552,-2.9124 0.056,-1.2809 0.0692,-1.6898 0.063,-4.948 -0.0063,-3.2583002 -0.021,-3.6668002 -0.0817,-4.9465002 -0.0607,-1.2797 -0.264,-2.1487 -0.5633,-2.9117 -0.3084,-0.7889 -0.72,-1.4568 -1.3876,-2.1228 -0.6677,-0.666 -1.3379,-1.07520001 -2.1281,-1.37950001 -0.7638,-0.2955 -1.6361,-0.4968 -2.9134,-0.552 -1.2773,-0.0552 -1.6884,-0.0695 -4.9474,-0.0631 -3.2590004,0.0062 -3.6670004,0.0201 -4.9469004,0.0825 m 0.1402,21.69320021 c -1.17,-0.0509 -1.8053,-0.2453 -2.2287,-0.408 -0.5606,-0.216 -0.96,-0.4771 -1.3819,-0.895 -0.422,-0.4178 -0.6811,-0.8186 -0.9,-1.378 -0.1644,-0.4234 -0.3624,-1.058 -0.4171,-2.228 -0.0595,-1.2645 -0.072,-1.6442 -0.079,-4.848 -0.007,-3.2037002 0.0053,-3.5830002 0.0607,-4.8480002 0.05,-1.169 0.2456,-1.805 0.408,-2.2282 0.216,-0.5613 0.4762,-0.96 0.895,-1.3816 0.4188,-0.4217 0.8184,-0.6814 1.3783,-0.9003 0.423,-0.1651 1.0575,-0.3614 2.227,-0.4171 1.2655,-0.06 1.6447,-0.072 4.8480004,-0.079 3.2033,-0.007 3.5835,0.005 4.8495,0.0608 1.169,0.0508 1.8053,0.2445 2.228,0.408 0.5608,0.216 0.96,0.4754 1.3816,0.895 0.4217,0.4194 0.6816,0.8176 0.9005,1.3787 0.1653,0.4217 0.3617,1.056 0.4169,2.2263 0.0602,1.2655 0.0739,1.645 0.0796,4.8480002 0.0058,3.203 -0.0055,3.5834 -0.061,4.848 -0.051,1.17 -0.245,1.8055 -0.408,2.2294 -0.216,0.5604 -0.4763,0.96 -0.8954,1.3814 -0.419,0.4215 -0.8181,0.6811 -1.3783,0.9 -0.4224,0.1649 -1.0577,0.3617 -2.2262,0.4174 -1.2656,0.0595 -1.6448,0.072 -4.8493,0.079 -3.2045004,0.007 -3.5825004,-0.006 -4.8480004,-0.0608"
     id="path1-9"
     style="fill:#ffffff" />
  <metadata
     id="metadata1">
    <rdf:RDF>
      <cc:Work
         rdf:about="">
        <dc:title>IMDb</dc:title>
      </cc:Work>
    </rdf:RDF>
  </metadata>
</svg>
