<?xml version="1.0" encoding="UTF-8" standalone="no"?>
<svg
   role="img"
   viewBox="0 0 24 24"
   version="1.1"
   id="svg1"
   xml:space="preserve"
   xmlns="http://www.w3.org/2000/svg"
   xmlns:svg="http://www.w3.org/2000/svg"
   xmlns:rdf="http://www.w3.org/1999/02/22-rdf-syntax-ns#"
   xmlns:cc="http://creativecommons.org/ns#"
   xmlns:dc="http://purl.org/dc/elements/1.1/"><defs
     id="defs1" /><title
     id="title1">Instagram</title><metadata
     id="metadata1"><rdf:RDF><cc:Work
         rdf:about=""><dc:title>Instagram</dc:title></cc:Work></rdf:RDF></metadata><rect
     fill="#3178c6"
     height="20.117188"
     rx="1.964569"
     width="20.117188"
     id="rect2"
     x="1.941406"
     y="1.941406"
     style="stroke-width:0.0392914;fill:#b3b3b3;fill-opacity:1" /><path
     d="m 15.455718,17.661091 c 0.405296,0.66176 0.932597,1.148179 1.865194,1.148179 0.783445,0 1.283917,-0.391562 1.283917,-0.932597 0,-0.648346 -0.514206,-0.877982 -1.376538,-1.255172 l -0.472686,-0.202808 c -1.364402,-0.581276 -2.27081,-1.309468 -2.27081,-2.848891 0,-1.418058 1.080471,-2.497571 2.769046,-2.497571 1.202156,0 2.066405,0.41839 2.6892,1.513873 l -1.472353,0.945372 c -0.324173,-0.581277 -0.673897,-0.810274 -1.216847,-0.810274 -0.553809,0 -0.90481,0.351321 -0.90481,0.810274 0,0.567223 0.35132,0.796859 1.162552,1.148179 l 0.472686,0.202489 c 1.606494,0.688908 2.51354,1.39123 2.51354,2.970257 0,1.702308 -1.337255,2.634905 -3.133142,2.634905 -1.755965,0 -2.890411,-0.836782 -3.445498,-1.933541 z m -6.6792456,0.163843 c 0.297026,0.526981 0.567223,0.972519 1.2168471,0.972519 0.6211995,0 1.0130815,-0.24305 1.0130815,-1.188102 v -6.429169 h 1.890744 v 6.454719 c 0,1.957815 -1.14786,2.848892 -2.823341,2.848892 -1.5138726,0 -2.3905776,-0.783446 -2.8364356,-1.727061 z"
     id="path1"
     style="stroke-width:0.0319383;stroke:none;stroke-opacity:1;fill:#ffffff;fill-opacity:1" /></svg>
