<?xml version="1.0" encoding="UTF-8" standalone="no"?>
<svg
   role="img"
   viewBox="0 0 24 24"
   version="1.1"
   id="svg1"
   xml:space="preserve"
   xmlns="http://www.w3.org/2000/svg"
   xmlns:svg="http://www.w3.org/2000/svg"
   xmlns:rdf="http://www.w3.org/1999/02/22-rdf-syntax-ns#"
   xmlns:cc="http://creativecommons.org/ns#"
   xmlns:dc="http://purl.org/dc/elements/1.1/"><defs
     id="defs1"><linearGradient
       id="a7fee970-a784-4bb1-af8d-63d18e5f7db9"
       x1="-1027.165"
       x2="-997.48199"
       y1="147.642"
       y2="68.560997"
       gradientTransform="matrix(0.24266436,0,0,-0.24266436,261.26901,38.693179)"
       gradientUnits="userSpaceOnUse"><stop
         offset="0"
         stop-color="#3ccbf4"
         id="stop8"
         style="stop-color:#ffffff;stop-opacity:1;" /><stop
         offset="1"
         stop-color="#2892df"
         id="stop9"
         style="stop-color:#e8e8e8;stop-opacity:1;" /></linearGradient><linearGradient
       id="ac2a6fc2-ca48-4327-9a3c-d4dcc3256e15"
       x1="-1023.725"
       x2="-1029.98"
       y1="108.083"
       y2="105.968"
       gradientTransform="matrix(0.24266436,0,0,-0.24266436,261.26901,38.693179)"
       gradientUnits="userSpaceOnUse"><stop
         offset="0"
         stop-opacity=".3"
         id="stop3" /><stop
         offset=".071"
         stop-opacity=".2"
         id="stop4" /><stop
         offset=".321"
         stop-opacity=".1"
         id="stop5" /><stop
         offset=".623"
         stop-opacity=".05"
         id="stop6" /><stop
         offset="1"
         stop-opacity="0"
         id="stop7" /></linearGradient><linearGradient
       id="e399c19f-b68f-429d-b176-18c2117ff73c"
       x1="-1032.172"
       x2="-1059.213"
       y1="145.312"
       y2="65.426003"
       gradientTransform="matrix(0.24266436,0,0,-0.24266436,261.26901,38.693179)"
       gradientUnits="userSpaceOnUse"><stop
         offset="0"
         stop-color="#114a8b"
         id="stop1"
         style="stop-color:#b5b5b5;stop-opacity:1;" /><stop
         offset="1"
         stop-color="#0669bc"
         id="stop2"
         style="stop-color:#c7c7c7;stop-opacity:1;" /></linearGradient></defs><title
     id="title1">Instagram</title><metadata
     id="metadata1"><rdf:RDF><cc:Work
         rdf:about=""><dc:title>Instagram</dc:title></cc:Work></rdf:RDF></metadata><path
     fill="url(#e399c19f-b68f-429d-b176-18c2117ff73c)"
     d="m 8.494763,1.9402035 h 6.318495 L 8.2540394,21.374463 A 1.0075423,1.0075423 0 0 1 7.2996408,22.059747 H 2.3822903 A 1.0058438,1.0058438 0 0 1 1.4291048,20.732373 L 7.5401209,2.6254878 A 1.0075423,1.0075423 0 0 1 8.494763,1.939961 Z"
     id="path9"
     style="fill:url(#e399c19f-b68f-429d-b176-18c2117ff73c);stroke-width:0.242663" /><path
     fill="#0078d4"
     d="M 17.676454,14.975404 H 7.6568429 a 0.46373158,0.46373158 0 0 0 -0.3166771,0.802977 l 6.4383702,6.009341 a 1.0121529,1.0121529 0 0 0 0.690623,0.272025 h 5.673493 z"
     id="path10"
     style="fill:#d1d1d1;fill-opacity:1;stroke-width:0.242663" /><path
     fill="url(#ac2a6fc2-ca48-4327-9a3c-d4dcc3256e15)"
     d="M 8.494763,1.9402035 A 0.9992918,0.9992918 0 0 0 7.5379369,2.6388342 L 1.4366272,20.715871 a 1.0046304,1.0046304 0 0 0 0.9483327,1.343876 H 7.4292234 A 1.0781578,1.0781578 0 0 0 8.256709,21.356021 l 1.2167192,-3.58585 4.3461188,4.053707 a 1.0281689,1.0281689 0 0 0 0.646943,0.235869 h 5.652379 l -2.479058,-7.084343 -7.226785,0.0017 4.423043,-13.0368994 z"
     id="path11"
     style="fill:url(#ac2a6fc2-ca48-4327-9a3c-d4dcc3256e15);stroke-width:0.242663" /><path
     fill="url(#a7fee970-a784-4bb1-af8d-63d18e5f7db9)"
     d="M 16.565051,2.6245169 A 1.0058438,1.0058438 0 0 0 15.611866,1.9402035 H 8.569988 A 1.0060864,1.0060864 0 0 1 9.5231743,2.6245169 L 15.634435,20.732131 a 1.0060864,1.0060864 0 0 1 -0.953188,1.327859 h 7.042121 a 1.0060864,1.0060864 0 0 0 0.952943,-1.327859 z"
     id="path12"
     style="fill:url(#a7fee970-a784-4bb1-af8d-63d18e5f7db9);stroke-width:0.242663" /></svg>
