<?xml version="1.0" encoding="UTF-8" standalone="no"?>
<svg
   role="img"
   viewBox="0 0 24 24"
   version="1.1"
   id="svg1"
   xml:space="preserve"
   xmlns="http://www.w3.org/2000/svg"
   xmlns:svg="http://www.w3.org/2000/svg"
   xmlns:rdf="http://www.w3.org/1999/02/22-rdf-syntax-ns#"
   xmlns:cc="http://creativecommons.org/ns#"
   xmlns:dc="http://purl.org/dc/elements/1.1/"><defs
     id="defs1" /><title
     id="title1">Instagram</title><metadata
     id="metadata1"><rdf:RDF><cc:Work
         rdf:about=""><dc:title>Instagram</dc:title></cc:Work></rdf:RDF></metadata><g
     id="g67"
     transform="matrix(0.93925745,0,0,0.93925745,1.5717338,1.7285425)"><path
       style="fill:#ffffff;fill-opacity:1"
       d="m 2.4028777,21.471764 v -5e-6 c -0.246863,0.132122 -0.263364,0.128979 -0.484643,-0.0923 -0.179742,-0.179745 -0.191342,-0.318902 -0.191342,-2.296098 v -2.104757 h 0.430519 0.430518 v 2.197062 c 0,2.074255 -0.010343,2.202598 -0.185052,2.296098 z"
       id="path66" /><path
       style="fill:#ffffff;fill-opacity:1"
       d="m 8.4248957,21.378414 -3e-6,-10e-6 c -0.217306,0.217309 -0.267793,0.226242 -0.503321,0.08906 -0.155316,-0.09046 -0.167429,-0.393021 -0.167496,-4.182687 l -7.3e-5,-4.085171 0.406674,0.01091 0.406673,0.01091 0.02497,3.982299 c 0.02432,3.879219 0.019986,3.987278 -0.167424,4.174689 z"
       id="path65" /><path
       style="fill:#ffffff;fill-opacity:1"
       d="m 14.371818,21.412474 v -7e-6 c -0.200874,0.181788 -0.285557,0.190768 -0.518656,0.055 -0.148714,-0.08662 -0.167424,-0.273388 -0.167424,-1.671329 v -1.573814 h 0.430518 0.430519 v 1.515912 c 0,1.347082 -0.01948,1.533537 -0.174957,1.674238 z"
       id="path64" /><path
       style="fill:#ffffff;fill-opacity:1"
       d="m 20.303405,21.412474 c -0.663079,0.600079 -0.686079,0.430362 -0.686079,-5.062556 v -4.920211 h 0.430518 0.430518 v 4.912216 c 0,4.637375 -0.0098,4.921076 -0.174957,5.070551 z"
       id="path63" /><path
       id="path59"
       style="fill:#ffffff;fill-opacity:1"
       d="m 12.69423,14.807206 c 0.160756,0.160756 2.949534,0.02179 2.982344,-0.148611 0.02962,-0.153844 -0.09249,-0.167424 -1.505509,-0.167424 -1.507425,0 -1.742553,0.05032 -1.476835,0.316035 z m 0.0053,0.770627 c 0.163771,0.163771 2.943792,0.02009 2.977182,-0.153872 0.02953,-0.153844 -0.09262,-0.167424 -1.505608,-0.167424 -1.514714,0 -1.743022,0.04985 -1.471574,0.321296 z m -0.06617,0.635412 c 0,0.183342 0.06378,0.191342 1.530732,0.191342 1.466952,0 1.530732,-0.008 1.530732,-0.191342 0,-0.183341 -0.06378,-0.191341 -1.530732,-0.191341 -1.466952,0 -1.530732,0.008 -1.530732,0.191341 z m 3.539818,-1.293421 -5e-6,2.919814 h -2.051275 c -1.128202,0 -2.069178,-0.03229 -2.091058,-0.07175 -0.02186,-0.03946 -0.03516,-1.341782 -0.02956,-2.894041 L 12.0115,12.05156 14.092339,12.02578 16.173178,12 Z" /><path
       id="path55"
       style="fill:#ffffff;fill-opacity:1"
       d="m 0.78478669,13.504154 v 4e-6 c 0.181707,0.218941 2.98550401,0.136288 3.02880401,-0.08929 0.02952,-0.153784 -0.091865,-0.167424 -1.489663,-0.167424 -1.55675101,0 -1.72842801,0.02863 -1.53914101,0.25671 z m -0.06091,0.798062 c 0.11784,0.190668 3.05191701,0.07483 3.08970701,-0.121982 0.029532,-0.153823 -0.092348,-0.167423 -1.499957,-0.167423 -1.47102101,0 -1.73851601,0.0487 -1.58975001,0.289405 z m -0.0052,0.75703 v 2e-6 c 0.111038,0.179661 3.06513801,0.09318 3.06513801,-0.08973 0,-0.120215 -0.239506,-0.147805 -1.475533,-0.170005 -1.42211601,-0.02554 -1.73437901,0.02548 -1.58960501,0.259733 z m 3.56881201,-1.357365 0.025321,2.894047 H 2.2066497 0.10048967 V 13.676104 10.75628 l 2.08083903,0.02578 2.08084,0.02578 z" /><path
       id="path51"
       style="fill:#ffffff;fill-opacity:1"
       d="m 6.6659837,9.726976 v -3e-6 c 0.109618,0.177369 3.1137106,0.08849 3.0792306,-0.0911 C 9.7165343,9.48646 9.5545023,9.4656 8.2386277,9.44195 6.8013537,9.41612 6.5068507,9.46949 6.6659837,9.726976 Z m -0.0053,0.756856 v -3e-6 c 0.113121,0.183037 3.1200266,0.102522 3.0844966,-0.08259 -0.0286,-0.149032 -0.188184,-0.170342 -1.4530336,-0.193962 -1.374688,-0.02567 -1.776188,0.04239 -1.631463,0.276555 z m 0.05569,0.819895 v 4e-6 c 0.181708,0.21894 2.9855036,0.136287 3.0288036,-0.08929 0.02952,-0.153784 -0.09186,-0.167424 -1.4896626,-0.167424 -1.556751,0 -1.728427,0.02863 -1.539141,0.25671 z m 3.5027523,-1.380842 -0.02532,2.89404 -2.0152073,0.02577 c -2.436915,0.03116 -2.14647,0.431641 -2.14647,-2.959673 V 7.028845 h 2.106159 2.1061593 z" /><path
       style="fill:#ffffff;fill-opacity:1"
       d="m 14.546862,6.161518 -8.7e-5,5.459523 H 14.116256 13.685738 V 6.027668 c 0,-6.098854 -0.01465,-5.937915 0.522003,-5.732014 0.322941,0.123923 0.339121,0.403842 0.339121,5.865864 z"
       id="path50" /><path
       id="path46"
       style="fill:#ffffff;fill-opacity:1"
       d="m 18.583058,7.818128 c -0.02952,0.153824 0.09236,0.167424 1.499967,0.167424 1.489982,0 1.777279,-0.0532 1.505462,-0.278792 -0.237275,-0.196921 -2.965659,-0.09582 -3.005429,0.111368 z m 0.04807,0.967074 c 0.163771,0.163771 2.943791,0.02009 2.977181,-0.153872 0.02953,-0.153844 -0.09262,-0.167424 -1.505608,-0.167424 -1.514713,0 -1.743022,0.04985 -1.471573,0.321296 z m -0.0024,0.762973 c 0.185482,0.185483 2.997684,0.06581 2.997684,-0.127561 0,-0.183342 -0.06378,-0.191342 -1.530733,-0.191342 -1.504311,0 -1.735579,0.05027 -1.466951,0.318903 z m 3.476124,-1.419117 v 2.917959 H 20.047931 17.991009 V 8.129058 5.2111 h 2.056922 2.056921 z" /><path
       style="fill:#ffffff;fill-opacity:1"
       d="m 2.5879297,5.405808 v 4.971513 H 2.1574117 1.7268927 V 5.539658 c 0,-4.836521 0.018392,-5.120929 0.339121,-5.244004 0.531816,-0.204083 0.521916,-0.301169 0.521916,5.110154 z"
       id="path45" /><path
       style="fill:#ffffff;fill-opacity:1"
       d="M 8.6151877,3.688192 V 6.646161 H 8.1846697 7.7541517 V 3.540228 c 0,-3.394317 0.019406,-3.50516 0.562769,-3.214361 0.288967,0.154643 0.298267,0.259646 0.298267,3.362325 z"
       id="path44" /><path
       style="fill:#ffffff;fill-opacity:1"
       d="m 20.478362,2.68125 -3.6e-5,2.147167 H 20.047808 19.61729 l 0.0015,-2.128675 c 0.0015,-2.154562 0.01819,-2.288404 0.298482,-2.39153 0.50169,-0.184582 0.56109,0.06663 0.56109,2.373038 z"
       id="path43" /></g></svg>
