<?xml version="1.0" encoding="UTF-8" standalone="no"?>
<svg
   role="img"
   viewBox="0 0 24 24"
   version="1.1"
   id="svg1"
   xml:space="preserve"
   xmlns="http://www.w3.org/2000/svg"
   xmlns:svg="http://www.w3.org/2000/svg"
   xmlns:rdf="http://www.w3.org/1999/02/22-rdf-syntax-ns#"
   xmlns:cc="http://creativecommons.org/ns#"
   xmlns:dc="http://purl.org/dc/elements/1.1/"><defs
     id="defs1" /><title
     id="title1">Instagram</title><metadata
     id="metadata1"><rdf:RDF><cc:Work
         rdf:about=""><dc:title>Instagram</dc:title></cc:Work></rdf:RDF></metadata><g
     id="g2"
     transform="translate(-0.02406798,0.00195101)"><path
       d="m 11.961103,1.9924537 0.536942,1.0084941 c 0.120718,0.1861062 0.251495,0.3508352 0.405535,0.5042471 0.449547,0.4495469 0.87646,0.9204709 1.259989,1.4247179 0.909783,1.1946003 1.52343,2.5212355 1.96166,3.9560128 0.262812,0.8764596 0.405535,1.7755534 0.416224,2.6847064 0.04401,2.71803 -0.887777,5.051902 -2.766443,6.991556 -0.306824,0.306824 -0.635025,0.591013 -0.987117,0.843764 -0.186106,0 -0.27413,-0.142722 -0.350835,-0.274129 -0.142724,-0.240806 -0.230118,-0.515564 -0.27413,-0.789065 -0.06602,-0.328829 -0.1094,-0.657658 -0.08802,-0.997176 V 17.19217 C 12.059818,17.15947 11.895718,2.0697883 11.961106,1.9924537 Z"
       fill="#599636"
       id="path1"
       style="stroke-width:0.628735;fill:#d4d4d4;fill-opacity:1" /><path
       d="m 11.961103,1.9591307 c -0.022,-0.044012 -0.04401,-0.010689 -0.06602,0.010689 0.01069,0.220058 -0.06602,0.4162239 -0.186106,0.6035875 C 11.576942,2.7595134 11.402154,2.9022366 11.226736,3.0556485 10.252193,3.8994135 9.485134,4.9185961 8.870858,6.0584963 8.0535,7.5926142 7.632247,9.2367614 7.512787,10.967674 c -0.0547,0.624336 0.197423,2.82743 0.394218,3.463083 0.536941,1.68753 1.501424,3.10156 2.750724,4.328854 0.306824,0.295507 0.635024,0.569636 0.974542,0.833077 0.09871,0 0.1094,-0.08802 0.132035,-0.153412 a 3.0053628,3.0053628 0 0 0 0.09871,-0.427541 l 0.220058,-1.643519 z"
       fill="#6cac48"
       id="path2"
       style="stroke-width:0.628735;fill:#e8e8e8;fill-opacity:1" /><path
       d="m 12.498045,20.073671 c 0.022,-0.251494 0.142723,-0.460235 0.274129,-0.668347 -0.132034,-0.0547 -0.230118,-0.163472 -0.306823,-0.284818 -0.06602,-0.1094 -0.120718,-0.240806 -0.163472,-0.361523 -0.153411,-0.460236 -0.186106,-0.943106 -0.230118,-1.413401 v -0.284818 c -0.0547,0.04401 -0.06602,0.416224 -0.06602,0.471553 a 10.921161,10.921161 0 0 1 -0.197423,1.479418 c -0.03269,0.197423 -0.0547,0.394217 -0.176047,0.569635 0,0.02201 0,0.04401 0.01069,0.07671 0.197424,0.580953 0.251495,1.172595 0.284818,1.775553 v 0.220058 c 0,0.262813 -0.01069,0.207484 0.207483,0.295507 0.08802,0.03269 0.186106,0.04401 0.27413,0.1094 0.06602,0 0.07671,-0.0547 0.07671,-0.09871 l -0.0327,-0.361523 V 20.58987 c -0.01069,-0.176046 0.022,-0.350835 0.04401,-0.515564 z"
       fill="#c2bfbf"
       id="path3"
       style="stroke-width:0.628735;fill:#ffffff;fill-opacity:1" /></g></svg>
