<?xml version="1.0" encoding="UTF-8" standalone="no"?>
<svg
   role="img"
   viewBox="0 0 24 24"
   version="1.1"
   id="svg1"
   xml:space="preserve"
   xmlns="http://www.w3.org/2000/svg"
   xmlns:svg="http://www.w3.org/2000/svg"
   xmlns:rdf="http://www.w3.org/1999/02/22-rdf-syntax-ns#"
   xmlns:cc="http://creativecommons.org/ns#"
   xmlns:dc="http://purl.org/dc/elements/1.1/"><defs
     id="defs1" /><title
     id="title1">Instagram</title><metadata
     id="metadata1"><rdf:RDF><cc:Work
         rdf:about=""><dc:title>Instagram</dc:title></cc:Work></rdf:RDF></metadata><path
     style="fill:#ffffff;fill-opacity:1;stroke-width:0.93342"
     d="m 15.301924,22.058594 c -2.903634,-0.886446 -1.786739,-5.092746 1.216303,-4.580679 0.275695,0.04701 0.275695,0.04701 0.275695,-2.31768 0,-2.999172 -0.03635,-2.928414 1.356053,-2.639838 3.926933,0.813859 5.183243,2.636628 3.441419,4.993125 -0.720145,0.974277 -0.921771,1.03922 -0.71923,0.231666 0.394926,-1.574619 -0.283337,-2.446927 -2.025352,-2.604784 -0.496022,-0.04494 -0.496022,-0.04494 -0.496022,2.261159 0,3.101586 -0.07319,3.461582 -0.844775,4.155305 -0.543495,0.488649 -1.519318,0.710779 -2.204091,0.501726 z M 10.599197,21.658682 C 0.77524011,20.67871 -1.7680261,7.4271509 7.0094624,2.9545435 13.8455,-0.52878975 21.954295,4.781929 21.434894,12.402238 c -0.06136,0.900243 -0.04747,0.887367 -0.624744,0.579211 -1.406496,-0.75081 -3.489212,-1.162494 -4.008919,-0.79243 -0.421307,0.299997 -0.426913,0.33351 -0.448464,2.681071 -0.0195,2.124475 -0.0195,2.124475 -0.299276,2.124475 -2.120145,0 -3.476303,2.124461 -2.559937,4.010213 0.109567,0.225475 0.184815,0.424354 0.167217,0.441952 -0.160134,0.160134 -2.179548,0.299937 -3.061574,0.211952 z m 1.93641,-6.064412 C 15.414425,14.851014 16.558101,11.267038 14.634909,9.0156182 12.76122,6.8221505 9.1883038,7.2339571 7.9102787,9.7906849 6.3480226,12.916024 9.1741868,16.462125 12.535607,15.59427 Z m -0.82526,-4.927131 c 0.923425,0.173235 0.842992,1.486111 -0.09658,1.576391 -1.128795,0.108465 -1.087683,-1.79856 0.09658,-1.576391 z M 8.5471575,7.5884895 C 8.8357529,6.5302313 7.4646121,4.9270879 6.8272216,3.8300417 6.4105075,3.374842 2.9348651,7.2700713 3.3098376,7.5478793 3.3538121,7.580469 6.5742681,8.9244948 7.1724702,9.2047607 7.4780869,8.5402198 8.0005582,8.0543888 8.5471575,7.5884895 Z M 18.742643,17.066577 c -0.0029,-1.685162 0.07193,-1.766661 1.139769,-1.240963 0.624724,0.307551 0.575647,0.554648 -0.356706,1.795995 -0.842686,1.121966 -0.780072,1.166347 -0.783063,-0.555032 z"
     id="path42" /></svg>
