<?xml version="1.0" encoding="UTF-8" standalone="no"?>
<svg
   role="img"
   viewBox="0 0 24 24"
   version="1.1"
   id="svg1"
   xml:space="preserve"
   xmlns:xlink="http://www.w3.org/1999/xlink"
   xmlns="http://www.w3.org/2000/svg"
   xmlns:svg="http://www.w3.org/2000/svg"
   xmlns:rdf="http://www.w3.org/1999/02/22-rdf-syntax-ns#"
   xmlns:cc="http://creativecommons.org/ns#"
   xmlns:dc="http://purl.org/dc/elements/1.1/"><defs
     id="defs1"><linearGradient
       xlink:href="#linearGradient2"
       id="linearGradient1475"
       gradientUnits="userSpaceOnUse"
       gradientTransform="matrix(0.10073361,0,0,0.10170613,-0.78822184,-0.15819574)"
       x1="150.96111"
       y1="192.35176"
       x2="112.03144"
       y2="137.27299" /><linearGradient
       id="linearGradient2"><stop
         style="stop-color:#e3e3e3;stop-opacity:1;"
         offset="0"
         id="stop1" /><stop
         style="stop-color:#ffffff;stop-opacity:1;"
         offset="1"
         id="stop2" /></linearGradient><linearGradient
       xlink:href="#linearGradient4"
       id="linearGradient1478"
       gradientUnits="userSpaceOnUse"
       gradientTransform="matrix(0.10073361,0,0,0.10170613,-0.78822184,-0.15819574)"
       x1="26.648937"
       y1="20.603781"
       x2="135.66525"
       y2="114.39767" /><linearGradient
       id="linearGradient4"><stop
         style="stop-color:#dbdbdb;stop-opacity:1;"
         offset="0"
         id="stop3" /><stop
         style="stop-color:#a8a8a8;stop-opacity:1;"
         offset="1"
         id="stop4" /></linearGradient></defs><title
     id="title1">Instagram</title><metadata
     id="metadata1"><rdf:RDF><cc:Work
         rdf:about=""><dc:title>Instagram</dc:title></cc:Work></rdf:RDF></metadata><path
     style="fill:url(#linearGradient1478);fill-opacity:1;stroke-width:0.179069"
     d="M 11.730469,1.9375 C 10.909679,1.9413139 10.125843,2.011316 9.4361487,2.1333565 7.4043932,2.4923002 7.0355054,3.243602 7.0355054,4.6291295 V 6.4589901 H 11.83679 V 7.0689433 H 7.0355054 5.2336247 c -1.3953873,0 -2.6172281,0.8387087 -2.9994043,2.4342182 -0.4408355,1.8288255 -0.4603889,2.9700415 0,4.8796285 0.3412926,1.421423 1.1563452,2.434218 2.551732,2.434218 h 1.6507918 v -2.193594 c 0,-1.584742 1.371156,-2.982616 2.9994045,-2.982616 h 4.7956893 c 1.33495,0 2.400643,-1.099155 2.400643,-2.4398151 V 4.6291295 c 0,-1.3011758 -1.097689,-2.2786125 -2.400643,-2.495773 C 13.407048,1.9960609 12.551258,1.9336857 11.730469,1.9375 Z M 9.1339701,3.409223 c 0.4959395,0 0.9009399,0.4116165 0.9009399,0.9177279 0,0.5043187 -0.4050004,0.9121327 -0.9009399,0.9121327 -0.497719,0 -0.9009406,-0.407814 -0.9009406,-0.9121327 -9e-7,-0.5061114 0.4032216,-0.9177279 0.9009406,-0.9177279 z"
     id="path1948" /><path
     style="fill:url(#linearGradient1475);fill-opacity:1;stroke-width:0.179069"
     d="m 17.231242,7.0689433 v 2.1320396 c 0,1.6529411 -1.401375,3.0441721 -2.999404,3.0441721 H 9.4361487 c -1.3136202,0 -2.4006433,1.124281 -2.4006433,2.439814 v 4.571852 c 0,1.301177 1.1314633,2.066513 2.4006433,2.439815 1.5198173,0.446887 2.9772423,0.52765 4.7956893,0 1.208743,-0.34997 2.400643,-1.054288 2.400643,-2.439815 V 17.426962 H 11.83679 v -0.609954 h 4.795691 2.400642 c 1.395388,0 1.915366,-0.973313 2.400642,-2.434218 0.501273,-1.50398 0.479944,-2.950299 0,-4.8796285 C 21.088917,8.114045 20.430285,7.0689433 19.033123,7.0689433 Z M 14.534016,18.646869 c 0.497718,0 0.900941,0.407814 0.900941,0.912131 0,0.506113 -0.403223,0.917729 -0.900941,0.917729 -0.49594,0 -0.900941,-0.411616 -0.900941,-0.917729 1e-6,-0.504317 0.405001,-0.912131 0.900941,-0.912131 z"
     id="path1950" /></svg>
