<?xml version="1.0" encoding="UTF-8" standalone="no"?>
<svg
   role="img"
   viewBox="0 0 24 24"
   version="1.1"
   id="svg1"
   xml:space="preserve"
   xmlns="http://www.w3.org/2000/svg"
   xmlns:svg="http://www.w3.org/2000/svg"
   xmlns:rdf="http://www.w3.org/1999/02/22-rdf-syntax-ns#"
   xmlns:cc="http://creativecommons.org/ns#"
   xmlns:dc="http://purl.org/dc/elements/1.1/"><defs
     id="defs1" /><title
     id="title1">Instagram</title><metadata
     id="metadata1"><rdf:RDF><cc:Work
         rdf:about=""><dc:title>Instagram</dc:title></cc:Work></rdf:RDF></metadata><path
     class="cls-1"
     d="M 24,10.782228 C 24,6.3437712 18.627343,2.7456569 12,2.7456569 c -6.6273431,0 -12,3.5981143 -12,8.0365711 0,3.955458 4.2697714,7.235915 9.8880857,7.905087 v 2.564314 l 4.0938853,-0.0015 V 18.7009 a 16.612457,16.612457 0 0 0 2.8644,-0.569656 l 1.661914,3.121799 4.62643,-0.0021 L 20.346429,16.5496 C 22.596429,15.088913 24,13.046942 24,10.782284 Z M 4.7157426,11.382229 c 0,-3.0342864 4.0837719,-5.4942862 9.1211994,-5.4942862 5.03743,0 8.754687,1.6824852 8.754687,5.4942862 a 4.6880571,4.6880571 0 0 1 -2.912743,4.393543 2.7644572,2.7644572 0 0 0 -0.255256,-0.149915 8.9772863,8.9772863 0 0 0 -1.148573,-0.432685 c 0,0 3.577971,-0.265714 3.577971,-3.827914 0,-3.5622008 -3.744342,-3.6294007 -3.744342,-3.6294007 H 9.8880857 V 16.328971 C 6.8314291,15.441486 4.7157426,13.562886 4.7157426,11.381972 Z m 11.7790294,1.5816 -2.479544,8.46e-4 0.0012,-2.29817 2.478343,0.0012 a 1.0693715,1.0693715 0 0 1 1.14857,1.127057 1.1341715,1.1341715 0 0 1 -1.14857,1.168714 z M 13.981116,15.9592 h 1.099285 a 0.75300005,0.75300005 0 0 1 0.549084,0.249429 2.8214572,2.8214572 0 0 1 0.437144,0.539999 19.20283,19.20283 0 0 1 -2.085086,0.124716 z"
     id="path1"
     style="fill:#ffffff;fill-rule:evenodd;stroke-width:0.857142" /></svg>
