<?xml version="1.0" encoding="UTF-8" standalone="no"?>
<svg
   role="img"
   viewBox="0 0 24 24"
   version="1.1"
   id="svg1"
   xml:space="preserve"
   xmlns="http://www.w3.org/2000/svg"
   xmlns:svg="http://www.w3.org/2000/svg"
   xmlns:rdf="http://www.w3.org/1999/02/22-rdf-syntax-ns#"
   xmlns:cc="http://creativecommons.org/ns#"
   xmlns:dc="http://purl.org/dc/elements/1.1/"><defs
     id="defs1" /><title
     id="title1">Instagram</title><metadata
     id="metadata1"><rdf:RDF><cc:Work
         rdf:about=""><dc:title>Instagram</dc:title></cc:Work></rdf:RDF></metadata><path
     style="color:#000000;display:inline;fill:#ffffff;fill-opacity:1;stroke-width:0.199693;-inkscape-stroke:none"
     d="m 10.153992,2.0055931 c -1.1932731,0 -2.3440542,1.2924858 -2.3440542,2.4142588 v 8.1390561 c 0,0.821349 1.1101909,2.525805 2.5683182,2.525805 v 0.420448 c 0,0.509467 0.355344,0.829975 0.829975,0.829975 h 0.483242 l 0.0016,0.581138 C 9.129738,16.786465 6.6550716,15.074944 6.6550716,11.597884 V 8.4718278 c 0,-1.503103 -2.0807866,-1.489024 -2.0807866,0 v 3.2009412 c 0,4.187356 2.8463996,6.732169 6.394861,7.157361 l -0.0067,0.729348 H 6.5973479 c -0.7490852,0 -1.1712473,0.500971 -1.1712473,1.171246 l -0.00858,1.263683 H 18.580106 v -1.164616 c 0,-0.664427 -0.425242,-1.269923 -1.282794,-1.269923 l 0.01248,-4.24e-4 h -4.414777 l -0.0073,-0.724634 c 3.64599,-0.400401 6.538,-3.007983 6.538,-7.312981 V 8.4417959 c 0,-1.469893 -2.065965,-1.465994 -2.065965,0 v 3.1560881 c 0,3.470269 -2.489923,5.18742 -5.054732,5.31878 l -0.0012,-0.581528 h 0.377155 c 0.533702,0 0.874827,-0.344995 0.874827,-0.875218 l 0.0023,-0.375205 c 1.464834,0 2.740448,-1.897161 2.737981,-2.597571 l -0.02801,-7.9288306 c -0.004,-1.1392472 -1.44793,-2.5527182 -2.553888,-2.5527182 z"
     id="path8" /><path
     id="path2"
     style="color:#000000;fill:#000000;fill-opacity:1;stroke-width:0.199693;-inkscape-stroke:none"
     d="m 10.294922,2.6171875 v 1.4785156 c 0,0.5674977 0.611328,0.5881286 0.611328,0 V 2.6171875 c 0,-0.6116942 -0.611328,-0.6115944 -0.611328,0 z m 1.353516,0 v 1.46875 c 0,0.6050997 0.611328,0.560906 0.611328,0 v -1.46875 c 0,-0.6116023 -0.611328,-0.6116193 -0.611328,0 z m 1.341796,0 v 1.4199219 c 0,0.6176286 0.611328,0.5953549 0.611328,0 V 2.6171875 c 0,-0.6116191 -0.611328,-0.6116941 -0.611328,0 z m 1.89844,4.9257813 c -0.591005,0 -0.571517,0.6113281 0,0.6113281 0,0 0.519531,-2.52e-5 0.779297,0 0.525722,5.09e-5 0.534656,-0.6122901 -0.002,-0.6113281 -0.259099,4.645e-4 -0.777297,0 -0.777297,0 z m -0.0025,1.2929849 c -0.591005,0 -0.571517,0.6113281 0,0.6113281 0,0 0.519531,-2.52e-5 0.779297,0 0.525722,5.09e-5 0.534656,-0.6122901 -0.002,-0.6113281 -0.259099,4.645e-4 -0.777297,0 -0.777297,0 z m -0.0065,1.4307733 c -0.591005,0 -0.571517,0.611328 0,0.611328 0,0 0.519531,-2.5e-5 0.779297,0 0.525722,5.1e-5 0.534656,-0.61229 -0.002,-0.611328 -0.259099,4.64e-4 -0.777297,0 -0.777297,0 z m 0.0053,-4.0671872 c -0.591005,0 -0.571517,0.6113281 0,0.6113281 0,0 0.519531,-2.52e-5 0.779297,0 0.525722,5.09e-5 0.534656,-0.6122901 -0.002,-0.6113281 -0.259099,4.645e-4 -0.777297,0 -0.777297,0 z m -6.3992374,1.344441 c -0.591005,0 -0.571517,0.6113281 0,0.6113281 0,0 0.519531,-2.52e-5 0.779297,0 0.525722,5.09e-5 0.534656,-0.6122901 -0.002,-0.6113281 -0.259099,4.645e-4 -0.777297,0 -0.777297,0 z m -0.0025,1.2929849 c -0.591005,0 -0.571517,0.6113281 0,0.6113281 0,0 0.519531,-2.52e-5 0.779297,0 0.525722,5.09e-5 0.534656,-0.6122901 -0.002,-0.6113281 -0.259099,4.645e-4 -0.777297,0 -0.777297,0 z m -0.0065,1.4307733 c -0.591005,0 -0.571517,0.611328 0,0.611328 0,0 0.519531,-2.5e-5 0.779297,0 0.525722,5.1e-5 0.534656,-0.61229 -0.002,-0.611328 -0.259099,4.64e-4 -0.777297,0 -0.777297,0 z m 0.0053,-4.0671872 c -0.591005,0 -0.571517,0.6113281 0,0.6113281 0,0 0.519531,-2.52e-5 0.779297,0 0.525722,5.09e-5 0.534656,-0.6122901 -0.002,-0.6113281 -0.259099,4.645e-4 -0.777297,0 -0.777297,0 z m 1.8129254,6.6666142 v 1.478516 c 0,0.567497 0.611328,0.588128 0.611328,0 v -1.478516 c 0,-0.611694 -0.611328,-0.611594 -0.611328,0 z m 1.353516,0 v 1.46875 c 0,0.6051 0.611328,0.560906 0.611328,0 v -1.46875 c 0,-0.611602 -0.611328,-0.611619 -0.611328,0 z m 1.341796,0 v 1.419922 c 0,0.617629 0.611328,0.595355 0.611328,0 v -1.419922 c 0,-0.611619 -0.611328,-0.611694 -0.611328,0 z" /><path
     style="color:#000000;display:inline;fill:#000000;fill-opacity:1;stroke-width:0.199693;-inkscape-stroke:none"
     d="m 10.788088,10.266727 c -0.569177,0 -0.569177,0.61234 0,0.61234 h 2.529288 c 0.569177,0 0.569177,-0.61234 0,-0.61234 z"
     id="path6" /><path
     style="color:#000000;display:inline;fill:#000000;fill-opacity:1;stroke-width:0.199693;-inkscape-stroke:none"
     d="m 10.782988,8.8353328 c -0.565797,0 -0.565797,0.611949 0,0.611949 h 2.509396 c 0.565797,0 0.565797,-0.611949 0,-0.611949 z"
     id="path5" /><path
     style="color:#000000;display:inline;fill:#000000;fill-opacity:1;stroke-width:0.199693;-inkscape-stroke:none"
     d="m 10.759978,7.5420068 c -0.568917,0 -0.568917,0.612341 0,0.612341 h 2.527728 c 0.568917,0 0.568917,-0.612341 0,-0.612341 z"
     id="path4" /><path
     style="color:#000000;display:inline;fill:#000000;fill-opacity:1;stroke-width:0.199693;-inkscape-stroke:none"
     d="m 10.753378,6.1995398 c -0.564172,0 -0.564172,0.611949 0,0.611949 h 2.499645 c 0.564172,0 0.564172,-0.611949 0,-0.611949 z"
     id="path3" /></svg>
