<?xml version="1.0" encoding="UTF-8" standalone="no"?>
<svg
   role="img"
   viewBox="0 0 24 24"
   version="1.1"
   id="svg1"
   xml:space="preserve"
   xmlns="http://www.w3.org/2000/svg"
   xmlns:svg="http://www.w3.org/2000/svg"
   xmlns:rdf="http://www.w3.org/1999/02/22-rdf-syntax-ns#"
   xmlns:cc="http://creativecommons.org/ns#"
   xmlns:dc="http://purl.org/dc/elements/1.1/"><defs
     id="defs1" /><title
     id="title1">Instagram</title><metadata
     id="metadata1"><rdf:RDF><cc:Work
         rdf:about=""><dc:title>Instagram</dc:title></cc:Work></rdf:RDF></metadata><path
     style="fill:#ffffff;fill-opacity:1;stroke-width:0.201716"
     d="m 3.3701668,20.468651 -0.4577137,-5.4e-5 C 2.6291503,20.468553 2.51587,20.464134 2.44144,20.461739 2.161896,20.452377 1.8623403,20.318317 1.8623403,19.97939 V 5.9701836 c 0,-0.2373547 0.1290171,-0.4057614 0.4790754,-0.4084738 0.036392,8.272e-4 1.4525635,-0.020172 4.2674799,-0.020172 2.3402575,0 4.2550134,-0.006 4.2550134,-0.013333 0,-0.00734 -0.606055,-0.6255012 -1.3538381,-1.3666246 C 8.3024664,2.9647296 8.2596516,2.9183532 8.0549895,2.7143433 7.54301,2.2039957 8.1469766,1.5891078 8.65028,2.0839502 c 0.1264011,0.1242767 0.185041,0.1874851 1.652844,1.6307975 0.878055,0.8634068 1.593563,1.5854779 1.60569,1.5887916 0.01213,0.00331 1.163645,-1.1274547 1.73317,-1.703516 1.204841,-1.21867 1.33095,-1.3400578 1.484296,-1.4927234 0.54322,-0.5408075 1.15981,0.1082889 0.687684,0.566438 -0.299398,0.2905343 -0.346171,0.3415342 -1.41955,1.4153446 l -1.441788,1.4423697 4.254761,0.00508 c 2.796124,0.00334 4.211631,0.017701 4.275722,0.019377 0.271569,0.00711 0.497149,0.2338029 0.499391,0.416767 8.06e-4,0.065736 0.0037,13.9690198 8.64e-4,14.0096098 -0.01432,0.205003 -0.225217,0.470746 -0.598802,0.483142 -0.06996,0.0023 -0.188055,0.003 -0.471358,0.0032 l -0.457714,5.4e-5 c -0.149238,0.385083 -0.476518,1.589951 -0.894462,1.589951 -0.616234,0 -1.429254,-0.0038 -2.180494,0 -0.270394,-0.0048 -0.459678,-0.662197 -0.919383,-1.591566 -1.288753,-4.8e-4 -0.973572,0.0015 -4.548328,0.0015 -4.7868858,0 -4.4905415,-0.08441 -4.527971,-3.21e-4 -0.1661407,0.373214 -0.6783162,1.590415 -0.9239457,1.590414 l -2.1564727,1e-6 c -0.2947681,0 -0.7209917,-1.176121 -0.9342701,-1.589952 z"
     id="path34" /><path
     style="fill:#000000;fill-opacity:1;stroke-width:0.201716"
     d="m 5.1250935,18.632893 c -0.6763643,0 -1.7152362,-0.271817 -1.7152362,-1.714584 0,-0.308943 -0.00958,-7.5411512 -0.00958,-7.8950549 0,-1.4556459 0.6833869,-1.8478193 1.997089,-1.8478193 0.053374,0 1.7784613,-0.020172 5.2950407,-0.020172 3.516579,0 4.814643,0.020172 5.295039,0.020172 1.49348,0 1.983164,0.7660056 1.996972,1.8255283 0.0013,0.097331 0,7.4030149 0,7.8366599 0,1.268791 -0.688215,1.79527 -1.724672,1.79527 -1.855798,0 -1.885855,0.02017 -5.567356,0.02017 -1.3792545,0 -5.2928225,-0.02017 -5.5673414,-0.02017 z"
     id="path36" /><path
     style="fill:#000000;fill-opacity:1;stroke-width:0.201716"
     d="m 18.469093,17.380696 c 6.24e-4,-0.656639 0.487051,-1.02364 1.061322,-1.035752 0.57427,-0.01211 1.072784,0.344093 1.069868,1.057323 -0.0029,0.71323 -0.462394,1.042925 -1.065341,1.048755 -0.602947,0.0059 -1.066486,-0.413688 -1.065849,-1.070326 z"
     id="path42" /><path
     style="fill:#000000;fill-opacity:1;stroke-width:0.201716"
     d="m 18.830421,8.4864302 c -0.180335,-5.016e-4 -0.442513,-0.098524 -0.442513,-0.4222551 0,-0.3237312 0.198562,-0.4428411 0.429407,-0.4448077 0.154818,-0.00131 0.202449,-1.495e-4 0.75063,-1.495e-4 0.548182,0 0.514489,0.00144 0.803693,0.00131 0.17999,-6.94e-5 0.35806,0.1933782 0.359156,0.4372268 0.0011,0.243849 -0.205397,0.4248086 -0.374365,0.4263673 -0.272392,0.00251 -0.230613,0.00248 -0.799761,0.00248 -0.577458,0 -0.450581,6.052e-4 -0.726247,-1.655e-4 z"
     id="path41" /><path
     style="fill:#000000;fill-opacity:1;stroke-width:0.201716"
     d="m 18.502985,14.010627 c 6.25e-4,-0.656639 0.487051,-1.02364 1.061321,-1.035752 0.574272,-0.01211 1.072784,0.344093 1.06987,1.057323 -0.0029,0.71323 -0.462395,1.042926 -1.065341,1.048755 -0.602948,0.0059 -1.066487,-0.413687 -1.06585,-1.070326 z"
     id="path40" /><path
     style="fill:#ffffff;fill-opacity:1;stroke-width:0.201716"
     d="m 8.5845195,14.688932 c 0.1228306,-0.124754 3.7238705,-3.739379 3.7546335,-3.7663 0.535972,-0.469034 1.034136,0.148595 0.617557,0.572366 -0.07493,0.07622 -3.6635414,3.683371 -3.7580203,3.774936 -0.5156852,0.499777 -1.1588993,-0.02774 -0.6141702,-0.581002 z"
     id="path39" /><path
     style="fill:#ffffff;fill-opacity:1;stroke-width:0.201716"
     d="m 7.2093591,16.256705 c -0.00163,-0.206811 0.1799497,-0.419039 0.4149827,-0.417663 0.235033,0.0014 0.4328652,0.196445 0.4231472,0.436613 -0.00969,0.240167 -0.1767568,0.400595 -0.4263586,0.402263 -0.2496018,0.0016 -0.4101438,-0.214402 -0.4117713,-0.421213 z"
     id="path38" /><path
     style="fill:#ffffff;fill-opacity:1;stroke-width:0.201716"
     d="M 5.7675013,13.112344 C 5.8903319,12.98759 12.662304,6.571493 12.693067,6.544572 c 0.535972,-0.469034 1.034136,0.148595 0.617557,0.572366 -0.07493,0.07622 -6.8344736,6.484843 -6.9289525,6.576408 -0.5156852,0.499777 -1.1588993,-0.02774 -0.6141702,-0.581002 z"
     id="path39-8" /><path
     style="fill:#000000;fill-opacity:1;stroke-width:0.201716"
     d="m 18.830421,10.090318 c -0.180335,-5.02e-4 -0.442513,-0.098524 -0.442513,-0.422255 0,-0.3237312 0.198562,-0.442841 0.429407,-0.4448077 0.154818,-0.00131 0.202449,-1.495e-4 0.75063,-1.495e-4 0.548182,0 0.514489,0.00144 0.803693,0.00131 0.17999,-6.94e-5 0.35806,0.1933781 0.359156,0.4372269 0.0011,0.243849 -0.205397,0.4248083 -0.374365,0.4263673 -0.272392,0.0025 -0.230613,0.0025 -0.799761,0.0025 -0.577458,0 -0.450581,6.06e-4 -0.726247,-1.65e-4 z"
     id="path33" /><path
     style="fill:#000000;fill-opacity:1;stroke-width:0.201716"
     d="m 18.830421,11.642324 c -0.180335,-5.04e-4 -0.442513,-0.09853 -0.442513,-0.422255 0,-0.323731 0.198562,-0.442841 0.429407,-0.444808 0.154818,-0.0013 0.202449,-1.49e-4 0.75063,-1.49e-4 0.548182,0 0.514489,0.0014 0.803693,0.0013 0.17999,-7e-5 0.35806,0.193378 0.359156,0.437227 0.0011,0.243849 -0.205397,0.424809 -0.374365,0.426368 -0.272392,0.0025 -0.230613,0.0025 -0.799761,0.0025 -0.577458,0 -0.450581,6.06e-4 -0.726247,-1.67e-4 z"
     id="path1-8-2" /></svg>
