<?xml version="1.0" encoding="UTF-8" standalone="no"?>
<svg
   role="img"
   viewBox="0 0 24 24"
   version="1.1"
   id="svg1"
   xml:space="preserve"
   xmlns="http://www.w3.org/2000/svg"
   xmlns:svg="http://www.w3.org/2000/svg"
   xmlns:rdf="http://www.w3.org/1999/02/22-rdf-syntax-ns#"
   xmlns:cc="http://creativecommons.org/ns#"
   xmlns:dc="http://purl.org/dc/elements/1.1/"><defs
     id="defs1" /><title
     id="title1">Instagram</title><metadata
     id="metadata1"><rdf:RDF><cc:Work
         rdf:about=""><dc:title>Instagram</dc:title></cc:Work></rdf:RDF></metadata><g
     id="g23"
     transform="matrix(1.0419821,0,0,1.0419821,-0.51722952,-0.50787695)"><g
       id="g34"><path
         id="path24"
         style="fill:#d4d4d4;fill-opacity:1"
         d="M 10.959253,2.7751835 6.4885494,7.2400272 2.0178463,11.704871 c -0.1578583,0.157651 -0.1744708,0.402944 -0.00195,0.576172 l 4.2910157,4.308594 c 4.823903,5.067617 5.151418,5.034291 5.849609,5.052734 0.563428,0.01488 1.273921,0.01488 1.75,-0.458984 l 1.681641,-1.673829 c 1.73649,-1.728084 1.794922,-1.793562 1.794922,-2.023437 0,-0.254376 -0.07224,-0.334827 -2.638672,-2.914063 l -2.5625,-2.576171 1.980469,-1.992188 c 1.090267,-1.095658 2.25546,-2.269242 2.58789,-2.6074218 L 17.353784,6.782996 c 0.04338,-0.065104 0.0564,-0.1714458 0.05327,-0.23655 -0.03555,-0.2745782 -0.0057,-0.2520237 -1.818896,-2.0564188 L 13.906518,2.8161991 C 13.11135,2.0247246 11.55896,2.176263 10.959253,2.7751835 Z m 2.279296,0.9765625 1.365235,1.3632812 c 0.750955,0.7494761 1.365234,1.3802548 1.365234,1.4023438 0,0.022089 -1.116852,1.1542442 -2.480469,2.515625 -1.363616,1.36138 -2.526225,2.546871 -2.591796,2.628906 -0.273383,0.342025 -0.274586,0.342025 0,0.675781 0.06672,0.0811 1.22818,1.267526 2.591796,2.628907 1.363617,1.36138 2.480469,2.493255 2.480469,2.515625 0,0.02237 -0.614235,0.653344 -1.365234,1.402343 l -1.367188,1.361329 c -0.425783,0.423958 -1.011301,0.494933 -1.58789,0.02543 -0.07146,-0.05819 -1.9790981,-1.932198 -4.2265629,-4.18164 L 3.3362056,11.999793 7.4807369,7.861121 11.627221,3.720496 c 0.543804,-0.5430359 1.122219,-0.4571594 1.611328,0.03125 z" /><path
         style="fill:#ffffff;fill-opacity:1"
         d="m 18.679535,15.925079 c -0.118153,-0.04615 -3.595776,-3.50638 -3.6763,-3.657911 -0.203012,-0.382033 -0.202608,-0.382565 1.836709,-2.4156415 l 1.780654,-1.7752051 c 0.185323,-0.1847563 0.357467,-0.1889808 0.550079,0.00254 l 1.13205,1.1256288 C 21.366809,10.262535 22.069208,10.906455 22.067634,12 c -0.0016,1.093545 -0.75881,1.802031 -1.692787,2.725115 -1.337847,1.322243 -1.352303,1.333946 -1.695309,1.199964 z m 1.105982,-2.225727 0.843904,-0.854588 c 0.447007,-0.452666 0.523449,-1.165371 0.01508,-1.67851 L 19.791146,10.304892 C 19.321801,9.8311431 18.919465,9.4488443 18.897068,9.4553393 c -0.0224,0.00649 -0.606282,0.5818347 -1.297522,1.2785327 l -1.256799,1.266724 1.276218,1.276672 c 0.701921,0.702169 1.286665,1.276672 1.299433,1.276672 0.01277,0 0.402972,-0.384565 0.867119,-0.854588 z"
         id="path23" /></g></g></svg>
