<?xml version="1.0" encoding="UTF-8" standalone="no"?>
<svg
   role="img"
   viewBox="0 0 24 24"
   version="1.1"
   id="svg1"
   xml:space="preserve"
   sodipodi:docname="audioEngineering.svg"
   inkscape:version="1.3 (0e150ed6c4, 2023-07-21)"
   xmlns:inkscape="http://www.inkscape.org/namespaces/inkscape"
   xmlns:sodipodi="http://sodipodi.sourceforge.net/DTD/sodipodi-0.dtd"
   xmlns="http://www.w3.org/2000/svg"
   xmlns:svg="http://www.w3.org/2000/svg"
   xmlns:rdf="http://www.w3.org/1999/02/22-rdf-syntax-ns#"
   xmlns:cc="http://creativecommons.org/ns#"
   xmlns:dc="http://purl.org/dc/elements/1.1/"><sodipodi:namedview
     id="namedview1"
     pagecolor="#000000"
     bordercolor="#000000"
     borderopacity="0.25"
     inkscape:showpageshadow="2"
     inkscape:pageopacity="0.0"
     inkscape:pagecheckerboard="0"
     inkscape:deskcolor="#d1d1d1"
     showguides="true"
     inkscape:zoom="16.896906"
     inkscape:cx="22.045456"
     inkscape:cy="11.92526"
     inkscape:window-width="2560"
     inkscape:window-height="1361"
     inkscape:window-x="-9"
     inkscape:window-y="1341"
     inkscape:window-maximized="1"
     inkscape:current-layer="svg1"><sodipodi:guide
       position="12.083074,22.0625"
       orientation="0,-1"
       id="guide1"
       inkscape:locked="false" /><sodipodi:guide
       position="12.006694,1.941406"
       orientation="0,-1"
       id="guide2"
       inkscape:locked="false" /></sodipodi:namedview><defs
     id="defs1" /><title
     id="title1">Instagram</title><metadata
     id="metadata1"><rdf:RDF><cc:Work
         rdf:about=""><dc:title>Instagram</dc:title></cc:Work></rdf:RDF></metadata><path
     style="fill:#ffffff;stroke-width:0.121738"
     d="m 10.391622,21.845074 -0.01232,-1.54362 c -10e-4,-0.126641 0.01357,-0.254204 -0.194182,-0.303552 -0.7922792,-0.188196 -1.665961,-0.542788 -2.4295843,-1.018182 -0.1221334,-0.07603 -0.2763393,-0.124077 -0.3965994,0 l -1.1012766,1.136227 c -0.079131,0.08164 -0.2038891,0.07777 -0.2803861,0 L 3.940864,18.045794 C 3.8897196,17.993802 3.867262,17.883938 3.930492,17.812956 l 1.0923049,-1.226198 c 0.1066656,-0.11974 0.069511,-0.271269 0,-0.377241 C 4.718706,15.745916 4.280551,14.546736 4.2187666,13.929219 4.1900026,13.641732 4.0711914,13.627578 3.7010627,13.623216 l -1.498795,-0.01766 c -0.2553227,-0.003 -0.2453533,-0.08159 -0.2458785,-0.289788 l -0.00705,-2.796154 c -2.783e-4,-0.110324 0.075953,-0.142437 0.186458,-0.142785 l 1.5894335,-0.005 c 0.1428945,-4.5e-4 0.2378062,-0.06536 0.2815439,-0.238515 C 4.2377078,9.2190363 4.5819116,8.5048119 5.1105074,7.7958488 5.2097822,7.6626994 5.2231162,7.63498 5.0606393,7.4551373 L 3.879711,6.147989 C 3.7904047,6.0491375 3.8070646,5.9748178 3.9046993,5.8807575 L 5.9772736,3.8840604 c 0.096875,-0.093329 0.1802817,-0.1032814 0.2803861,0 l 1.1012766,1.136227 c 0.1656489,0.1709059 0.2877809,0.082259 0.4340632,0 C 8.4894454,4.6286533 9.3318431,4.2341494 10.124228,3.9536255 10.330141,3.8807271 10.3793,3.8528521 10.3793,3.6985536 V 2.1161232 c 0,-0.096592 0.05219,-0.1786232 0.171928,-0.1786232 h 3.063692 c 0.129216,0 0.14941,0.081052 0.14856,0.1508373 L 13.7425,3.812168 c -0.0014,0.1177647 0.05619,0.1815976 0.146618,0.2046926 0.85732,0.21895 1.657329,0.5925625 2.243538,1.0034953 0.303404,0.2126863 0.369719,0.1098277 0.482193,0 l 1.195046,-1.1669313 c 0.111037,-0.1084252 0.241096,-0.092575 0.334515,0.00747 l 1.973969,2.1139394 c 0.09214,0.098676 0.09305,0.1902001 0,0.2803871 l -1.136209,1.101275 c -0.15466,0.1499045 -0.168386,0.355974 0,0.5664307 0.489801,0.6121759 0.780979,1.4639543 1.034515,2.2104542 0.07339,0.216095 0.179499,0.200989 0.298864,0.203005 0,0 1.018847,0.01721 1.52827,0.02581 0.189393,0.0032 0.217203,0.0594 0.217427,0.223852 l 0.0039,2.861831 c 1.42e-4,0.103902 -0.03913,0.202379 -0.180635,0.202379 h -1.547255 c -0.158596,0 -0.279276,0.104616 -0.320577,0.216424 -0.211365,0.821374 -0.521812,1.644084 -1.034515,2.210457 -0.217013,0.23973 -0.133611,0.43693 0,0.566431 l 1.136228,1.101275 c 0.09923,0.09617 0.08403,0.191537 0,0.280388 l -1.999907,2.078649 c -0.08897,0.09248 -0.190926,0.08495 -0.264022,0.01891 l -1.265261,-1.143086 c -0.181769,-0.164217 -0.261824,-0.177916 -0.509607,0 -0.659733,0.473708 -1.575079,0.849376 -2.210456,1.034515 -0.214278,0.06244 -0.237994,0.190583 -0.238507,0.34519 l -0.005,1.507291 c -3.76e-4,0.113367 -0.03561,0.191892 -0.193959,0.191892 h -2.849958 c -0.112938,0 -0.189279,-0.111593 -0.190093,-0.21352 z m 7.325955,-9.579701 C 17.797543,9.1829234 15.65358,6.0041405 12,6.1447939 8.3464197,6.2854472 6.3733352,8.6639004 6.3403738,12 6.3074123,15.3361 8.7568153,17.756528 12,17.753482 c 3.243185,-0.003 5.635755,-2.333601 5.717577,-5.488109 z"
     id="path3"
     sodipodi:nodetypes="ccsssccscssscccccccsssscsssssssscccssscccssscsscsscssccccssssssscscccs" /><g
     id="g2"
     transform="matrix(0.56821191,0,0,0.56821191,5.7868287,5.1814571)"><path
       d="M 11.26922,5.774826 6.9088931,9.546204 H 2.782162 v 4.853197 h 4.0642009 l 4.4228571,3.825773 z"
       style="fill:#ffffff;fill-opacity:1;stroke:#ffffff;stroke-width:1.27094;stroke-linejoin:round;stroke-opacity:1"
       id="path1" /><path
       d="m 13.458027,9.290491 a 4.9566513,4.9566513 0 0 1 0,5.439606 m 1.804729,-7.244335 a 7.6256173,7.6256173 0 0 1 0,9.049067 M 16.914973,5.833545 a 9.8624651,9.8624651 0 0 1 0,12.353499"
       style="fill:none;stroke:#ffffff;stroke-width:1.27094;stroke-linecap:round;stroke-opacity:1"
       id="path2" /></g></svg>
