<?xml version="1.0" encoding="UTF-8" standalone="no"?>
<svg
   role="img"
   viewBox="0 0 24 24"
   version="1.1"
   id="svg1"
   xml:space="preserve"
   xmlns="http://www.w3.org/2000/svg"
   xmlns:svg="http://www.w3.org/2000/svg"
   xmlns:rdf="http://www.w3.org/1999/02/22-rdf-syntax-ns#"
   xmlns:cc="http://creativecommons.org/ns#"
   xmlns:dc="http://purl.org/dc/elements/1.1/"><defs
     id="defs1" /><title
     id="title1">Instagram</title><metadata
     id="metadata1"><rdf:RDF><cc:Work
         rdf:about=""><dc:title>Instagram</dc:title></cc:Work></rdf:RDF></metadata><path
     style="fill:#ffffff;stroke-width:1.93143"
     d="M 15.853086,21.447152 C 14.701529,20.652094 14.696092,20.656083 14.598115,19.52714 l -4.96862,-0.0034 c 0.007,1.165741 -0.0053,1.139106 -1.042222,1.927144 z m 7.601642,-3.226572 c 0.256425,-0.180944 0.544877,0.253257 0.544877,-7.842537 V 3.189221 c 0,-0.2780686 -0.223632,-0.5171052 -0.515952,-0.5883425 -0.29232,-0.071237 -22.677464,-0.06676 -22.967306,0 C 0.208313,2.6718289 3.95e-4,2.9611353 3.95e-4,3.189221 v 7.183927 c 0,7.366042 0.262266,7.699084 0.529331,7.840476 0.498458,0.263898 22.73581,0.140456 22.925002,0.007 z M 1.32146,3.8280435 H 22.458369 V 15.2772 H 1.32146 Z"
     id="path2-7" /></svg>
