<?xml version="1.0" encoding="UTF-8" standalone="no"?>
<svg
   role="img"
   viewBox="0 0 24 24"
   version="1.1"
   id="svg1"
   xml:space="preserve"
   xmlns="http://www.w3.org/2000/svg"
   xmlns:svg="http://www.w3.org/2000/svg"
   xmlns:rdf="http://www.w3.org/1999/02/22-rdf-syntax-ns#"
   xmlns:cc="http://creativecommons.org/ns#"
   xmlns:dc="http://purl.org/dc/elements/1.1/"><defs
     id="defs1" /><title
     id="title1">Instagram</title><metadata
     id="metadata1"><rdf:RDF><cc:Work
         rdf:about=""><dc:title>Instagram</dc:title></cc:Work></rdf:RDF></metadata><path
     style="fill:#ffffff;stroke-width:1.93143"
     d="M 15.853046,21.40064 C 14.701489,20.605582 14.696052,20.609571 14.598075,19.480628 L 9.6294548,19.4772 c 0.00705,1.165741 -0.00529,1.139106 -1.0422219,1.927144 z m 7.601642,-3.226572 c 0.256425,-0.180944 0.544877,0.253257 0.544877,-7.842537 V 3.1427088 c 0,-0.2780686 -0.223632,-0.5171052 -0.515952,-0.5883425 -0.29232,-0.071237 -22.6774638,-0.06676 -22.96730582,0 C 0.20827281,2.6253167 3.5468974e-4,2.9146231 3.5468974e-4,3.1427088 v 7.1839272 c 0,7.366042 0.26226677026,7.699084 0.52933151026,7.840476 0.4984576,0.263898 22.7358098,0.140456 22.9250018,0.007 z M 1.32142,3.7815313 H 22.458329 V 15.230688 H 1.32142 Z M 7.4863523,10.386816 H 5.284591 v 3.522819 H 7.4863523 Z M 11.449523,8.8455823 H 9.4679375 v 5.0640527 h 1.9815855 z m 3.963169,1.5412337 h -1.981585 v 3.522819 h 1.981585 z m 3.302643,-1.5412337 h -1.981584 v 5.0640527 h 1.981584 z M 10.983316,6.7493219 14.8295,9.1254484 20.105539,5.3025091 19.574735,4.5288806 14.763149,7.9648775 11.042541,5.6415967 4.3537761,9.0180103 4.7396938,9.8730707 Z"
     id="path2" /></svg>
