<?xml version="1.0" encoding="UTF-8" standalone="no"?>
<svg
   role="img"
   viewBox="0 0 24 24"
   version="1.1"
   id="svg1"
   xml:space="preserve"
   xmlns="http://www.w3.org/2000/svg"
   xmlns:svg="http://www.w3.org/2000/svg"
   xmlns:rdf="http://www.w3.org/1999/02/22-rdf-syntax-ns#"
   xmlns:cc="http://creativecommons.org/ns#"
   xmlns:dc="http://purl.org/dc/elements/1.1/"><defs
     id="defs1" /><title
     id="title1">Instagram</title><metadata
     id="metadata1"><rdf:RDF><cc:Work
         rdf:about=""><dc:title>Instagram</dc:title></cc:Work></rdf:RDF></metadata><path
     style="fill:#ffffff"
     d="m 5.122283,22.063397 c 0.00552,-1.607337 0.00245,-3.214922 0.00245,-4.822335 0.5501437,-0.459213 1.9122102,-1.597629 2.2711024,-1.894124 v 6.71401 c -0.7578239,-0.0011 -1.5158027,2.64e-4 -2.2735524,0.0024 z m 3.9787985,-7.041763 c 0.4016522,0.0043 0.8111685,-0.182328 1.0739025,-0.355448 l 1.200662,0.700396 -0.02932,6.6972 -2.2452405,-4.3e-4 z m 3.9789075,1.300476 c 0.08409,0.05645 0.183426,0.114549 0.306433,0.203927 0.172929,1.058221 0.906514,1.796515 1.910389,1.911577 v 3.623329 h -2.21682 z m 3.918182,5.7412 c 0.0089,-1.369593 0.0039,-2.739807 0.0039,-4.109587 0.614462,-0.524987 0.782477,-1.124655 0.821788,-1.863477 0.32695,-0.303939 0.955896,-0.857895 1.444916,-1.267696 l -0.01755,7.241236 c -0.75101,-1.52e-4 -1.50202,-3.12e-4 -2.253031,-4.76e-4 z M 1.212196,17.862314 c -0.00656,-1.365399 1.1529418,-1.60842 1.5379262,-1.610901 0.3569587,-0.0023 0.5998539,0.08363 0.8884558,0.249304 1.2574182,-1.015713 2.5367379,-2.106952 3.7749498,-3.14587 -0.077231,-0.176447 -0.095759,-0.351135 -0.091923,-0.548688 0.020758,-1.069114 0.9160219,-1.505954 1.51381,-1.505201 0.4757329,5.99e-4 1.5177042,0.338448 1.5629002,1.454883 0.0061,0.1495 10e-4,0.247375 -0.02074,0.326482 1.149723,0.688799 2.636628,1.530407 3.977542,2.290986 0.331556,-0.448705 0.812335,-0.644733 1.256084,-0.626915 0.486048,0.01952 0.794121,0.175905 1.077956,0.390336 1.378661,-1.234385 2.754954,-2.47063 4.139109,-3.72843 -0.263219,-0.121322 -0.714052,-0.326982 -0.927286,-0.43406 -0.157402,-0.07904 -0.185767,-0.17485 0,-0.220746 0.879841,-0.217374 1.768204,-0.432271 2.656375,-0.631514 0.188627,-0.04231 0.223577,8.61e-4 0.1839,0.193072 -0.133833,0.648335 -0.324906,1.554466 -0.564315,2.61888 -0.04713,0.209556 -0.148223,0.220901 -0.245005,0.02629 -0.154009,-0.309684 -0.333922,-0.615375 -0.477399,-0.930076 -1.473118,1.250177 -2.907698,2.544817 -4.359334,3.81985 0.02995,0.132798 0.0312,0.257802 0.02847,0.386675 -0.02018,0.955146 -0.835963,1.560396 -1.526812,1.545916 -0.760383,-0.01594 -1.501594,-0.611897 -1.540048,-1.495044 -0.0022,-0.05083 -0.006,-0.12785 0.0051,-0.166214 0,0 -2.752785,-1.560733 -4.038183,-2.330683 -0.5262851,0.634814 -1.5076361,0.642408 -2.0650029,0.239676 -1.3250652,1.069486 -2.5431775,2.084895 -3.7748133,3.113824 0.08493,0.112735 0.1445147,0.332458 0.145936,0.568416 0.00593,0.984054 -0.8074739,1.590483 -1.5521869,1.611701 -0.826407,0.02355 -1.5618082,-0.692338 -1.5655079,-1.461962 z m 2.2803767,-0.13449 c -0.00658,-0.382556 -0.2976463,-0.694476 -0.7228946,-0.693452 -0.3172701,7.63e-4 -0.7099625,0.276247 -0.7050262,0.721286 0.00517,0.465726 0.2925982,0.762838 0.6920301,0.758234 0.4626375,-0.0053 0.7446843,-0.274609 0.7358907,-0.786068 z M 16.331024,16.263115 c 0.0024,-0.38 -0.315457,-0.725218 -0.736088,-0.72691 -0.420631,-0.0017 -0.707517,0.356187 -0.708136,0.726643 -6.19e-4,0.370456 0.296578,0.712754 0.695571,0.719034 0.398993,0.0063 0.746234,-0.338767 0.748653,-0.718767 z M 9.5984817,12.75596 c -0.0034,-0.355879 -0.3132981,-0.681878 -0.7684691,-0.674812 -0.44244,0.0069 -0.6890128,0.374354 -0.6926495,0.744357 -0.00386,0.392919 0.3717832,0.705003 0.750391,0.701968 0.3620594,-0.0029 0.7152905,-0.255778 0.7107276,-0.771513 z m 3.4815073,1.103441 V 1.9390477 h 2.217335 L 15.268384,14.06214 c -0.370015,0.03876 -0.730842,0.199524 -0.994152,0.447007 -0.300087,-0.153482 -0.840752,-0.453239 -1.194243,-0.649746 z M 5.1221738,6.08848 h 2.2736616 v 5.060503 c -0.6699312,0.560601 -0.7779622,1.245778 -0.7391402,1.959427 -0.5033127,0.440023 -1.0171197,0.867276 -1.5322219,1.293133 -0.00525,-2.770971 -0.0023,-5.5420572 -0.0023,-8.313063 z m 11.8798692,7.859928 1.3e-5,-4.9610095 h 2.273662 v 2.9493135 c -0.296875,0.249863 -1.656927,1.444131 -2.273675,2.011696 z m -5.907524,-1.242131 c -0.01782,-0.864656 -0.68251,-2.013314 -1.9934375,-2.083126 V 8.9873985 h 2.2736615 l -0.0039,3.8904145 c -0.0921,-0.05719 -0.184226,-0.114364 -0.276324,-0.171536 z"
     id="path1" /></svg>
