<?xml version="1.0" encoding="UTF-8" standalone="no"?>
<svg
   width="24"
   height="24"
   viewBox="0 0 24 24"
   version="1.1"
   id="svg1"
   xmlns="http://www.w3.org/2000/svg"
   xmlns:svg="http://www.w3.org/2000/svg">
  <defs
     id="defs1" />
  <path
     d="M 8,19 H 5 V 8 H 8 Z M 6.5,6.732 c -0.966,0 -1.75,-0.79 -1.75,-1.764 0,-0.974 0.784,-1.764 1.75,-1.764 0.966,0 1.75,0.79 1.75,1.764 0,0.974 -0.783,1.764 -1.75,1.764 z M 20,19 h -3 v -5.604 c 0,-3.368 -4,-3.113 -4,0 V 19 H 10 V 8 h 3 v 1.765 c 1.396,-2.586 7,-2.777 7,2.476 z"
     id="path1"
     style="fill:#ffffff" />
  <path
     d="m 7.0300816,0.08401679 c -1.2768,0.0602 -2.1487,0.264 -2.911,0.5634 -0.7888,0.3075 -1.4575,0.72000001 -2.1228,1.38770001 -0.6652,0.6677 -1.07500001,1.3368 -1.38020001,2.127 -0.2954,0.7638 -0.4956,1.6365 -0.552,2.914 -0.0564,1.2775 -0.0689,1.6882 -0.0626,4.9470002 0.0062,3.2586 0.0206,3.6671 0.0825,4.9473 0.061,1.2765 0.264,2.1482 0.5635,2.9107 0.308,0.7889 0.72000001,1.4573 1.38800001,2.1228 0.6679,0.6655 1.3365,1.0743 2.1285,1.38 0.7632,0.295 1.6361,0.4961 2.9134,0.552 1.2773,0.056 1.6884,0.069 4.9462004,0.0627 3.2578,-0.0062 3.668,-0.0207 4.9478,-0.0814 1.28,-0.0607 2.147,-0.2652 2.9098,-0.5633 0.7889,-0.3086 1.4578,-0.72 2.1228,-1.3881 0.665,-0.6682 1.0745,-1.3378 1.3795,-2.1284 0.2957,-0.7632 0.4966,-1.636 0.552,-2.9124 0.056,-1.2809 0.0692,-1.6898 0.063,-4.948 -0.0063,-3.2583002 -0.021,-3.6668002 -0.0817,-4.9465002 -0.0607,-1.2797 -0.264,-2.1487 -0.5633,-2.9117 -0.3084,-0.7889 -0.72,-1.4568 -1.3876,-2.1228 -0.6677,-0.666 -1.3379,-1.07520001 -2.1281,-1.37950001 -0.7638,-0.2955 -1.6361,-0.4968 -2.9134,-0.552 -1.2773,-0.0552 -1.6884,-0.0695 -4.9474,-0.0631 -3.2590004,0.0062 -3.6670004,0.0201 -4.9469004,0.0825 m 0.1402,21.69320021 c -1.17,-0.0509 -1.8053,-0.2453 -2.2287,-0.408 -0.5606,-0.216 -0.96,-0.4771 -1.3819,-0.895 -0.422,-0.4178 -0.6811,-0.8186 -0.9,-1.378 -0.1644,-0.4234 -0.3624,-1.058 -0.4171,-2.228 -0.0595,-1.2645 -0.072,-1.6442 -0.079,-4.848 -0.007,-3.2037002 0.0053,-3.5830002 0.0607,-4.8480002 0.05,-1.169 0.2456,-1.805 0.408,-2.2282 0.216,-0.5613 0.4762,-0.96 0.895,-1.3816 0.4188,-0.4217 0.8184,-0.6814 1.3783,-0.9003 0.423,-0.1651 1.0575,-0.3614 2.227,-0.4171 1.2655,-0.06 1.6447,-0.072 4.8480004,-0.079 3.2033,-0.007 3.5835,0.005 4.8495,0.0608 1.169,0.0508 1.8053,0.2445 2.228,0.408 0.5608,0.216 0.96,0.4754 1.3816,0.895 0.4217,0.4194 0.6816,0.8176 0.9005,1.3787 0.1653,0.4217 0.3617,1.056 0.4169,2.2263 0.0602,1.2655 0.0739,1.645 0.0796,4.8480002 0.0058,3.203 -0.0055,3.5834 -0.061,4.848 -0.051,1.17 -0.245,1.8055 -0.408,2.2294 -0.216,0.5604 -0.4763,0.96 -0.8954,1.3814 -0.419,0.4215 -0.8181,0.6811 -1.3783,0.9 -0.4224,0.1649 -1.0577,0.3617 -2.2262,0.4174 -1.2656,0.0595 -1.6448,0.072 -4.8493,0.079 -3.2045004,0.007 -3.5825004,-0.006 -4.8480004,-0.0608"
     style="fill:#ffffff"
     id="path1-6" />
</svg>
