<?xml version="1.0" encoding="UTF-8" standalone="no"?>
<svg
   role="img"
   viewBox="0 0 24 24"
   version="1.1"
   id="svg1"
   xml:space="preserve"
   xmlns="http://www.w3.org/2000/svg"
   xmlns:svg="http://www.w3.org/2000/svg"
   xmlns:rdf="http://www.w3.org/1999/02/22-rdf-syntax-ns#"
   xmlns:cc="http://creativecommons.org/ns#"
   xmlns:dc="http://purl.org/dc/elements/1.1/"><defs
     id="defs1" /><title
     id="title1">Instagram</title><metadata
     id="metadata1"><rdf:RDF><cc:Work
         rdf:about=""><dc:title>Instagram</dc:title></cc:Work></rdf:RDF></metadata><g
     stroke-width="2"
     fill="#ffffff"
     id="g4"
     transform="matrix(0.1143244,0,0,0.1143244,1.710804,1.710804)"
     style="stroke:#606060;stroke-opacity:1"><circle
       cx="90"
       cy="90"
       r="88"
       id="circle1"
       style="stroke:#606060;stroke-opacity:1" /><circle
       cx="90"
       cy="90"
       r="66"
       id="circle2"
       style="stroke:#606060;stroke-opacity:1" /><circle
       cx="90"
       cy="90"
       r="44"
       id="circle3"
       style="stroke:#606060;stroke-opacity:1" /><circle
       cx="90"
       cy="90"
       r="22"
       id="circle4"
       style="stroke:#606060;stroke-opacity:1" /><path
       d="M 90,2 V 178 M 152,152 28,28 M 152,28 28,152 M 178,90 H 2"
       id="path4"
       style="stroke:#606060;stroke-opacity:1" /></g><g
     opacity="0.8"
     id="g11"
     transform="matrix(0.1143244,0,0,0.1143244,1.710804,1.710804)"
     style="stroke:#606060;stroke-width:1.87187;stroke-dasharray:none;stroke-opacity:1"><path
       fill="#44C"
       d="m 90,90 h 18 a 18,18 0 0 0 0,-5 z"
       id="path5"
       style="fill:#888888;fill-opacity:1;stroke:#606060;stroke-width:1.87187;stroke-dasharray:none;stroke-opacity:1" /><path
       fill="#BC3"
       d="M 90,90 124,47 A 55,55 0 0 0 109,39 Z"
       id="path6"
       style="fill:#808080;fill-opacity:1;stroke:#606060;stroke-width:1.87187;stroke-dasharray:none;stroke-opacity:1" /><path
       fill="#D93"
       d="M 90,90 74,18 A 74,74 0 0 0 43,33 Z"
       id="path7"
       style="fill:#888888;fill-opacity:1;stroke:#606060;stroke-width:1.87187;stroke-dasharray:none;stroke-opacity:1" /><path
       fill="#DB3"
       d="M 90,90 32,62 a 65,65 0 0 0 -5,39 z"
       id="path8"
       style="fill:#888888;fill-opacity:1;stroke:#606060;stroke-width:1.87187;stroke-dasharray:none;stroke-opacity:1" /><path
       fill="#3BB"
       d="m 90,90 -33,16 a 37,37 0 0 0 2,5 z"
       id="path9"
       style="fill:#777777;fill-opacity:1;stroke:#606060;stroke-width:1.87187;stroke-dasharray:none;stroke-opacity:1" /><path
       fill="#3C9"
       d="m 90,90 -10,45 a 46,46 0 0 0 18,0 z"
       id="path10"
       style="fill:#808080;fill-opacity:1;stroke:#606060;stroke-width:1.87187;stroke-dasharray:none;stroke-opacity:1" /><path
       fill="#D73"
       d="m 90,90 46,58 a 74,74 0 0 0 12,-12 z"
       id="path11"
       style="fill:#888888;fill-opacity:1;stroke:#606060;stroke-width:1.87187;stroke-dasharray:none;stroke-opacity:1" /></g></svg>
