<?xml version="1.0" encoding="UTF-8" standalone="no"?>
<svg
   role="img"
   viewBox="0 0 24 24"
   version="1.1"
   id="svg1"
   xml:space="preserve"
   xmlns="http://www.w3.org/2000/svg"
   xmlns:svg="http://www.w3.org/2000/svg"
   xmlns:rdf="http://www.w3.org/1999/02/22-rdf-syntax-ns#"
   xmlns:cc="http://creativecommons.org/ns#"
   xmlns:dc="http://purl.org/dc/elements/1.1/"><defs
     id="defs1" /><title
     id="title1">Instagram</title><metadata
     id="metadata1"><rdf:RDF><cc:Work
         rdf:about=""><dc:title>Instagram</dc:title></cc:Work></rdf:RDF></metadata><path
     style="fill:#ffffff;stroke-width:0.395664"
     d="M 3.6900877,22.049213 C 3.1461348,21.932898 2.635102,21.540534 2.3620713,21.029572 2.2199082,20.76352 2.2190472,20.74488 2.1875495,17.248712 2.1558961,13.735224 2.1558961,13.735224 2.0091568,13.437301 1.8174367,13.048053 1.5244603,12.797878 1.0690544,12.634537 0.53616636,12.4434 0.39834703,12.360675 0.28992023,12.166841 c -0.0864802,-0.154598 -0.0864802,-0.190477 0,-0.345073 C 0.39406097,11.635608 0.47517007,11.587723 1.1266869,11.327783 1.4020781,11.217907 1.6238837,11.07735 1.7518408,10.931613 2.1678744,10.457777 2.1527433,10.603347 2.1875491,6.7398967 2.2190468,3.2437287 2.2199054,3.2250891 2.3620709,2.9590393 2.6832939,2.3578819 3.3207658,1.9423848 3.9563765,1.9198885 4.242302,1.9097455 4.3152589,1.9307392 4.4132572,2.0518661 4.5494336,2.2200284 4.5647896,2.4897628 4.447319,2.6504145 4.4019111,2.712523 4.2275922,2.7889498 4.0599442,2.8202752 3.6710714,2.8929279 3.3537637,3.0892855 3.2147497,3.3433075 3.1161502,3.5234764 3.1024213,3.8856026 3.0738556,7.057936 3.0422,10.572927 3.0422,10.572927 2.8345221,10.994614 c -0.133039,0.270105 -0.3232293,0.525573 -0.5291238,0.71069 -0.3214417,0.289004 -0.3214417,0.289004 0,0.578008 0.2058945,0.185123 0.3960966,0.440585 0.5291238,0.710688 0.2076731,0.421686 0.2076731,0.421686 0.2393335,3.93668 0.028565,3.172332 0.042294,3.534455 0.1408941,3.714627 0.1390069,0.254024 0.456324,0.450384 0.8451945,0.523032 0.334947,0.06258 0.4699416,0.192859 0.4699416,0.453585 0,0.370235 -0.327446,0.536844 -0.839788,0.427291 z M 19.56867,21.919288 c -0.236228,-0.337262 -0.04,-0.702803 0.409614,-0.763111 0.325643,-0.04368 0.670922,-0.26226 0.806971,-0.510864 0.0986,-0.180168 0.112328,-0.542214 0.140894,-3.713123 0.03166,-3.513489 0.03166,-3.513489 0.203946,-3.881231 0.101929,-0.217532 0.316412,-0.508443 0.525106,-0.712193 0.352808,-0.34445 0.352808,-0.34445 0,-0.688902 C 21.446513,11.446107 21.232014,11.155199 21.130095,10.937671 20.957804,10.569927 20.957804,10.569927 20.926149,7.0564381 20.897583,3.8855314 20.883859,3.5234835 20.785255,3.3433146 20.647546,3.0916844 20.335599,2.8966501 19.97984,2.8397618 19.828166,2.8155127 19.651439,2.7430248 19.587101,2.678676 19.437385,2.5289598 19.43722,2.2365191 19.58674,2.0518637 19.68447,1.931185 19.757899,1.9097666 20.040019,1.9197682 c 0.662414,0.023353 1.273776,0.4239394 1.578731,1.034209 0.193709,0.3876202 0.193709,0.3876202 0.193709,3.7212421 0,3.7985467 7.12e-4,3.8050377 0.463175,4.2645727 0.161275,0.16026 0.413422,0.320169 0.644695,0.408876 0.577789,0.221614 0.685003,0.285841 0.789757,0.473107 0.08647,0.154599 0.08647,0.190477 0,0.345074 -0.104757,0.187268 -0.211966,0.251495 -0.789757,0.473107 -0.231261,0.08872 -0.483412,0.248617 -0.644695,0.408876 -0.462471,0.459537 -0.463175,0.466028 -0.463175,4.264572 0,3.333622 0,3.333622 -0.193709,3.721245 -0.312975,0.626314 -0.926872,1.021384 -1.591112,1.023945 -0.301584,0.0012 -0.376508,-0.02146 -0.458968,-0.139314 z M 6.0260741,6.4172578 C 6.0125336,5.6736491 6.5028414,5.0263254 7.3291372,4.9687171 8.155433,4.9111088 8.6825655,5.5587349 8.688707,6.3499025 8.6948485,7.14107 8.0864593,7.6483437 7.3623881,7.6886305 6.638317,7.7289173 6.0396146,7.1608665 6.0260741,6.4172578 Z m -0.083418,5.6203102 c -0.013541,-0.743609 0.4767673,-1.390933 1.3030631,-1.448541 0.8262958,-0.05761 1.3534283,0.590018 1.3595698,1.381185 0.00614,0.791167 -0.6022477,1.298441 -1.3263189,1.338728 -0.7240711,0.04029 -1.3227735,-0.527764 -1.336314,-1.271372 z m 0.054628,5.685986 c -0.013541,-0.743609 0.4767673,-1.390933 1.3030631,-1.448541 0.8262958,-0.05761 1.3534283,0.590018 1.3595698,1.381185 0.00614,0.791167 -0.6022477,1.298441 -1.3263189,1.338728 -0.7240711,0.04029 -1.3227735,-0.527764 -1.336314,-1.271372 z M 10.729201,6.3904782 c -0.01354,-0.7436087 0.476768,-1.3909324 1.303063,-1.4485407 0.826296,-0.057608 1.353429,0.5900178 1.35957,1.3811854 0.0061,0.7911675 -0.602247,1.2984412 -1.326319,1.338728 -0.724071,0.040287 -1.322773,-0.527764 -1.336314,-1.2713727 z m -0.08342,5.6203098 c -0.01354,-0.743609 0.476768,-1.390933 1.303063,-1.448541 0.826296,-0.05761 1.353429,0.590018 1.35957,1.381185 0.0061,0.791167 -0.602247,1.298441 -1.326319,1.338728 -0.724071,0.04029 -1.322773,-0.527764 -1.336314,-1.271372 z m 0.05463,5.685986 c -0.01354,-0.743609 0.476768,-1.390933 1.303063,-1.448541 0.826296,-0.05761 1.353429,0.590018 1.35957,1.381185 0.0061,0.791167 -0.602247,1.298441 -1.326319,1.338728 -0.724071,0.04029 -1.322773,-0.527764 -1.336314,-1.271372 z M 15.387729,6.3904783 c -0.01354,-0.7436087 0.476768,-1.3909323 1.303063,-1.4485406 0.826296,-0.057608 1.353429,0.5900177 1.35957,1.3811853 0.0061,0.7911676 -0.602247,1.2984413 -1.326319,1.3387281 -0.724071,0.040287 -1.322773,-0.527764 -1.336314,-1.2713728 z m -0.08342,5.6203097 c -0.01354,-0.743609 0.476768,-1.390933 1.303063,-1.448541 0.826296,-0.05761 1.353429,0.590018 1.35957,1.381185 0.0061,0.791167 -0.602247,1.298441 -1.326319,1.338728 -0.724071,0.04029 -1.322773,-0.527764 -1.336314,-1.271372 z m 0.05463,5.685986 c -0.01354,-0.743609 0.476768,-1.390933 1.303063,-1.448541 0.826296,-0.05761 1.353429,0.590018 1.35957,1.381185 0.0061,0.791167 -0.602247,1.298441 -1.326319,1.338728 -0.724071,0.04029 -1.322773,-0.527764 -1.336314,-1.271372 z"
     id="path3" /></svg>
