<?xml version="1.0" encoding="UTF-8" standalone="no"?>
<svg
   role="img"
   viewBox="0 0 24 24"
   version="1.1"
   id="svg1"
   xml:space="preserve"
   xmlns="http://www.w3.org/2000/svg"
   xmlns:svg="http://www.w3.org/2000/svg"
   xmlns:rdf="http://www.w3.org/1999/02/22-rdf-syntax-ns#"
   xmlns:cc="http://creativecommons.org/ns#"
   xmlns:dc="http://purl.org/dc/elements/1.1/"><defs
     id="defs1"><clipPath
       clipPathUnits="userSpaceOnUse"
       id="clipPath52"><path
         id="path52"
         style="stroke-width:0.1;stroke-linecap:square;paint-order:markers fill stroke;stop-color:#000000"
         d="m -880.82767,-187.29769 h 1640.84 v 73.28155 h -1640.84 z" /></clipPath><clipPath
       clipPathUnits="userSpaceOnUse"
       id="clipPath5"><path
         id="path5"
         style="stroke-width:0.1;stroke-linecap:square;paint-order:markers fill stroke;stop-color:#000000"
         d="m 438.25066,553.76374 859.87054,0 v 201.39554 l -859.87054,0 z" /></clipPath></defs><title
     id="title1">Instagram</title><metadata
     id="metadata1"><rdf:RDF><cc:Work
         rdf:about=""><dc:title>Instagram</dc:title></cc:Work></rdf:RDF></metadata><path
     style="fill:#ffffff;fill-opacity:1;stroke-width:0.465249"
     d="M 7.7362124,21.909716 C 4.7834835,21.028116 1.4607337,16.866341 1.733869,14.391724 1.9715233,12.238556 3.1041516,11.163662 6.2709745,10.0859 8.5939619,9.295316 8.9772325,8.9787401 10.03677,6.9754123 c 1.438374,-2.7196204 3.087721,-4.4234457 4.281998,-4.4234457 0.705981,0 0.714854,0.3326607 0.02829,1.0615229 -1.919087,2.0373815 -2.541533,4.5357471 -1.125913,4.519178 0.307272,-0.00367 0.09587,0.1850577 8.095178,-7.22429659 8.364427,-7.74755151 7.936809,-7.31059021 7.946486,-8.12005941 0.0075,-0.6341707 0.07543,-0.710846 1.064679,-1.2033315 0.790284,-0.3934307 1.370616,-0.7606249 1.890376,-1.1960978 0.546462,-0.4578492 0.795509,-0.5172212 1.237867,-0.2951062 0.130943,0.065747 0.389971,0.1692339 0.575605,0.2299634 0.678475,0.2219579 0.647173,0.5079581 -0.151371,1.3831375 -0.701109,0.7683893 -1.181077,1.4272771 -1.535081,2.1073239 -0.291631,0.5602308 -0.36178,0.6119056 -1.134878,0.8359766 -0.941341,0.2728348 -0.805457,0.1465771 -9.10546,8.4602624 -8.327869,8.3416092 -8.357413,8.3733132 -8.532913,9.1575392 -0.276604,1.235993 1.189639,1.591697 2.49587,0.605485 0.52759,-0.398334 0.845331,-0.322244 0.845331,0.202434 0,0.608146 -0.710545,1.250509 -2.197743,1.986841 -1.592818,0.788624 -1.681536,0.897309 -1.814518,2.222894 -0.330284,3.292369 -2.654514,5.373449 -5.1643493,4.624083 z m 1.835319,-4.174624 C 9.7586122,17.548012 9.789719,17.473312 9.789719,17.211131 V 16.905356 L 8.234521,15.341785 C 6.3686619,13.465878 6.0675349,13.317199 5.6201765,14.050959 5.324981,14.535132 5.3715705,14.605035 7.2050948,16.429188 l 1.5319169,1.524089 h 0.3081711 c 0.2648976,0 0.3387974,-0.03062 0.5263486,-0.218185 z"
     id="path93" /></svg>
