<?xml version="1.0" encoding="UTF-8" standalone="no"?>
<svg
   role="img"
   viewBox="0 0 24 24"
   version="1.1"
   id="svg1"
   xml:space="preserve"
   xmlns="http://www.w3.org/2000/svg"
   xmlns:svg="http://www.w3.org/2000/svg"
   xmlns:rdf="http://www.w3.org/1999/02/22-rdf-syntax-ns#"
   xmlns:cc="http://creativecommons.org/ns#"
   xmlns:dc="http://purl.org/dc/elements/1.1/"><defs
     id="defs1" /><title
     id="title1">Instagram</title><metadata
     id="metadata1"><rdf:RDF><cc:Work
         rdf:about=""><dc:title>Instagram</dc:title></cc:Work></rdf:RDF></metadata><path
     d="m 11.635675,1.9424197 c 0.02775,-1.575e-4 0.0555,-3.151e-4 0.0841,-4.795e-4 0.08902,-3.917e-4 0.178038,-5.493e-4 0.267059,-5.753e-4 0.01515,-10e-6 0.03032,-2e-5 0.04594,-2.24e-5 0.446752,-1.576e-4 0.886182,0.00604 1.328797,0.073199 0.02616,0.00362 0.05232,0.00725 0.07928,0.010985 0.945898,0.131712 1.865149,0.4071866 2.734907,0.7995041 0.01918,0.00852 0.03835,0.017035 0.05809,0.025811 0.306771,0.1368341 0.597825,0.2997621 0.88747,0.4694857 0.01856,0.010863 0.03712,0.02173 0.05625,0.032923 0.253131,0.1491194 0.494573,0.3115884 0.731721,0.4848867 0.02308,0.016765 0.02308,0.016765 0.04662,0.03387 0.281189,0.2048708 0.543912,0.4273505 0.801241,0.661323 0.03464,0.031402 0.06952,0.062544 0.104656,0.093396 0.237256,0.2092066 0.464413,0.4329427 0.668457,0.6747893 0.02209,0.025217 0.04423,0.050395 0.0664,0.075543 0.158011,0.1796592 0.30903,0.3625073 0.451414,0.5548347 0.01114,0.014935 0.02227,0.02987 0.03375,0.045258 0.298489,0.4014461 0.556301,0.8235652 0.799251,1.260525 0.0091,0.016173 0.01816,0.032344 0.02751,0.049007 0.545772,0.9766196 0.872426,2.0771626 1.047515,3.177458 0.0044,0.02785 0.009,0.0557 0.01356,0.08441 0.06856,0.450047 0.08999,0.89605 0.08922,1.351085 -6.7e-5,0.08766 4.6e-4,0.175303 10e-4,0.262962 0.0021,0.861356 -0.132944,1.694771 -0.3483,2.5267 -0.004,0.01535 -0.0079,0.03071 -0.012,0.04652 -0.02783,0.105946 -0.02783,0.105946 -0.05308,0.156455 0.13373,0.0074 0.267461,0.01487 0.405244,0.02251 -0.02533,0.151958 -0.02533,0.151958 -0.05962,0.228054 -0.0077,0.01719 -0.0153,0.03438 -0.02318,0.05208 -0.0083,0.01839 -0.01674,0.03678 -0.02538,0.05573 -0.0132,0.02949 -0.0132,0.02949 -0.02666,0.05958 -0.02902,0.06477 -0.05826,0.129453 -0.08749,0.194134 -0.02039,0.04545 -0.04077,0.0909 -0.06113,0.136373 -0.04216,0.09413 -0.08438,0.188222 -0.126628,0.282303 -0.08684,0.19359 -0.172646,0.387642 -0.258314,0.581756 -0.02658,0.06023 -0.05319,0.120441 -0.07981,0.180653 -0.08321,0.188339 -0.166099,0.37681 -0.248374,0.565558 -0.01122,0.02572 -0.01122,0.02572 -0.02266,0.05194 -0.03482,0.07987 -0.06959,0.159761 -0.104233,0.239706 -0.01205,0.0277 -0.02411,0.05539 -0.03616,0.08308 -0.01554,0.03586 -0.01554,0.03586 -0.03141,0.07244 -0.0247,0.05332 -0.0247,0.05332 -0.04722,0.07584 -0.169619,-0.0014 -0.332778,-0.04565 -0.495297,-0.09006 -0.01611,0.02345 -0.03221,0.0469 -0.04881,0.07106 -0.161345,0.232893 -0.331918,0.454921 -0.514029,0.671887 -0.01689,0.02024 -0.01689,0.02024 -0.03411,0.04087 -0.299184,0.357681 -0.616697,0.7167 -0.972928,1.018934 -0.04268,0.03622 -0.08482,0.07291 -0.126814,0.109927 -0.179615,0.157932 -0.362399,0.308902 -0.554659,0.451236 -0.01493,0.01114 -0.02986,0.02227 -0.04526,0.03375 -0.401446,0.298489 -0.823565,0.556302 -1.260525,0.799251 -0.01617,0.0091 -0.03234,0.01816 -0.049,0.02751 -0.97662,0.545771 -2.077163,0.872425 -3.177461,1.047515 -0.02785,0.0044 -0.0557,0.009 -0.0844,0.01355 -0.475359,0.07241 -0.946344,0.09052 -1.426815,0.08916 -0.03014,-4.6e-5 -0.06028,-9e-5 -0.09041,-1.35e-4 -0.435595,-8.46e-4 -0.864226,-0.0093 -1.29557,-0.07445 -0.02651,-0.0039 -0.05301,-0.0077 -0.08032,-0.01171 C 9.5605046,21.823492 8.5978415,21.540202 7.6881523,21.105986 7.6565698,21.090931 7.6565698,21.090931 7.6243491,21.075577 7.1678773,20.856369 6.7304872,20.607473 6.3148286,20.318012 6.3017369,20.308895 6.288644,20.299878 6.2751554,20.290527 5.8840515,20.018662 5.5181622,19.7161 5.1666404,19.394956 5.1443661,19.374787 5.1220862,19.354619 5.099803,19.33445 4.9170952,19.168665 4.7388467,19.000363 4.5782109,18.812771 4.5297587,18.757102 4.479532,18.703278 4.4293228,18.649196 4.310375,18.518713 4.2016918,18.381482 4.0941265,18.241556 4.0640085,18.202436 4.0336945,18.163466 4.0033245,18.124525 3.89141,17.980638 3.7834552,17.834589 3.6807485,17.683929 c -0.026323,0.0064 -0.052645,0.013 -0.079765,0.0197 -0.034854,0.0084 -0.069708,0.01689 -0.1045649,0.02533 -0.017311,0.0043 -0.034622,0.0086 -0.052458,0.01302 -0.016905,0.0041 -0.033811,0.0081 -0.051227,0.01231 -0.015445,0.0038 -0.03089,0.0076 -0.046802,0.01143 -0.054214,0.0093 -0.10557,0.0096 -0.16048,0.0082 C 3.078366,17.56781 2.9840757,17.357149 2.891442,17.144247 2.856284,17.063447 2.820961,16.982715 2.7856496,16.901979 c -0.018566,-0.04245 -0.037122,-0.08489 -0.05567,-0.127344 -0.092762,-0.21218 -0.1862492,-0.424071 -0.2799049,-0.635893 -0.027099,-0.06131 -0.05417,-0.12264 -0.081232,-0.183968 -0.078858,-0.178605 -0.1580093,-0.357055 -0.2384583,-0.534949 -0.012949,-0.02873 -0.025892,-0.05746 -0.038842,-0.0862 -0.023208,-0.05142 -0.046556,-0.102777 -0.070069,-0.154054 -0.014956,-0.03318 -0.014956,-0.03318 -0.030218,-0.06702 -0.00859,-0.01884 -0.01719,-0.03767 -0.02605,-0.05707 -0.018014,-0.05067 -0.018014,-0.05067 -0.018014,-0.140716 0.1337305,-0.0074 0.2674604,-0.01487 0.4052431,-0.02252 -0.00818,-0.02844 -0.016367,-0.05688 -0.024798,-0.08619 -0.1267111,-0.447702 -0.2288728,-0.899713 -0.2960174,-1.360309 -0.00338,-0.02309 -0.00679,-0.04617 -0.010296,-0.06997 -0.062835,-0.458123 -0.082655,-0.9159 -0.081161,-1.377929 4.45e-5,-0.02654 8.97e-5,-0.05308 1.348e-4,-0.08043 0.00107,-0.415902 0.015944,-0.82295 0.074451,-1.235203 0.00372,-0.0278 0.00749,-0.0556 0.011342,-0.08424 0.2539456,-1.8530954 1.0344996,-3.6176743 2.2400043,-5.0488305 0.00961,-0.011521 0.019219,-0.023043 0.02912,-0.034913 C 4.5769254,5.1768674 4.8752989,4.8414363 5.2091986,4.5547744 5.2606573,4.5100817 5.3106532,4.4639902 5.3608131,4.4178466 5.4867602,4.3043599 5.6191116,4.2003459 5.7533592,4.0969741 5.7984184,4.0621725 5.8432321,4.0270699 5.8880335,3.9919369 6.4341726,3.565961 7.025007,3.2254263 7.6431192,2.9150703 7.66125,2.9058994 7.6793814,2.8967291 7.6980616,2.8872801 8.8864912,2.2900948 10.306384,1.9475078 11.635647,1.9424274 Z m -0.885678,1.1527618 c -0.04399,0.0061 -0.088,0.012172 -0.132002,0.018204 -0.8388322,0.1212155 -1.6706621,0.382644 -2.4345364,0.7472548 -0.022826,0.010829 -0.04565,0.021651 -0.069168,0.032803 C 7.368222,4.2497887 6.6857646,4.7082295 6.0671896,5.2564772 6.0464103,5.2747315 6.025631,5.2929864 6.0042221,5.3117935 5.8502666,5.4498748 5.7032477,5.5949374 5.5564146,5.7405172 5.53662,5.7600179 5.5168259,5.7795181 5.4964316,5.7996098 5.3785291,5.9173572 5.2700759,6.0392178 5.1659186,6.1692742 5.1307194,6.2132043 5.095015,6.2561733 5.0579515,6.298518 3.8062321,7.7339575 3.0320143,9.7722308 3.023294,11.679772 c -1.579e-4,0.02335 -3.152e-4,0.04669 -4.777e-4,0.07072 -3.913e-4,0.07495 -5.38e-4,0.149897 -5.64e-4,0.224849 -1.52e-5,0.02567 -2.19e-5,0.05136 -4.45e-5,0.0778 3.711e-4,0.395719 0.013146,0.781387 0.073215,1.173103 0.00597,0.04021 0.00597,0.04021 0.01207,0.08125 0.057031,0.376319 0.1362173,0.744624 0.2355783,1.111966 0.3986312,-0.146678 0.8181384,-0.576484 1.0868039,-0.899572 0.041121,-0.04865 0.084102,-0.09534 0.1274795,-0.141984 0.1264413,-0.136072 0.2463869,-0.276103 0.3616617,-0.421821 0.01158,-0.01456 0.023158,-0.02914 0.035089,-0.04415 0.1920242,-0.242137 0.3757468,-0.488778 0.5502616,-0.743825 0.010963,-0.01601 0.021918,-0.03201 0.033209,-0.0485 C 5.9475818,11.518177 6.3090633,10.892411 6.621618,10.235382 6.9524787,9.5408226 7.3610496,8.8835894 7.855214,8.2932922 7.889233,8.2526302 7.922958,8.2117392 7.9566676,8.1708198 8.2007291,7.8774502 8.4680652,7.6078312 8.7688246,7.3727337 c 0.03941,-0.033288 0.078808,-0.066589 0.118196,-0.099903 0.4066374,-0.3310372 0.8775856,-0.5943711 1.3676954,-0.778123 0.01638,-0.0062 0.03274,-0.012399 0.04961,-0.018787 0.541934,-0.2018112 1.103823,-0.2836351 1.679707,-0.2823312 0.02132,1.98e-5 0.04264,4.51e-5 0.06461,6.76e-5 0.704183,0.00215 1.370642,0.1361857 2.010854,0.4361391 0.01538,0.0071 0.03076,0.014206 0.04661,0.021525 0.491141,0.2287405 0.930279,0.5329919 1.326714,0.9015292 0.02854,0.024477 0.05715,0.048868 0.08583,0.073169 0.196141,0.1715238 0.37795,0.3578242 0.539533,0.562222 0.04404,0.055035 0.08969,0.1081373 0.136208,0.1610794 0.386335,0.4431311 0.695229,0.9605544 0.971966,1.4773938 0.01492,0.027762 0.01492,0.027762 0.03015,0.056092 0.114806,0.2142464 0.224692,0.4298874 0.327249,0.6502644 0.465524,0.9953 1.122742,1.938467 1.84892,2.760718 0.017,0.01927 0.03401,0.03855 0.05153,0.05839 0.04996,0.05596 0.100431,0.11141 0.151086,0.166739 0.0113,0.01243 0.02259,0.02487 0.03423,0.03767 0.139777,0.153688 0.278493,0.302248 0.438551,0.43511 0.02388,0.02097 0.04771,0.04199 0.0715,0.06305 0.163521,0.143987 0.328497,0.271792 0.513852,0.387214 0.06799,-0.122445 0.08968,-0.261502 0.121011,-0.3968 0.0052,-0.02247 0.0052,-0.02247 0.01056,-0.0454 0.04823,-0.208447 0.09047,-0.417057 0.123103,-0.628604 0.0033,-0.0213 0.0066,-0.04261 0.01001,-0.06456 0.01045,-0.07172 0.01941,-0.143485 0.02798,-0.21545 0.0019,-0.01601 0.0039,-0.03203 0.0059,-0.04852 0.04056,-0.344083 0.04726,-0.685916 0.04619,-1.032121 -4.5e-5,-0.0273 -9e-5,-0.05459 -1.35e-4,-0.08271 -0.001,-0.404523 -0.01142,-0.800334 -0.07445,-1.200561 -0.0037,-0.02512 -0.0074,-0.05023 -0.01135,-0.0761 C 20.70589,9.4230984 20.261846,8.2423341 19.59781,7.1926473 19.589462,7.1794388 19.581116,7.166231 19.572514,7.1526221 19.234692,6.6228906 18.832606,6.1217876 18.382064,5.6842416 18.32197,5.6245343 18.262345,5.5644127 18.203187,5.5037818 18.073206,5.3711287 17.942174,5.2448687 17.796273,5.129495 17.746406,5.0900192 17.69741,5.0500493 17.648705,5.0091884 16.438899,3.9989086 14.926867,3.3560444 13.375631,3.1120667 c -0.03241,-0.0051 -0.03241,-0.0051 -0.06548,-0.010307 -0.07282,-0.010762 -0.145685,-0.020186 -0.218759,-0.029088 -0.01608,-0.00197 -0.03215,-0.00392 -0.04872,-0.00595 -0.344449,-0.040737 -0.686757,-0.047167 -1.033332,-0.046113 -0.04095,4.51e-5 -0.04095,4.51e-5 -0.08273,1.126e-4 -0.397099,8.798e-4 -0.783842,0.012803 -1.176621,0.074474 z m 0.157595,6.8666171 c -0.02141,0.018723 -0.04284,0.037435 -0.0649,0.056725 -0.278847,0.246719 -0.523052,0.523325 -0.745585,0.821303 -0.01137,0.0152 -0.02274,0.0304 -0.03446,0.04606 -0.4773808,0.641894 -0.8781562,1.33478 -1.2522583,2.040814 -0.2594451,0.488584 -0.5488094,0.955575 -0.8745856,1.402718 -0.00965,0.01326 -0.019299,0.02653 -0.029241,0.04019 -0.056694,0.07753 -0.1146937,0.153951 -0.1733803,0.229972 -0.00929,0.01211 -0.018589,0.0242 -0.028164,0.03667 -0.4051586,0.526616 -0.8569895,1.063383 -1.3814802,1.474195 -0.05157,0.04085 -0.099683,0.08379 -0.1480087,0.128398 -0.4301304,0.384613 -0.9440899,0.714768 -1.4591562,0.972301 0.03345,0.101298 0.089939,0.176989 0.1561874,0.258905 0.010974,0.01374 0.02194,0.02747 0.033243,0.04163 0.261845,0.326211 0.5404012,0.6336 0.8349343,0.930671 0.019498,0.01979 0.038997,0.03959 0.059087,0.05998 0.1177492,0.117904 0.2396113,0.226359 0.3696699,0.330518 0.04393,0.0352 0.086899,0.0709 0.1292436,0.10797 1.4298982,1.246887 3.455891,2.026696 5.3559261,2.034658 0.02535,1.56e-4 0.05069,3.14e-4 0.07681,4.79e-4 0.08136,3.91e-4 0.162733,5.38e-4 0.244103,5.64e-4 0.0278,1.5e-5 0.0556,2.3e-5 0.08424,4.5e-5 0.408534,-3.56e-4 0.807482,-0.0096 1.21169,-0.07321 0.02512,-0.0037 0.05023,-0.0074 0.07611,-0.01135 1.856453,-0.281716 3.653891,-1.158136 4.966921,-2.510167 0.05971,-0.06009 0.119828,-0.119718 0.180459,-0.178877 0.153584,-0.150491 0.293951,-0.305133 0.427405,-0.474014 0.02498,-0.03056 0.05002,-0.06107 0.0751,-0.09155 0.01316,-0.01602 0.02632,-0.03205 0.03988,-0.04856 0.02596,-0.03161 0.05197,-0.06319 0.07801,-0.09473 0.116496,-0.127464 0.116496,-0.127464 0.167224,-0.282975 -0.01116,-0.0059 -0.02232,-0.01171 -0.03383,-0.01773 -0.601524,-0.317518 -1.161767,-0.708703 -1.664091,-1.16792 -0.03204,-0.02898 -0.06422,-0.05781 -0.09701,-0.08594 -0.128438,-0.110315 -0.248355,-0.228006 -0.367773,-0.347964 -0.01935,-0.01926 -0.03868,-0.03851 -0.05862,-0.05835 -0.112282,-0.112453 -0.219636,-0.227386 -0.322708,-0.3483 -0.02217,-0.02544 -0.04436,-0.05084 -0.06658,-0.07625 -0.596968,-0.688054 -1.095414,-1.45732 -1.520652,-2.261477 -0.134796,-0.254866 -0.277314,-0.50436 -0.4247,-0.752125 -0.03517,-0.05927 -0.06998,-0.118747 -0.1047,-0.178284 -0.223839,-0.38151 -0.470026,-0.750885 -0.742595,-1.099468 -0.01411,-0.01817 -0.02821,-0.03633 -0.04274,-0.05505 C 13.421631,10.235477 12.874182,9.5742738 12.168344,9.4665123 11.671833,9.4304135 11.270503,9.636047 10.907588,9.9618097 Z"
     fill="#7826e7"
     id="path1"
     style="stroke-width:0.0225135;fill:#ffffff;fill-opacity:1" /></svg>
