<?xml version="1.0" encoding="UTF-8" standalone="no"?>
<svg
   role="img"
   viewBox="0 0 24 24"
   version="1.1"
   id="svg1"
   xml:space="preserve"
   xmlns="http://www.w3.org/2000/svg"
   xmlns:svg="http://www.w3.org/2000/svg"
   xmlns:rdf="http://www.w3.org/1999/02/22-rdf-syntax-ns#"
   xmlns:cc="http://creativecommons.org/ns#"
   xmlns:dc="http://purl.org/dc/elements/1.1/"><defs
     id="defs1" /><title
     id="title1">Instagram</title><metadata
     id="metadata1"><rdf:RDF><cc:Work
         rdf:about=""><dc:title>Instagram</dc:title></cc:Work></rdf:RDF></metadata><path
     style="fill:#ffffff;stroke-width:1.93143"
     d="M 15.853086,21.447152 C 14.701529,20.652094 14.696092,20.656083 14.598115,19.52714 l -4.96862,-0.0034 c 0.007,1.165741 -0.0053,1.139106 -1.042222,1.927144 z m 7.601642,-3.226572 c 0.256425,-0.180944 0.544877,0.253257 0.544877,-7.842537 V 3.189221 c 0,-0.2780686 -0.223632,-0.5171052 -0.515952,-0.5883425 -0.29232,-0.071237 -22.677464,-0.06676 -22.967306,0 C 0.208313,2.6718289 3.95e-4,2.9611353 3.95e-4,3.189221 v 7.183927 c 0,7.366042 0.262266,7.699084 0.529331,7.840476 0.498458,0.263898 22.73581,0.140456 22.925002,0.007 z M 1.32146,3.8280435 H 22.458369 V 15.2772 H 1.32146 Z"
     id="path2-7" /><path
     style="font-weight:bold;font-family:Monospace;-inkscape-font-specification:'Monospace Bold';letter-spacing:0px;word-spacing:0px;baseline-shift:baseline;fill:#ffffff;stroke-width:11.5843"
     d="m 6.9580078,8.1542835 3.8906252,2.1562505 q 0.292969,0.164062 0.386719,0.292968 0.09961,0.128907 0.09961,0.328125 0,0.251953 -0.181641,0.439453 -0.18164,0.181641 -0.421875,0.181641 -0.158203,0 -0.474609,-0.175781 L 4.4619141,8.1542835 10.256836,4.9316273 q 0.316406,-0.1699219 0.46875,-0.1699219 0.246094,0 0.427734,0.1816406 0.181641,0.1816406 0.181641,0.4335938 0,0.1992187 -0.09961,0.328125 -0.09375,0.1289062 -0.386719,0.2929687 z M 18.741211,14.179674 h -6.597656 q -0.433594,0 -0.615235,-0.164062 -0.1875,-0.164063 -0.1875,-0.433594 0,-0.269531 0.1875,-0.439453 0.181641,-0.164063 0.615235,-0.164063 h 6.597656 q 0.427734,0 0.609375,0.164063 0.1875,0.169922 0.1875,0.439453 0,0.263672 -0.181641,0.427734 -0.18164,0.169922 -0.615234,0.169922 z"
     id="text3"
     aria-label="&lt;_" /><text
     xml:space="preserve"
     style="font-style:normal;font-variant:normal;font-weight:normal;font-stretch:normal;font-family:'FiraMono Nerd Font Mono';-inkscape-font-specification:'FiraMono Nerd Font Mono';fill:#919191;stroke-width:11.5843"
     x="-9.2639542"
     y="5.0406814"
     id="text4"><tspan
       id="tspan4"
       x="-9.2639542"
       y="5.0406814" /></text><text
     xml:space="preserve"
     style="font-style:normal;font-variant:normal;font-weight:bold;font-stretch:normal;font-family:'FiraMono Nerd Font Mono';-inkscape-font-specification:'FiraMono Nerd Font Mono Bold';letter-spacing:-2.49px;fill:#ffffff;fill-opacity:1;stroke-width:11.5843"
     x="35.284767"
     y="11.307474"
     id="text5"><tspan
       id="tspan5" /></text><text
     xml:space="preserve"
     style="font-style:normal;font-variant:normal;font-weight:bold;font-stretch:normal;font-family:Monospace;-inkscape-font-specification:'Monospace Bold';letter-spacing:0px;word-spacing:0px;fill:#ffffff;fill-opacity:1;stroke-width:11.5843"
     x="29.349279"
     y="24"
     id="text6"><tspan
       id="tspan6" /></text></svg>
