<?xml version="1.0" encoding="UTF-8" standalone="no"?>
<svg
   role="img"
   viewBox="0 0 24 24"
   version="1.1"
   id="svg1"
   xml:space="preserve"
   xmlns="http://www.w3.org/2000/svg"
   xmlns:svg="http://www.w3.org/2000/svg"
   xmlns:rdf="http://www.w3.org/1999/02/22-rdf-syntax-ns#"
   xmlns:cc="http://creativecommons.org/ns#"
   xmlns:dc="http://purl.org/dc/elements/1.1/"><defs
     id="defs1" /><title
     id="title1">Instagram</title><metadata
     id="metadata1"><rdf:RDF><cc:Work
         rdf:about=""><dc:title>Instagram</dc:title></cc:Work></rdf:RDF></metadata><path
     style="fill:#ffffff;fill-opacity:1;stroke-width:0.987377"
     d="M 9.9888081,18.061397 C 8.9250427,18.004367 8.2675525,17.937618 7.5341085,17.812183 5.9415725,17.539826 4.8867972,17.103558 4.6366712,16.613765 l -0.050207,-0.09832 -0.00572,-1.103192 c -0.00462,-0.893153 -7.739e-4,-1.100344 0.020125,-1.088237 0.014201,0.0082 0.048443,0.03048 0.076105,0.04945 0.3518135,0.241341 1.016479,0.503526 1.7281569,0.681691 1.1702072,0.292954 2.962259,0.483943 4.5444049,0.484322 l 0.467801,1.12e-4 v 1.267591 1.267591 l -0.658946,-0.0038 c -0.36242,-0.0021 -0.708743,-0.0065 -0.7696089,-0.0096 z M 10.290616,14.882289 C 7.3595051,14.79219 5.0448949,14.195837 4.6335948,13.424769 l -0.04714,-0.08838 -0.00572,-1.111675 -0.00572,-1.111676 0.1565852,0.10251 c 0.8246161,0.539846 2.4479227,0.920042 4.5830911,1.073414 1.2461439,0.08952 2.3692369,0.08341 3.6216889,-0.01965 0.398239,-0.03277 0.897153,-0.08464 0.975842,-0.101434 0.03411,-0.0073 -0.246808,0.286751 -0.873137,0.913886 -0.578965,0.579706 -0.919283,0.934761 -0.912294,0.951796 0.0061,0.01494 0.133367,0.199201 0.282743,0.40946 l 0.271599,0.382289 -0.118294,0.01381 c -0.3388,0.03955 -1.606438,0.06363 -2.272305,0.04316 z M 9.9787471,11.684385 c -0.667465,-0.03894 -0.901062,-0.05586 -1.2474698,-0.09034 -2.201151,-0.219044 -3.7958862,-0.747942 -4.09648,-1.358608 l -0.048342,-0.0982 -0.00554,-1.1042392 -0.00554,-1.1042398 0.055838,0.037135 c 0.3062808,0.2037017 0.6312488,0.3570982 1.0819534,0.5107259 1.325311,0.4517447 3.4764914,0.7115671 5.6136363,0.6780199 2.684534,-0.042141 4.849209,-0.4500752 5.920948,-1.1158099 l 0.166487,-0.1034173 -0.0055,1.1109745 c -0.0065,1.2822059 0.0096,1.1794029 -0.21863,1.4059169 -0.58465,0.580221 -2.198271,1.006568 -4.52527,1.195653 -0.366292,0.02976 -2.341251,0.05655 -2.6860859,0.03642 z m 0.03018,-3.1888712 C 7.2314536,8.3833484 5.0301665,7.7899837 4.6335991,7.0465359 l -0.04714,-0.088371 -0.00572,-1.1101227 -0.00563,-1.1101229 0.1364612,0.090637 c 0.7032625,0.4671012 2.0571323,0.8294687 3.7782696,1.0112658 0.9153792,0.096688 2.1469031,0.1540084 2.8772291,0.133918 2.50957,-0.069034 4.419528,-0.3925171 5.533136,-0.9371273 0.154928,-0.075769 0.330012,-0.1701324 0.389074,-0.2096998 0.05906,-0.039568 0.111126,-0.071941 0.115694,-0.071941 0.0045,0 0.0083,0.4916772 0.0083,1.0926161 v 1.0926162 l -0.05116,0.1027241 C 16.893999,7.9823158 13.568761,8.6391869 10.008965,8.4954765 Z M 9.7373031,5.297052 C 8.1393044,5.2030839 6.8056551,4.979375 5.8439889,4.6439792 5.5550542,4.543209 5.0984995,4.3155431 4.930815,4.1886156 4.4413201,3.8180959 4.4681556,3.3991299 5.0050964,3.0289066 6.5744776,1.9468141 11.728776,1.5916362 15.104627,2.3329574 c 1.25055,0.2746154 2.071213,0.6696485 2.263441,1.089527 0.04044,0.088322 0.04811,0.1315936 0.0413,0.2325955 -0.0115,0.1702565 -0.06002,0.2612989 -0.226945,0.425894 -0.582912,0.5747498 -2.197742,1.0017113 -4.497462,1.1891307 -0.459076,0.037413 -2.458789,0.055694 -2.9476529,0.026948 z"
     id="path2" /><circle
     style="fill:#ffffff;fill-opacity:1;stroke:#000000;stroke-width:0.792;stroke-opacity:1;stroke-dasharray:none"
     id="path9"
     cx="16.770817"
     cy="16.812403"
     r="5.72506" /><text
     xml:space="preserve"
     style="font-size:4.97838px;line-height:0;letter-spacing:0px;word-spacing:0px;fill:#000000;fill-opacity:1;stroke:none;stroke-width:4.66641;stroke-opacity:1"
     x="14.599868"
     y="15.783508"
     id="text10"
     transform="scale(0.83231936,1.2014619)"><tspan
       id="tspan10"
       x="14.599868"
       y="15.783508"
       style="font-style:normal;font-variant:normal;font-weight:900;font-stretch:normal;line-height:0;font-family:Arial;-inkscape-font-specification:'Arial Heavy';letter-spacing:0px;word-spacing:0px;writing-mode:lr-tb;direction:ltr;baseline-shift:baseline;fill:#000000;fill-opacity:1;stroke-width:4.66641"
       dy="0"
       dx="0"
       rotate="0 0 0 0">SQL</tspan></text></svg>
