<?xml version="1.0" encoding="UTF-8" standalone="no"?>
<svg
   role="img"
   viewBox="0 0 24 24"
   version="1.1"
   id="svg1"
   xml:space="preserve"
   xmlns="http://www.w3.org/2000/svg"
   xmlns:svg="http://www.w3.org/2000/svg"
   xmlns:rdf="http://www.w3.org/1999/02/22-rdf-syntax-ns#"
   xmlns:cc="http://creativecommons.org/ns#"
   xmlns:dc="http://purl.org/dc/elements/1.1/"><defs
     id="defs1" /><title
     id="title1">Instagram</title><metadata
     id="metadata1"><rdf:RDF><cc:Work
         rdf:about=""><dc:title>Instagram</dc:title></cc:Work></rdf:RDF></metadata><rect
     fill="#3178c6"
     height="20.117188"
     rx="1.964569"
     width="20.117188"
     id="rect2"
     x="1.941406"
     y="1.941406"
     style="stroke-width:0.0392914;fill:#b3b3b3;fill-opacity:1" /><path
     clip-rule="evenodd"
     d="m 14.394377,17.949658 v 1.966966 c 0.319753,0.163923 0.697932,0.286827 1.134538,0.36879 0.436606,0.08195 0.896749,0.122949 1.380504,0.122949 0.471457,0 0.919299,-0.04507 1.343607,-0.135242 0.424308,-0.09014 0.796359,-0.238697 1.11611,-0.445645 0.319755,-0.206909 0.572909,-0.477389 0.759426,-0.811367 0.186515,-0.333976 0.279793,-0.746811 0.279793,-1.238542 0,-0.35653 -0.05327,-0.668975 -0.159877,-0.937376 -0.106589,-0.268399 -0.260305,-0.507094 -0.461201,-0.716083 -0.200858,-0.208992 -0.441714,-0.39649 -0.72253,-0.562457 -0.280816,-0.165967 -0.597503,-0.322701 -0.950065,-0.470201 -0.258262,-0.106559 -0.489886,-0.210012 -0.694869,-0.310402 -0.204983,-0.10043 -0.379201,-0.20286 -0.522693,-0.307336 -0.143492,-0.10451 -0.254176,-0.21516 -0.332051,-0.331934 -0.07788,-0.116818 -0.116853,-0.248951 -0.116853,-0.39649 0,-0.135197 0.03486,-0.257123 0.104554,-0.365724 0.0697,-0.108608 0.168089,-0.201801 0.295158,-0.279676 0.127108,-0.07784 0.282858,-0.138309 0.467332,-0.18133 0.184511,-0.04302 0.389456,-0.06452 0.614948,-0.06452 0.163964,0 0.33716,0.01232 0.519591,0.03685 0.182429,0.0246 0.365881,0.06252 0.550392,0.113707 0.184473,0.05124 0.363798,0.115786 0.538055,0.193627 0.174219,0.07788 0.335117,0.168011 0.482695,0.270483 v -1.837894 c -0.299243,-0.114723 -0.626186,-0.199757 -0.98079,-0.25508 -0.354605,-0.05532 -0.761507,-0.08299 -1.220625,-0.08299 -0.467372,0 -0.910107,0.05023 -1.328246,0.150602 -0.418139,0.100381 -0.786063,0.257121 -1.103813,0.4702 -0.31771,0.213116 -0.568783,0.484581 -0.753255,0.814471 -0.184473,0.329851 -0.276729,0.724257 -0.276729,1.183221 0,0.58599 0.16911,1.085935 0.50733,1.499829 0.338181,0.413857 0.851641,0.764219 1.540379,1.051085 0.270561,0.110641 0.522694,0.219206 0.756359,0.325765 0.233667,0.106558 0.435585,0.217202 0.605678,0.331932 0.170132,0.114723 0.304389,0.239718 0.402814,0.374959 0.09838,0.135196 0.147582,0.288871 0.147582,0.461005 0,0.127032 -0.03076,0.244824 -0.09226,0.353426 -0.0615,0.108607 -0.154769,0.202822 -0.279794,0.282742 -0.125029,0.07992 -0.280816,0.142391 -0.467331,0.187458 -0.186555,0.0451 -0.40482,0.06762 -0.654909,0.06762 -0.426351,0 -0.848576,-0.07478 -1.266754,-0.224354 -0.418137,-0.149523 -0.80555,-0.373876 -1.162198,-0.673041 z M 11.087654,13.10338 h 2.523292 V 11.489212 H 6.577789 v 1.614168 h 2.5109552 v 7.187102 h 1.9989098 z"
     fill="#ffffff"
     fill-rule="evenodd"
     id="path2-4"
     style="stroke-width:0.0392914" /></svg>
