<?xml version="1.0" encoding="UTF-8" standalone="no"?>
<!-- Created with Inkscape (http://www.inkscape.org/) -->

<svg
   width="395.14941mm"
   height="399.71185mm"
   viewBox="0 0 395.14941 399.71185"
   version="1.1"
   id="svg1"
   xml:space="preserve"
   sodipodi:docname="QVC1.svg"
   inkscape:version="1.3 (0e150ed, 2023-07-21)"
   xmlns:inkscape="http://www.inkscape.org/namespaces/inkscape"
   xmlns:sodipodi="http://sodipodi.sourceforge.net/DTD/sodipodi-0.dtd"
   xmlns="http://www.w3.org/2000/svg"
   xmlns:svg="http://www.w3.org/2000/svg"><sodipodi:namedview
     id="namedview1"
     pagecolor="#000000"
     bordercolor="#000000"
     borderopacity="0.25"
     inkscape:showpageshadow="2"
     inkscape:pageopacity="0.0"
     inkscape:pagecheckerboard="0"
     inkscape:deskcolor="#d1d1d1"
     inkscape:document-units="mm"
     inkscape:lockguides="false"
     showgrid="true"
     showguides="true"
     inkscape:zoom="0.31634297"
     inkscape:cx="1759.1666"
     inkscape:cy="940.43499"
     inkscape:window-width="2560"
     inkscape:window-height="1361"
     inkscape:window-x="-9"
     inkscape:window-y="1341"
     inkscape:window-maximized="1"
     inkscape:current-layer="layer1"><sodipodi:guide
       position="-302.42529,550.14408"
       orientation="0,3779.5276"
       id="guide1"
       inkscape:locked="false" /><sodipodi:guide
       position="697.57471,550.14408"
       orientation="1889.7638,0"
       id="guide2"
       inkscape:locked="false" /><sodipodi:guide
       position="697.57471,50.144073"
       orientation="0,-3779.5276"
       id="guide3"
       inkscape:locked="false" /><sodipodi:guide
       position="-302.42529,50.144073"
       orientation="-1889.7638,0"
       id="guide4"
       inkscape:locked="false" /><inkscape:grid
       id="grid4"
       units="mm"
       originx="-1143.0247"
       originy="-189.52091"
       spacingx="9.9999999"
       spacingy="9.9999999"
       empcolor="#0099e5"
       empopacity="0.30196078"
       color="#0099e5"
       opacity="0.14901961"
       empspacing="10"
       dotted="false"
       gridanglex="30"
       gridanglez="30"
       visible="true" /></sodipodi:namedview><defs
     id="defs1" /><g
     inkscape:label="Layer 1"
     inkscape:groupmode="layer"
     id="layer1"
     transform="translate(-302.4253,-50.144074)"><path
       style="display:none;fill:#ffffff;fill-opacity:1;stroke-width:6.3538"
       d="m 626.73483,100 -50.88729,125.50015 -70.77897,172.62953 c 7.77715,15.46547 21.32682,25.46734 37.3629,25.48091 h 20.02042 l 297.15487,-0.94953 C 893.94377,423.16143 911.43322,406.36529 909.86149,370 l 1.36509,-245.45494 c 1.3651,-39.602603 -28.6349,-46.05977 -48.6349,-46.05977 L 404.92698,77.167987 C 400.0098,69.074973 387.82782,49.53325 370.63751,50 l 491.95417,-3e-6 c 50,0 74.78547,36.545467 74.91503,75.643923 L 937.49033,370 c -0.0593,52.31872 -24.89864,80 -78.59389,81.61524 l -294.10527,0.0139 H 547.1101 C 515.15274,451.64167 492.80431,430 480.76325,411.01304 l -3.02107,-5.61768 -2.93787,-6.6296 -34.85508,-87.39716 -65.54681,-163.06791 -6.21225,-15.13001 C 353.75799,100.28988 340,80.000001 299.2308,77.413596 L 120,77.130852 C 95.192304,74.109688 74.870454,100.28988 75.446586,124.00551 L 75.162465,380.24184 C 75.523982,410 90.369248,424.24856 120.34725,424.24856 h 181.59811 c 6.17796,9.12472 13.82173,19.48734 20.12965,27.39311 H 120 C 76.070802,450 45.100255,422.66106 45.85927,383.20412 L 45.767826,124.43248 C 45.075802,80.000001 80.000001,50 120,50.250976 l 183.15337,0.250976 C 350,50 370.04037,67.984971 387.13971,104.882 l 4.54037,9.797 29.13826,72.28788 29.13833,72.28783 19.90428,51.38685 19.90425,51.38683 0.67123,-1.08605 0.67129,-1.08611 8.2874,-21.72186 8.28739,-21.72184 16.4025,-40.90703 16.4025,-40.90713 37.31549,-91.90076 17.20717,-42.68834 z"
       id="path4"
       sodipodi:nodetypes="cccccccccccccccccccccccccccccccccccccccccccccccccc"
       inkscape:label="V" /><path
       style="fill:#ffffff;fill-opacity:1;stroke-width:5.02188"
       d="M 494.75681,50.144277 C 381.87385,50.273353 300.74483,150.44647 302.45173,249.20638 c 2.24921,130.13706 95.11255,200 196.94734,200.64478 133.40402,0.84466 198.16522,-110.64478 198.17564,-200.64478 0.0104,-90 -52.20217,-199.234316 -202.8179,-199.062103 z"
       id="path6-5"
       inkscape:label="O"
       sodipodi:nodetypes="ssszs" /></g></svg>
