<?xml version="1.0" encoding="UTF-8" standalone="no"?>
<!-- Created with Inkscape (http://www.inkscape.org/) -->

<svg
   width="687.22565mm"
   height="299.79626mm"
   viewBox="0 0 687.22565 299.79626"
   version="1.1"
   id="svg1"
   xml:space="preserve"
   sodipodi:docname="QVC1.svg"
   inkscape:version="1.3 (0e150ed, 2023-07-21)"
   inkscape:export-filename="QVC3.svg"
   inkscape:export-xdpi="96"
   inkscape:export-ydpi="96"
   xmlns:inkscape="http://www.inkscape.org/namespaces/inkscape"
   xmlns:sodipodi="http://sodipodi.sourceforge.net/DTD/sodipodi-0.dtd"
   xmlns="http://www.w3.org/2000/svg"
   xmlns:svg="http://www.w3.org/2000/svg"><sodipodi:namedview
     id="namedview1"
     pagecolor="#000000"
     bordercolor="#000000"
     borderopacity="0.25"
     inkscape:showpageshadow="2"
     inkscape:pageopacity="0.0"
     inkscape:pagecheckerboard="0"
     inkscape:deskcolor="#d1d1d1"
     inkscape:document-units="mm"
     inkscape:lockguides="false"
     showgrid="true"
     showguides="true"
     inkscape:zoom="0.31634297"
     inkscape:cx="1759.1666"
     inkscape:cy="940.43499"
     inkscape:window-width="2560"
     inkscape:window-height="1361"
     inkscape:window-x="-9"
     inkscape:window-y="1341"
     inkscape:window-maximized="1"
     inkscape:current-layer="layer1"><sodipodi:guide
       position="-144.96928,603.63381"
       orientation="0,3779.5276"
       id="guide1"
       inkscape:locked="false" /><sodipodi:guide
       position="855.03072,603.63381"
       orientation="1889.7638,0"
       id="guide2"
       inkscape:locked="false" /><sodipodi:guide
       position="855.03072,103.6338"
       orientation="0,-3779.5276"
       id="guide3"
       inkscape:locked="false" /><sodipodi:guide
       position="-144.96928,103.6338"
       orientation="-1889.7638,0"
       id="guide4"
       inkscape:locked="false" /><inkscape:grid
       id="grid4"
       units="mm"
       originx="-547.91541"
       originy="-391.68679"
       spacingx="9.9999999"
       spacingy="9.9999999"
       empcolor="#0099e5"
       empopacity="0.30196078"
       color="#0099e5"
       opacity="0.14901961"
       empspacing="10"
       dotted="false"
       gridanglex="30"
       gridanglez="30"
       visible="true" /></sodipodi:namedview><defs
     id="defs1" /><g
     inkscape:label="Layer 1"
     inkscape:groupmode="layer"
     id="layer1"
     transform="translate(-144.96929,-103.6338)"><path
       style="display:none;fill:#ffffff;fill-opacity:1;stroke-width:6.3538"
       d="m 626.73483,100 -50.88729,125.50015 -70.77897,172.62953 c 7.77715,15.46547 21.32682,25.46734 37.3629,25.48091 h 20.02042 l 297.15487,-0.94953 C 893.94377,423.16143 911.43322,406.36529 909.86149,370 l 1.36509,-245.45494 c 1.3651,-39.602603 -28.6349,-46.05977 -48.6349,-46.05977 L 404.92698,77.167987 C 400.0098,69.074973 387.82782,49.53325 370.63751,50 l 491.95417,-3e-6 c 50,0 74.78547,36.545467 74.91503,75.643923 L 937.49033,370 c -0.0593,52.31872 -24.89864,80 -78.59389,81.61524 l -294.10527,0.0139 H 547.1101 C 515.15274,451.64167 492.80431,430 480.76325,411.01304 l -3.02107,-5.61768 -2.93787,-6.6296 -34.85508,-87.39716 -65.54681,-163.06791 -6.21225,-15.13001 C 353.75799,100.28988 340,80.000001 299.2308,77.413596 L 120,77.130852 C 95.192304,74.109688 74.870454,100.28988 75.446586,124.00551 L 75.162465,380.24184 C 75.523982,410 90.369248,424.24856 120.34725,424.24856 h 181.59811 c 6.17796,9.12472 13.82173,19.48734 20.12965,27.39311 H 120 C 76.070802,450 45.100255,422.66106 45.85927,383.20412 L 45.767826,124.43248 C 45.075802,80.000001 80.000001,50 120,50.250976 l 183.15337,0.250976 C 350,50 370.04037,67.984971 387.13971,104.882 l 4.54037,9.797 29.13826,72.28788 29.13833,72.28783 19.90428,51.38685 19.90425,51.38683 0.67123,-1.08605 0.67129,-1.08611 8.2874,-21.72186 8.28739,-21.72184 16.4025,-40.90703 16.4025,-40.90713 37.31549,-91.90076 17.20717,-42.68834 z"
       id="path4"
       sodipodi:nodetypes="cccccccccccccccccccccccccccccccccccccccccccccccccc"
       inkscape:label="Base" /><path
       style="fill:#ffffff;fill-opacity:1;stroke-width:2.2581"
       d="m 758.66951,160 c -18.6695,0 -47.16503,16.14858 -58.6695,35.3227 -30,50 -64.7715,8.81842 -94.6322,-36.75631 C 580.06923,119.95456 542.26555,103.6338 493.5562,103.63394 405.05537,103.63419 364.99261,188.11519 364.99261,250 c 0,61.88481 33.85299,153.43005 132.04502,153.39183 C 533.5937,403.3776 574.74384,390 600,352.98949 c 29.22704,-42.82945 57.19328,-99.16711 110.00001,-39.49501 12.8168,14.4831 20,26.50552 50.33363,25.96538 44.76576,-0.79713 71.90034,-37.47649 71.86127,-89.44301 C 832.15582,198.05034 798.53685,160 758.66951,160 Z"
       id="path3"
       inkscape:label="C"
       sodipodi:nodetypes="sssszsssszs" /><path
       style="display:inline;opacity:0.381;fill:#ffffff;fill-opacity:1;stroke-width:3.76613"
       d="m 493.5562,103.63394 c -84.65593,0.0968 -129.8172,76.00703 -128.53711,150.07146 1.68678,97.59554 64.19521,148.20284 132.01854,149.68643 100.02366,2.18793 130.30448,-90.06339 131.68522,-149.45706 C 630.10359,194.5411 606.5096,103.50478 493.5562,103.63394 Z"
       id="path6-8"
       inkscape:label="V"
       sodipodi:nodetypes="ssszs" /><path
       style="display:inline;fill:#ffffff;fill-opacity:1;stroke-width:3.76613"
       d="m 223.21911,160 c -50.94174,0.0582 -79.00467,45.73727 -78.23438,90.30557 1.01502,58.72816 38.62653,90.81904 79.44221,90.07388 20.78403,-0.37945 42.11677,-11.20599 56.43848,-24.11134 73.54106,-66.26811 94.97042,4.46904 109.30207,28.1052 24.08692,39.72484 71.55828,59.05674 109.83251,59.05674 113.78681,0 129.24558,-120.97788 130,-153.43005 0.69449,-29.874 -9.96513,-146.3662 -130,-146.3662 -17.64419,0 -71.78491,0 -110,56.3662 -25.57126,37.71691 -44.66385,63.67908 -112.82467,18.26827 C 263.39748,169.08905 248.04401,159.97162 223.21911,160 Z"
       id="path6"
       inkscape:label="Q"
       sodipodi:nodetypes="sssssssssss" /></g></svg>
