<?xml version="1.0" encoding="UTF-8" standalone="no"?>
<!-- Created with Inkscape (http://www.inkscape.org/) -->

<svg
   width="687.22565mm"
   height="299.79626mm"
   viewBox="0 0 687.22565 299.79626"
   version="1.1"
   id="svg1"
   xml:space="preserve"
   xmlns="http://www.w3.org/2000/svg"
   xmlns:svg="http://www.w3.org/2000/svg"><defs
     id="defs1" /><g
     id="layer1"
     transform="translate(-144.96929,-103.6338)"><path
       style="display:inline;opacity:0.5;fill:#ffffff;fill-opacity:1;stroke-width:7.12246"
       d="m 796.23007,159.69177 -57.04338,140.68252 -79.34146,193.5134 c 8.718,17.3364 23.90683,28.54824 41.88288,28.56346 h 22.44239 l 333.1032,-1.0644 c 38.4909,0.56091 58.0962,-18.26716 56.3344,-59.03174 l 1.5302,-275.14885 c 1.5303,-44.39352 -32.0991,-51.63185 -54.5186,-51.63185 l -513.03069,-1.47666 c -5.51204,-9.07207 -19.16773,-30.97785 -38.43764,-30.45464 h 551.46833 c 56.0489,0 83.8326,40.96655 83.9779,84.79495 l -0.018,273.91705 c -0.066,58.64799 -27.9107,89.67801 -88.1018,91.48866 l -329.68469,0.0156 h -19.82003 c -35.8234,0.014 -60.87544,-24.24573 -74.37316,-45.52963 l -3.38655,-6.29728 -3.29327,-7.43161 -39.07168,-97.97004 -73.47633,-182.79505 -6.96378,-16.96036 C 490.2303,160.01671 474.80794,137.27226 429.10669,134.37298 l -200.9137,-0.31696 c -27.8088,-3.38664 -50.58909,25.96069 -49.94326,52.54532 l -0.3185,287.23452 c 0.40525,33.35816 17.04642,49.33044 50.65102,49.33044 h 203.56694 c 6.92534,10.22858 15.49381,21.84482 22.56484,30.70699 H 228.19299 c -49.24353,-1.84027 -83.96074,-32.48654 -83.10991,-76.71679 l -0.1025,-290.07654 c -0.77574,-49.8077 38.37342,-83.43695 83.21241,-83.1556 l 205.31035,0.28133 c 52.5139,-0.56268 74.97866,19.59802 94.14659,60.95868 l 5.08964,10.98219 32.66326,81.03291 32.66334,81.03285 22.31221,57.60337 22.31216,57.60335 0.75243,-1.21744 0.7525,-1.21749 9.28997,-24.34967 9.28996,-24.34964 18.38679,-45.85575 18.38679,-45.85588 41.82973,-103.01845 19.28881,-47.85256 z"
       id="path4" /><path
       style="display:none;fill:#ffffff;fill-opacity:1;stroke-width:2.53127"
       d="m 944.12554,226.95027 c -20.92803,0 -52.87082,18.10215 -65.76704,39.59586 -33.62924,56.04875 -72.60723,9.88522 -106.08032,-41.2029 -28.35908,-43.2829 -70.73607,-61.57807 -125.33803,-61.57791 -99.20721,2.8e-4 -144.11657,94.70137 -144.11657,164.0727 0,69.37132 37.94836,171.99125 148.01916,171.9484 40.97844,-0.0159 87.10673,-15.0119 115.41826,-56.49976 32.76277,-48.01075 64.11223,-111.16385 123.30725,-44.27292 14.36732,16.23519 22.4195,29.71203 56.42275,29.10655 50.18129,-0.89357 80.5985,-42.01022 80.5547,-100.26338 -0.044,-58.25317 -37.72986,-100.90664 -82.42016,-100.90664 z"
       id="path3" /><path
       style="display:inline;opacity:1;fill:#000000;fill-opacity:1;stroke-width:4.22174"
       d="M 625.9201,494.60075 C 572.59579,440.51396 573.65,345.79739 532.23188,279.43639 507.69324,240.12007 491.86262,188.20533 442.10127,173.56983 c -49.76135,-14.6355 -79.37615,-19.07167 -109.88926,-18.38414 -30.51311,0.68753 -51.47478,0.53549 -79.98347,18.22408 -28.50869,17.68859 -40.02744,27.88816 -52.05325,55.86772 -12.02581,27.97956 -22.05542,74.43465 -22.08481,100.94111 -0.0294,26.50646 -0.0742,66.87632 -0.09,81.20209 -0.0159,14.32578 -0.0453,40.87468 -14.25934,45.29041 -14.21401,4.41573 -18.69646,-88.34373 -18.70927,-124.59287 -0.0128,-36.24914 7.49677,-119.23758 13.60072,-155.12886 6.10396,-35.89127 31.52081,-44.70604 57.73647,-55.60578 26.21567,-10.89973 143.67439,-17.27856 191.14579,-17.74979 47.4714,-0.47123 70.03681,6.33757 94.85889,23.01785 24.82208,16.68029 63.16753,55.92024 76.19991,86.60724 13.03238,30.687 6.69745,88.974 65.06631,87.34569 58.36886,-1.62831 93.10546,-81.55529 97.73879,-93.04986 4.63333,-11.49457 52.31635,-25.2898 44.25047,20.96772 -8.06589,46.25753 -35.82799,133.44813 -32.99133,174.90762 2.83666,41.45949 -2.96246,51.72629 25.09444,66.18706 28.0569,14.46078 44.22801,22.4257 83.91164,25.62515 39.6836,3.19945 141.70823,-16.57078 150.64723,-25.50131 8.939,-8.93053 39.3703,-55.07568 43.6184,-85.73205 4.248,-30.65636 14.4465,-124.62226 11.7733,-158.59045 -2.6732,-33.96819 -3.0449,-72.66479 29.268,-80.61504 32.3129,-7.95025 46.2039,26.866 47.6467,43.63454 1.6155,18.77567 -0.01,111.18245 -0.01,111.18245 0,54.21528 -8.821,121.35053 -30.9822,162.7346 l -29.6093,55.2929 c -22.1612,41.38407 -145.41911,36.20134 -192.3633,36.20356 l -112.66807,0.005 c -35,0.002 -99.72298,-5.16926 -153.04729,-59.25605 z"
       id="path6-8" /><path
       style="display:none;fill:#ffffff;fill-opacity:1;stroke-width:4.22174"
       d="m 343.89903,226.95027 c -57.10442,0.0653 -88.56226,51.27033 -87.69879,101.23029 1.13782,65.83279 43.29938,101.80587 89.05274,100.97056 23.29838,-0.42535 47.21185,-12.56164 63.26613,-27.02821 82.43769,-74.28489 106.45946,5.00969 122.52489,31.50523 27.00082,44.53055 80.21504,66.20113 123.11949,66.20113 127.55217,0 144.88107,-135.61318 145.72675,-171.99125 0.7785,-33.48802 -11.17066,-164.07286 -145.72675,-164.07286 -19.77869,0 -80.46909,0 -123.30725,63.18511 -28.66474,42.2797 -50.06706,71.38265 -126.47363,20.47827 -15.44463,-10.28968 -32.65549,-20.51009 -60.48358,-20.47827 z"
       id="path6" /></g></svg>
