<?xml version="1.0" encoding="UTF-8" standalone="no"?>
<!-- Created with Inkscape (http://www.inkscape.org/) -->

<svg
   width="1000mm"
   height="450.40689mm"
   viewBox="0 0 1000 450.40689"
   version="1.1"
   id="svg1"
   xml:space="preserve"
   sodipodi:docname="QVC.svg"
   inkscape:version="1.3 (0e150ed, 2023-07-21)"
   inkscape:export-filename="QVCPlain.svg"
   inkscape:export-xdpi="96"
   inkscape:export-ydpi="96"
   xmlns:inkscape="http://www.inkscape.org/namespaces/inkscape"
   xmlns:sodipodi="http://sodipodi.sourceforge.net/DTD/sodipodi-0.dtd"
   xmlns="http://www.w3.org/2000/svg"
   xmlns:svg="http://www.w3.org/2000/svg"><sodipodi:namedview
     id="namedview1"
     pagecolor="#000000"
     bordercolor="#000000"
     borderopacity="0.25"
     inkscape:showpageshadow="2"
     inkscape:pageopacity="0.0"
     inkscape:pagecheckerboard="0"
     inkscape:deskcolor="#d1d1d1"
     inkscape:document-units="mm"
     inkscape:lockguides="false"
     showgrid="true"
     showguides="true"
     inkscape:zoom="0.11184413"
     inkscape:cx="1765.8504"
     inkscape:cy="1528.9135"
     inkscape:window-width="1440"
     inkscape:window-height="855"
     inkscape:window-x="0"
     inkscape:window-y="23"
     inkscape:window-maximized="0"
     inkscape:current-layer="layer1"><sodipodi:guide
       position="1.7302951e-10,500"
       orientation="0,3779.5276"
       id="guide1"
       inkscape:locked="false" /><sodipodi:guide
       position="1000,500"
       orientation="1889.7638,0"
       id="guide2"
       inkscape:locked="false" /><sodipodi:guide
       position="1000,-1.3808534e-05"
       orientation="0,-3779.5276"
       id="guide3"
       inkscape:locked="false" /><sodipodi:guide
       position="1.7302951e-10,-1.3808534e-05"
       orientation="-1889.7638,0"
       id="guide4"
       inkscape:locked="false" /><inkscape:grid
       id="grid4"
       units="mm"
       originx="6.539698e-10"
       originy="5.2189736e-05"
       spacingx="9.9999999"
       spacingy="9.9999999"
       empcolor="#0099e5"
       empopacity="0.30196078"
       color="#0099e5"
       opacity="0.14901961"
       empspacing="10"
       dotted="false"
       gridanglex="30"
       gridanglez="30"
       visible="true" /></sodipodi:namedview><defs
     id="defs1" /><g
     inkscape:label="Layer 1"
     inkscape:groupmode="layer"
     id="layer1"
     transform="translate(0,1.3808534e-5)"><path
       style="fill:#ffffff;fill-opacity:1;stroke-width:4.2233"
       d="m 800.1818,56.845577 c -79.92057,1.314304 -145.12161,54.974133 -145.98735,168.123733 -0.86805,113.45194 71.50351,166.69026 149.09976,167.51873 99.25941,1.05975 131.83919,-66.79205 135.44774,-109.91067 l -30.62916,-0.24677 c -4.93771,47.4114 -38.90375,78.88789 -104.50097,78.13045 -71.01752,-0.82003 -115.63469,-48.05829 -117.70319,-135.383 -1.7912,-75.61775 43.30675,-138.230971 113.73598,-136.64076 56.07957,1.266206 95.57281,18.48645 108.36155,79.17178 h 30.73527 v -0.29032 C 923.84479,88.839405 869.38597,55.707504 800.1818,56.845577 Z"
       id="path3"
       inkscape:label="C"
       sodipodi:nodetypes="sssccssscccs" /><path
       style="fill:#ffffff;fill-opacity:1;stroke-width:7.12509"
       d="M 651.50297,56.078791 594.43838,196.81362 515.06742,390.39896 c 8.72123,17.34284 23.91572,28.55886 41.89845,28.57408 h 22.45073 l 333.22703,-1.0648 c 38.50524,0.56111 58.11777,-18.27395 56.35525,-59.05368 l 1.5308,-275.251143 C 972.06048,39.193386 938.41874,31.952372 915.9909,31.952372 L 402.76947,30.47516 C 397.25538,21.39972 383.59461,-0.51420966 364.31754,0.00920039 l 551.67336,-3.2e-6 c 56.06958,0 83.86381,40.98178781 84.0091,84.82647381 l -0.0184,274.018889 c -0.0664,58.66978 -27.92112,89.71134 -88.13454,91.52266 l -329.80723,0.0156 h -19.82741 c -35.83672,0.0141 -60.89807,-24.25474 -74.40081,-45.54656 l -3.38781,-6.29963 -3.2945,-7.43438 L 442.0431,293.1058 368.5395,110.24276 361.57313,93.276102 C 345.38898,56.40386 329.96088,33.650956 284.24264,30.750583 L 83.254691,30.433517 C 55.435544,27.045608 32.646788,56.40386 33.292858,82.998372 l -0.31861,287.341308 c 0.405401,33.37055 17.052761,49.34877 50.669847,49.34877 H 287.28672 c 6.92791,10.23239 15.49957,21.85294 22.57322,30.71841 H 83.254691 C 33.992849,448.5659 -0.73726835,417.90824 0.11388487,373.66155 L 0.01134031,83.477168 C -0.76468971,33.650956 38.399021,0.00920039 83.254691,0.29064265 L 288.64137,0.57208491 C 341.1748,0.00920039 363.64791,20.177401 382.82297,61.553426 l 5.09153,10.986275 32.67541,81.063029 32.67548,81.06297 22.32049,57.6248 22.32046,57.62477 0.75271,-1.21789 0.75279,-1.21796 9.29342,-24.35872 9.29342,-24.35868 18.39362,-45.87282 18.39363,-45.87291 41.84529,-103.05675 19.29597,-47.870354 z"
       id="path4"
       sodipodi:nodetypes="cccccccccccccccccccccccccccccccccccccccccccccccccc"
       inkscape:label="V" /><path
       style="fill:#ffffff;fill-opacity:1;stroke-width:4.2233"
       d="M 205.34671,56.421377 C 110.41425,56.529927 59.770779,141.65502 61.206256,224.71027 63.097797,334.15311 133.19423,390.90371 209.25076,392.5674 c 13.0425,0.28529 32.83786,-0.0687 46.19504,-5.90683 17.00084,22.50452 30.13956,41.08077 46.92463,63.74621 h 196.1151 c -22.22703,0 -37.78018,-31.07138 -37.78018,-31.07138 0,0 -129.05636,-0.44428 -139.5077,-0.53198 C 307.34698,401.50673 300.06286,387.2836 286.78025,369.55154 340.83027,338.4485 356.57919,256.4569 356.92148,224.96748 357.62925,159.85583 332.01173,56.276548 205.34671,56.421377 Z M 324.73316,224.94147 c -2.92238,76.53697 -48.14488,111.73743 -53.1316,119.91265 l -50.54878,-66.66051 -36.45896,-0.59789 57.29066,80.61069 c -10.60552,3.6599 -23.5365,3.90061 -34.69091,3.57494 C 191.88959,361.33452 91.702034,344.17537 89.936067,224.96895 88.776233,146.67784 147.45764,84.954666 205.13671,85.489633 269.51459,86.086731 328.41137,128.6099 324.73316,224.94147 Z"
       id="path6"
       inkscape:label="Q"
       sodipodi:nodetypes="sssccccccsssccccssss" /></g></svg>
