<?xml version="1.0" encoding="UTF-8" standalone="no"?>
<!-- Created with Inkscape (http://www.inkscape.org/) -->

<svg
   width="1000mm"
   height="450mm"
   viewBox="0 0 1000 450"
   version="1.1"
   id="svg1"
   xml:space="preserve"
   sodipodi:docname="QVCTimeline.svg"
   inkscape:version="1.3 (0e150ed6c4, 2023-07-21)"
   inkscape:export-filename="QVCTimeline.svg"
   inkscape:export-xdpi="96"
   inkscape:export-ydpi="96"
   xmlns:inkscape="http://www.inkscape.org/namespaces/inkscape"
   xmlns:sodipodi="http://sodipodi.sourceforge.net/DTD/sodipodi-0.dtd"
   xmlns="http://www.w3.org/2000/svg"
   xmlns:svg="http://www.w3.org/2000/svg"><sodipodi:namedview
     id="namedview1"
     pagecolor="#000000"
     bordercolor="#000000"
     borderopacity="0.25"
     inkscape:showpageshadow="2"
     inkscape:pageopacity="0.0"
     inkscape:pagecheckerboard="0"
     inkscape:deskcolor="#d1d1d1"
     inkscape:document-units="mm"
     inkscape:lockguides="false"
     showgrid="true"
     showguides="true"
     inkscape:zoom="0.63268594"
     inkscape:cx="2842.6426"
     inkscape:cy="816.3608"
     inkscape:window-width="2560"
     inkscape:window-height="1361"
     inkscape:window-x="-9"
     inkscape:window-y="1341"
     inkscape:window-maximized="1"
     inkscape:current-layer="g9"><sodipodi:guide
       position="0,500.00001"
       orientation="0,3779.5276"
       id="guide1"
       inkscape:locked="false" /><sodipodi:guide
       position="1000,500.00001"
       orientation="1889.7638,0"
       id="guide2"
       inkscape:locked="false" /><sodipodi:guide
       position="1000,0"
       orientation="0,-3779.5276"
       id="guide3"
       inkscape:locked="false" /><sodipodi:guide
       position="0,0"
       orientation="-1889.7638,0"
       id="guide4"
       inkscape:locked="false" /><inkscape:grid
       id="grid4"
       units="mm"
       originx="0"
       originy="0"
       spacingx="9.9999999"
       spacingy="9.9999999"
       empcolor="#0099e5"
       empopacity="0.30196078"
       color="#0099e5"
       opacity="0.14901961"
       empspacing="10"
       dotted="false"
       gridanglex="30"
       gridanglez="30"
       visible="true" /></sodipodi:namedview><defs
     id="defs1"><inkscape:perspective
       sodipodi:type="inkscape:persp3d"
       inkscape:vp_x="0 : -20 : 1"
       inkscape:vp_y="0 : 1000 : 0"
       inkscape:vp_z="19.999999 : -20 : 1"
       inkscape:persp3d-origin="9.9999996 : -30.000001 : 1"
       id="perspective2626" /></defs><g
     inkscape:label="Start"
     inkscape:groupmode="layer"
     id="g5"
     style="display:none"
     sodipodi:insensitive="true"><path
       style="display:none;fill:#ffffff;fill-opacity:1;stroke-width:0.418459"
       d="m 499.99944,199.99999 a 25.000006,25.000006 0 1 0 1.2e-4,0 z"
       id="path1"
       inkscape:label="C"
       sodipodi:nodetypes="sssccssscccs" /><path
       style="display:none;fill:#ffffff;fill-opacity:1;stroke-width:6.3538"
       d="M 499.999,0 A 225,225 0 1 0 500,0 Z"
       id="path2"
       sodipodi:nodetypes="cccccccccccccccccccccccccccccccccccccccccccccccccc"
       inkscape:label="V" /><path
       style="display:inline;opacity:0.5;fill:#ffffff;fill-opacity:1;stroke-width:0.418459"
       d="m 499.99944,199.99999 a 25.000006,25.000006 0 1 0 1.2e-4,0 z"
       id="path14"
       inkscape:label="Q"
       sodipodi:nodetypes="sssccccccsssccccssss" /></g><g
     inkscape:label="PathToMid"
     inkscape:groupmode="layer"
     id="g14"
     style="display:none;opacity:1"
     sodipodi:insensitive="true"><g
       inkscape:groupmode="layer"
       id="g18"
       inkscape:label="CPath"
       style="display:inline"><path
         style="display:inline;opacity:0.5;fill:#ffffff;fill-opacity:1;stroke-width:0.418459"
         d="m 940.00001,226.09384 c -0.59496,77.33056 -45.34219,97.15495 -99.06064,97.15495 -40.93936,0 -80.93936,-13.2488 -111.98725,-33.2488 -20.11136,-12.95506 -28.95211,-40.01208 -28.95211,-65.00604 0,-24.99396 9.68047,-45.34015 28.95211,-62.80628 35.51498,-32.18767 49.95295,-40.2289 114.58026,-40.94271 53.98762,-0.59627 97.07927,25.35022 96.46763,104.84888 z"
         id="path17"
         inkscape:label="C2"
         sodipodi:nodetypes="ssszsss" /><path
         style="display:inline;opacity:0.5;fill:#ffffff;fill-opacity:1;stroke-width:0.418459"
         d="m 750.00001,225.02857 c 0.0227,17.83744 -7.59757,24.29055 -17.04879,26.1852 -10.19045,2.04283 -22.69432,0.40293 -29.67174,-1.21378 -215.79109,-50 -230.53631,66.02151 -229.40815,-24.97747 1.12816,-90.99898 16.12867,24.97747 229.40815,-24.98789 7.29907,-1.70997 20.61199,-3.51401 31.04209,-0.81761 8.77982,2.26977 15.65696,8.94017 15.67844,25.81155 z"
         id="path18"
         inkscape:label="C1"
         sodipodi:nodetypes="ssszsss" /></g><g
       inkscape:groupmode="layer"
       id="g15"
       inkscape:label="VPath"
       style="opacity:0.5"
       sodipodi:insensitive="true"><path
         style="display:inline;opacity:1;fill:#ffffff;fill-opacity:1;stroke-width:0.418459"
         d="m 499.99944,199.99999 a 25.000006,25.000006 0 1 0 1.2e-4,0 z"
         id="path15"
         inkscape:label="V1"
         sodipodi:nodetypes="sssccccccsssccccssss" /></g><g
       inkscape:groupmode="layer"
       id="layer2"
       inkscape:label="QPath"
       style="display:inline"
       sodipodi:insensitive="true"><path
         style="display:inline;opacity:0.5;fill:#ffffff;fill-opacity:1;stroke-width:0.418459"
         d="m 68.961329,226.07664 c 0.566646,73.64922 41.217341,96.94857 91.460971,97.27091 19.5777,0.1256 90.3223,-4.09216 109.5777,-23.34756 20,-20 30.41819,-39.55978 30,-75.00604 C 299.58181,189.54769 295.40931,170 280,150 247.87286,108.30166 174.03969,121.23198 165.39242,121.23198 c -53.97332,0 -97.042593,25.36532 -96.431091,104.84466 z"
         id="path5"
         inkscape:label="Q2"
         sodipodi:nodetypes="ssszsss"
         sodipodi:insensitive="true" /><path
         style="display:inline;opacity:0.5;fill:#ffffff;fill-opacity:1;stroke-width:0.418459"
         d="m 250,225 c -0.0179,14.08707 4.73107,21.07373 11.38419,24.32216 10.85453,5.29979 27.07643,2.89183 35.33634,0.64926 228.27898,-61.97777 228.27744,69.54175 228.27821,-24.97747 7.7e-4,-94.51922 7.7e-4,37.05302 -228.27821,-24.98789 -7.93935,-2.15773 -23.2218,-4.23234 -34.00746,0.15675 C 255.39806,203.13956 250.019,210.08198 250,225 Z"
         id="path16"
         inkscape:label="Q1"
         sodipodi:nodetypes="ssszsss"
         sodipodi:insensitive="true" /></g></g><g
     inkscape:label="Mid"
     inkscape:groupmode="layer"
     id="g9"
     style="display:inline;opacity:1"><path
       style="display:inline;opacity:1;fill:#ffffff;fill-opacity:1;stroke-width:3.76613"
       d="m 805.43648,56.984692 c -67.57345,-0.0056 -126.99082,38.189933 -145.501,116.310848 -3.70281,15.62744 -5.76864,32.85255 -5.93534,51.68915 -0.17336,19.58947 1.8395,37.40756 5.70619,53.47942 18.43792,76.63715 79.02757,113.5689 145.73015,113.52058 46.76509,-0.0339 82.62316,-14.15405 106.23322,-43.95206 4.7049,-5.93801 8.92343,-12.49859 12.64496,-19.69435 4.18286,-8.08775 7.73788,-16.9779 10.65,-26.68834 2.24813,-7.49641 4.11311,-15.48169 5.588,-23.96407 1.57215,-9.04174 2.70107,-18.6483 3.37835,-28.82965 0.50775,-7.63274 0.76167,-15.58851 0.75823,-23.87153 -0.002,-5.85691 -0.1653,-11.57919 -0.48545,-17.16387 -0.30492,-5.3192 -0.75252,-10.51356 -1.34007,-15.5805 -0.93029,-8.02268 -2.21141,-15.72592 -3.83253,-23.09948 -1.84851,-8.40784 -4.13908,-16.38702 -6.85564,-23.92234 -2.45608,-6.8128 -5.26037,-13.26278 -8.40098,-19.33871 C 900.78985,81.412875 859.79115,56.980473 805.43648,56.984692 Z"
       id="path7"
       inkscape:label="C"
       sodipodi:nodetypes="csssssssssssssssc" /><path
       style="display:inline;opacity:0.5;fill:#ffffff;fill-opacity:1;stroke-width:3.76613"
       d="m 509.08427,57.499974 c -81.09095,-0.0067 -150.43635,55.000006 -151.43635,168.000006 -1,113 70.74532,167.05845 151.43635,167 89.72581,-0.065 139.30053,-51.98469 139.25276,-167 C 648.29297,119.41283 595.6117,57.493258 509.08427,57.499974 Z"
       id="path9"
       inkscape:label="V"
       sodipodi:nodetypes="csssc" /><path
       id="path8"
       style="display:inline;opacity:1;fill:#ffffff;fill-opacity:1;stroke-width:3.76613"
       inkscape:label="Q"
       d="M 212.73223,57.499849 C 131.64137,57.493149 62.295482,112.50004 61.295483,225.49993 60.295484,338.49982 132.04129,392.55852 212.73223,392.50007 c 67.31183,-0.0488 112.0271,-29.28132 130.14658,-92.44293 6.03354,-21.03193 9.11784,-45.82589 9.10591,-74.55721 -0.009,-22.75689 -2.44094,-43.48144 -7.10913,-61.99828 C 327.78184,95.697506 280.69847,57.494574 212.73223,57.499849 Z m -0.88139,148.997361 c 3.35404,-0.38096 8.13682,2.63635 8.14916,6.01193 0.0152,4.16481 -5.95501,8.48281 -10,7.49085 -2.61298,-0.64078 -3.83978,-4.61116 -3.48823,-7.2785 0.35717,-2.71005 2.62305,-5.91579 5.33907,-6.22428 z"
       sodipodi:nodetypes="cssscscaaaaa" /></g><g
     inkscape:label="PathToFinal"
     inkscape:groupmode="layer"
     id="g12"
     style="display:inline;opacity:1"><g
       inkscape:groupmode="layer"
       id="g20"
       inkscape:label="CPath"
       style="display:inline;opacity:0.5"
       sodipodi:insensitive="true"><path
         style="display:inline;opacity:1;fill:#ffffff;fill-opacity:1;stroke-width:3.76613"
         d="m 800,57 c -80,1 -145,55 -146,168 -1,113 72,167 149,167 100,2 132,-66 136,-109 5.68924,-58.01531 -38.99999,-63.00001 -46.3133,-30.85294 -2.42647,23.29411 -18.92646,38.33823 -50.47058,37.85293 -34.45588,0 -56.29411,-23.29411 -57.2647,-65.5147 -0.97059,-36.88234 20.86765,-66.97058 55.32353,-66.48528 27.17646,0.97059 46.10293,9.22059 52.41175,38.82352 C 899.71498,224.48471 950.00001,219.99999 939,168 v -1 C 924,89 869,56 800,57 Z"
         id="path24"
         inkscape:label="C1"
         sodipodi:nodetypes="sssccssscccs" /></g><g
       inkscape:groupmode="layer"
       id="g19"
       inkscape:label="VPath"
       style="display:inline;opacity:1"><path
         style="display:inline;opacity:0.5;fill:#ffffff;fill-opacity:1;stroke-width:6.3538"
         d="M 480,390 360,90 C 345,55 330,30 285,30 H 85 C 54.624339,30 30,54.624339 30,85 v 280 c 0,15.23468 6.194126,29.02265 16.201351,38.98288 6.187884,4.13943 8.489571,10.77835 7.654341,16.52848 -0.861035,5.92778 -5.055823,10.91099 -11.763463,11.23746 C 36.825016,432.00517 30.008312,429.39006 22.039605,422.106 8.3448649,407.01637 0,386.98271 0,365 V 85 C 0,61.527898 9.513949,40.277898 24.895924,24.895923 40.277898,9.513949 61.527898,0 85,0 h 200 c 55,0 80,20 100,65 0,0 85,244.99999 115,244.99999 30,0 105,-229.999992 105,-229.999992 14.60626,-30.402776 41.02323,-15.13171 35,0 0,0 -84.35313,215.028332 -41.36187,310.000002 7.43446,16.42342 25,30 45,30 H 915 c 30.37566,0 55,-24.62434 55,-55 V 85 c 0,-13.857613 -5.12495,-26.518228 -13.5829,-36.189883 -5.41145,-5.064518 -9.32063,-9.701669 -11.9681,-13.835122 -9.34357,-14.587953 -2.97181,-22.902089 8.54106,-21.587084 7.178,0.819875 16.35447,5.38282 24.96665,14.502029 C 991.65364,42.980032 1000,63.015317 1000,85 v 280 c 0,46.9442 -38.0558,85 -85,85 H 560 c -35,0 -60,-25 -80,-60 z"
         id="path25"
         sodipodi:nodetypes="cccccccsscccscccsccacccccsscccccc"
         inkscape:label="V3"
         sodipodi:insensitive="true" /><path
         style="display:inline;opacity:0.5;fill:#ffffff;fill-opacity:1;stroke-width:6.3538"
         d="M 480,390 C 436.87929,333.21528 387.95172,356.84356 360,90 345,55 330,30 285,30 H 85 C 77.430092,30 70.243753,31.558685 63.690967,34.337046 57.931113,36.779205 52.660761,40.16372 48.049682,44.260358 40.823409,50.680422 34.940023,54.09249 30.311159,55.348356 21.401034,57.765778 17.139236,52.19391 16.895511,44.707973 16.684408,38.22403 19.487725,30.304122 24.895924,24.895923 32.022047,17.7698 40.407601,11.903108 49.690067,7.6583671 60.444114,2.7406929 72.401995,0 85,0 h 200 c 28.93867,0 49.57208,5.5368373 65.5418,17.338824 C 364.92367,27.967352 375.52315,43.677094 385,65 c 0,0 85,129.16118 115,129.16118 30,0 96.12884,-94.161183 96.12884,-94.161183 C 610.7351,69.597221 628.94874,70.000005 634.47437,130 640,189.99999 562.73228,310.22172 598.63813,390 c 7.39892,16.43947 25,30 45,30 H 915 c 7.88687,0 15.54575,-1.50469 22.39246,-4.4306 6.07995,-2.59822 11.51945,-6.31715 15.90948,-11.09833 5.03713,-5.48594 10.40697,-9.37988 15.44238,-11.77621 13.99266,-6.65905 25.40287,-1.75362 19.91513,12.69042 -2.11708,5.5723 -6.74909,12.56422 -14.71797,20.85946 -6.4344,6.69792 -14.14687,12.08483 -22.70588,16.02463 C 940.24786,447.32714 927.86499,450 915,450 H 560 c -35,0 -60,-25 -80,-60 z"
         id="path26"
         sodipodi:nodetypes="ccccssssssccscsczaccssssssccc"
         inkscape:label="V2"
         sodipodi:insensitive="true" /><path
         style="display:inline;opacity:0.5;fill:#ffffff;fill-opacity:1;stroke-width:6.3538"
         d="m 430,359.99999 c -70,-70 -70,-110 -70,-269.99999 -1.22833,-2.866109 -2.48412,-5.634525 -3.77162,-8.310632 -1.24391,-2.585506 -2.51744,-5.084848 -3.82442,-7.502883 -3.66285,-6.776634 -7.58849,-12.914664 -11.8616,-18.520997 -3.27159,-4.29233 -6.74686,-8.272992 -10.46383,-11.989963 -3.7439,-3.7439 -6.94274,-9.166075 -8.78251,-14.586747 -3.96451,-11.680953 -1.6181,-23.3549269 15.18446,-18.213492 3.88199,1.187854 8.53562,3.273273 14.06132,6.463538 6.23838,3.601731 12.39915,9.953288 18.77194,17.093542 4.61457,5.170283 9.3403,10.754099 14.28718,16.006875 2.79848,2.971517 5.66772,5.837095 8.62764,8.461936 2.52062,2.23527 5.107,4.295959 7.77144,6.098823 30.27374,20.484425 70,45 100,45 30,0 41.02634,-3.67545 60,-10.000003 30,-10 68.94874,-29.999992 74.47437,30.000003 C 640,189.99999 650,279.99999 620,349.99999 c -3.71397,8.66592 -4.05111,20.95577 -1.93047,32.82481 1.32235,7.40107 3.60035,14.63851 6.61117,20.73165 2.04056,4.12955 4.41772,7.73348 7.06211,10.5065 3.54137,3.71362 7.56201,5.93705 11.89532,5.93705 3.22853,0 5.9339,0.2365 8.12056,0.66751 8.80999,1.73653 9.19999,6.63039 1.46125,11.93491 -3.79571,2.60176 -9.54695,5.30232 -17.21938,7.77757 -3.08011,0.99369 -6.46984,1.95107 -10.16697,2.85118 -6.61263,1.60991 -14.20865,3.03658 -22.77533,4.16003 C 590.70967,449.01062 576.34422,450 560,450 525,450 467.2678,397.26779 430,359.99999 Z"
         id="path27"
         sodipodi:nodetypes="scssssssssssssszsssscssssscs"
         inkscape:label="V1" /></g><g
       inkscape:groupmode="layer"
       id="g21"
       inkscape:label="QPath"
       style="display:none;opacity:0.5"
       sodipodi:insensitive="true"><path
         style="display:inline;opacity:1;fill:#ffffff;fill-opacity:1;stroke-width:3.76613"
         d="m 205,56 c -95,1 -145,86 -144,169 2,109 72,166 148,168 13,0 33,0 46,-6 4.87247,5.50003 7.77106,10.11954 12.71593,16.62594 18.87418,25.29933 47.59635,10.38381 39.58874,-3.44179 C 303.37551,394.11041 292.89076,379.99999 287,370 341,338 357,256 357,225 358,160 332,56 205,56 Z m 48,152 c 0.1993,22.30546 -24.06109,48.59158 -46.36489,48.25409 C 184.95176,255.92598 162.80686,229.68498 163,208 163.18944,186.7306 185.36731,161.76292 206.63511,161.4405 228.53513,161.1085 252.80431,186.09834 253,208 Z"
         id="path23"
         inkscape:label="Q1"
         sodipodi:nodetypes="sssccccssaaaaa" /></g></g><g
     inkscape:label="Final"
     inkscape:groupmode="layer"
     id="layer1"
     sodipodi:insensitive="true"
     style="display:inline;opacity:1"><path
       style="display:none;fill:#ffffff;fill-opacity:1;stroke-width:3.76613"
       d="m 800,57 c -80,1 -145,55 -146,168 -1,113 72,167 149,167 100,2 132,-66 136,-109 l -31,-1 c -5,48 -39,79 -104,78 -71,0 -116,-48 -118,-135 -2,-76 43,-138 114,-137 56,2 95,19 108,80 h 31 v -1 C 924,89 869,56 800,57 Z"
       id="path3"
       inkscape:label="C"
       sodipodi:nodetypes="sssccssscccs" /><path
       style="fill:#ffffff;fill-opacity:1;stroke-width:6.3538;opacity:0.5"
       d="M 480,390 360,90 C 345,55 330,30 285,30 H 85 A 55,55 0 0 0 30,85 v 280 a 55,55 0 0 0 55,55 h 375 c 0,0 15,30 40,30 H 85 A 85,85 0 0 1 0,365 V 85 A 85,85 0 0 1 85,0 h 200 c 55,0 80,20 100,65 L 500,350 615,55 h 35 L 515,390 c 10,20 25,30 45,30 h 355 a 55,55 0 0 0 55,-55 V 85 A 55,55 0 0 0 915,30 H 400 C 395,20 385,0 365,0 h 550 a 85,85 0 0 1 85,85 v 280 a 85,85 0 0 1 -85,85 H 560 c -35,0 -60,-25 -80,-60 z"
       id="path4"
       sodipodi:nodetypes="cccccccccccccccccccccccccccccccccccccccccccccccccc"
       inkscape:label="V" /><path
       style="display:none;fill:#ffffff;fill-opacity:1;stroke-width:3.76613"
       d="m 205,56 c -95,1 -145,86 -144,169 2,109 72,166 148,168 13,0 33,0 46,-6 17,22 31,41 47,63 h 196 c -22,0 -37,-31 -37,-31 0,0 -129,0 -140,0 -14,-17 -21,-32 -34,-49 54,-32 70,-114 70,-145 C 358,160 332,56 205,56 Z m 120,169 c -3,76 -48,112 -53,120 l -51,-67 h -36 l 57,80 c -11,4 -24,4 -35,4 C 192,361 92,344 90,225 89,147 147,85 205,85 c 65,1 123,44 120,140 z"
       id="path6"
       inkscape:label="Q"
       sodipodi:nodetypes="sssccccccsssccccssss" /></g></svg>
