<?xml version="1.0" encoding="UTF-8" standalone="no"?>
<!-- Created with Inkscape (http://www.inkscape.org/) -->

<svg
   width="1000mm"
   height="500mm"
   viewBox="0 0 1000 500"
   version="1.1"
   id="svg1"
   xml:space="preserve"
   sodipodi:docname="QVC3BLACKCLOSED.svg"
   inkscape:version="1.3 (0e150ed, 2023-07-21)"
   xmlns:inkscape="http://www.inkscape.org/namespaces/inkscape"
   xmlns:sodipodi="http://sodipodi.sourceforge.net/DTD/sodipodi-0.dtd"
   xmlns="http://www.w3.org/2000/svg"
   xmlns:svg="http://www.w3.org/2000/svg"><sodipodi:namedview
     id="namedview1"
     pagecolor="#ffffff"
     bordercolor="#000000"
     borderopacity="0.25"
     inkscape:showpageshadow="2"
     inkscape:pageopacity="0.0"
     inkscape:pagecheckerboard="0"
     inkscape:deskcolor="#d1d1d1"
     inkscape:document-units="mm"
     inkscape:lockguides="false"
     showgrid="true"
     showguides="true"
     inkscape:zoom="0.11184413"
     inkscape:cx="1765.8505"
     inkscape:cy="1528.9136"
     inkscape:window-width="1440"
     inkscape:window-height="855"
     inkscape:window-x="0"
     inkscape:window-y="23"
     inkscape:window-maximized="0"
     inkscape:current-layer="layer1"><sodipodi:guide
       position="0,500.00001"
       orientation="0,3779.5276"
       id="guide1"
       inkscape:locked="false" /><sodipodi:guide
       position="1000,500.00001"
       orientation="1889.7638,0"
       id="guide2"
       inkscape:locked="false" /><sodipodi:guide
       position="1000,0"
       orientation="0,-3779.5276"
       id="guide3"
       inkscape:locked="false" /><sodipodi:guide
       position="0,0"
       orientation="-1889.7638,0"
       id="guide4"
       inkscape:locked="false" /><inkscape:grid
       id="grid4"
       units="mm"
       originx="0"
       originy="0"
       spacingx="9.9999999"
       spacingy="9.9999999"
       empcolor="#0099e5"
       empopacity="0.30196078"
       color="#0099e5"
       opacity="0.14901961"
       empspacing="10"
       dotted="false"
       gridanglex="30"
       gridanglez="30"
       visible="true" /></sodipodi:namedview><defs
     id="defs1"><inkscape:perspective
       sodipodi:type="inkscape:persp3d"
       inkscape:vp_x="0 : 30 : 1"
       inkscape:vp_y="0 : 1000 : 0"
       inkscape:vp_z="19.999999 : 30 : 1"
       inkscape:persp3d-origin="9.9999996 : 20 : 1"
       id="perspective2626" /></defs><g
     inkscape:label="Layer 1"
     inkscape:groupmode="layer"
     id="layer1"><path
       style="fill:#000000;fill-opacity:1;stroke-width:3.76613"
       d="m 759.31903,100.68378 c -71.26909,1.17203 -129.41205,49.02313 -130.18407,149.92418 -0.77408,101.17066 63.76318,148.64588 132.95956,149.38466 88.51448,0.94504 117.56747,-59.56174 120.78539,-98.01273 l -27.31352,-0.22006 c -4.4032,42.27907 -34.69238,70.3482 -93.18864,69.67275 -63.3298,-0.73126 -103.11712,-42.85593 -104.96171,-120.72765 -1.5973,-67.43205 38.61875,-123.26734 101.42395,-121.84927 50.00891,1.12914 85.22696,16.48527 96.63131,70.60137 h 27.40814 v -0.2589 C 869.59538,129.21424 821.03178,99.668905 759.31903,100.68378 Z"
       id="path3"
       inkscape:label="C"
       sodipodi:nodetypes="sssccssscccs" /><path
       style="fill:#000000;fill-opacity:1;stroke-width:6.3538"
       d="m 626.73483,100 -50.88729,125.50015 -70.77897,172.62953 c 7.77715,15.46547 21.32682,25.46734 37.3629,25.48091 h 20.02042 l 297.15487,-0.94953 C 893.94377,423.16143 911.43322,406.36529 909.86149,370 l 1.36509,-245.45494 c 1.3651,-39.602603 -28.6349,-46.05977 -48.6349,-46.05977 L 404.92698,77.167987 C 400.0098,69.074973 387.82782,49.53325 370.63751,50 l 491.95417,-3e-6 c 50,0 74.78547,36.545467 74.91503,75.643923 L 937.49033,370 c -0.0593,52.31872 -24.89864,80 -78.59389,81.61524 l -294.10527,0.0139 H 547.1101 C 515.15274,451.64167 492.80431,430 480.76325,411.01304 l -3.02107,-5.61768 -2.93787,-6.6296 -34.85508,-87.39716 -65.54681,-163.06791 -6.21225,-15.13001 C 353.75799,100.28988 340,80.000001 299.2308,77.413596 L 120,77.130852 C 95.192304,74.109688 74.870454,100.28988 75.446586,124.00551 L 75.162465,380.24184 C 75.523982,410 90.369248,424.24856 120.34725,424.24856 h 181.59811 c 6.17796,9.12472 13.82173,19.48734 20.12965,27.39311 H 120 C 76.070802,450 45.100255,422.66106 45.85927,383.20412 L 45.767826,124.43248 C 45.075802,80.000001 80.000001,50 120,50.250976 l 183.15337,0.250976 C 350,50 370.04037,67.984971 387.13971,104.882 l 4.54037,9.797 29.13826,72.28788 29.13833,72.28783 19.90428,51.38685 19.90425,51.38683 0.67123,-1.08605 0.67129,-1.08611 8.2874,-21.72186 8.28739,-21.72184 16.4025,-40.90703 16.4025,-40.90713 37.31549,-91.90076 17.20717,-42.68834 z"
       id="path4"
       sodipodi:nodetypes="cccccccccccccccccccccccccccccccccccccccccccccccccc"
       inkscape:label="V" /><path
       style="fill:#000000;fill-opacity:1;stroke-width:3.76613"
       d="m 228.87544,100.3055 c -84.65593,0.0968 -129.817195,76.00703 -128.53711,150.07146 1.68678,97.59554 64.19521,148.20284 132.01854,149.68643 11.63064,0.25441 29.28313,-0.0613 41.19438,-5.26741 15.16048,20.06839 26.87693,36.63373 41.84499,56.84562 h 174.88545 c -19.82094,0 -33.69045,-27.70787 -33.69045,-27.70787 0,0 -115.08587,-0.39619 -124.40584,-0.47439 -12.35133,-15.42431 -18.84694,-28.10777 -30.69168,-43.92032 48.19905,-27.7361 62.24313,-100.85203 62.54837,-128.93269 0.63115,-58.06325 -22.21325,-150.42998 -135.16665,-150.30083 z m 106.46275,150.27764 c -2.60603,68.25176 -42.93315,99.64174 -47.38006,106.93198 l -45.07682,-59.44444 -32.51224,-0.53317 51.08888,71.8845 c -9.45745,3.26371 -20.98864,3.47837 -30.93558,3.18795 -13.6473,-0.39846 -102.98946,-15.70011 -104.56426,-122.00232 -1.03428,-69.81602 51.2948,-124.85761 102.73006,-124.38055 57.40891,0.53246 109.93005,38.45246 106.65002,124.35605 z"
       id="path6"
       inkscape:label="Q"
       sodipodi:nodetypes="sssccccccsssccccssss" /></g></svg>
