<?xml version="1.0" encoding="UTF-8" standalone="no"?>
<!-- Created with Inkscape (http://www.inkscape.org/) -->

<svg
   width="1000mm"
   height="500mm"
   viewBox="0 0 1000 500"
   version="1.1"
   id="svg1"
   xml:space="preserve"
   xmlns="http://www.w3.org/2000/svg"
   xmlns:svg="http://www.w3.org/2000/svg"><defs
     id="defs1" /><g
     id="layer1"><path
       style="fill:#ffffff;fill-opacity:1;stroke-width:6.3538"
       d="m 505.06857,398.12968 c 7.77715,15.46547 21.32682,25.46734 37.3629,25.48091 h 20.02042 l 297.15487,-0.94953 C 893.94377,423.16143 911.43322,406.36529 909.86149,370 l 1.36509,-245.45494 c 1.3651,-39.602603 -28.6349,-46.05977 -48.6349,-46.05977 L 404.92698,77.167987 C 400.0098,69.074973 387.82782,49.53325 370.63751,50 l 491.95417,-3e-6 c 50,0 74.78547,36.545467 74.91503,75.643923 L 937.49033,370 c -0.0593,52.31872 -24.89864,80 -78.59389,81.61524 l -294.10527,0.0139 H 547.1101 C 515.15274,451.64167 492.80431,430 480.76325,411.01304 l -3.02107,-5.61768 -2.93787,-6.6296 -34.85508,-87.39716 -65.54681,-163.06791 -6.21225,-15.13001 C 353.75799,100.28988 340,80.000001 299.2308,77.413596 L 120,77.130852 C 95.192304,74.109688 74.870454,100.28988 75.446586,124.00551 L 75.162465,380.24184 C 75.523982,410 90.369248,424.24856 120.34725,424.24856 l 336.24399,-0.31483 c 0,0 13.52585,27.70787 33.69045,27.70787 L 120,451.64167 C 76.070802,450 45.100255,422.66106 45.85927,383.20412 L 45.767826,124.43248 C 45.075802,80.000001 80.000001,50 120,50.250976 l 183.15337,0.250976 C 350,50 370.04037,67.984971 387.13971,104.882 l 4.54037,9.797 29.13826,72.28788 29.13833,72.28783 19.90428,51.38685 19.90425,51.38683 z"
       id="path4" /></g></svg>
