<?xml version="1.0" encoding="UTF-8" standalone="no"?>
<!-- Created with Inkscape (http://www.inkscape.org/) -->

<svg
   width="500mm"
   height="500mm"
   viewBox="0 0 500 500"
   version="1.1"
   id="svg1"
   xml:space="preserve"
   sodipodi:docname="IsolatedV.svg.svg"
   inkscape:version="1.3 (0e150ed, 2023-07-21)"
   xmlns:inkscape="http://www.inkscape.org/namespaces/inkscape"
   xmlns:sodipodi="http://sodipodi.sourceforge.net/DTD/sodipodi-0.dtd"
   xmlns="http://www.w3.org/2000/svg"
   xmlns:svg="http://www.w3.org/2000/svg"><sodipodi:namedview
     id="namedview1"
     pagecolor="#ffffff"
     bordercolor="#000000"
     borderopacity="0.25"
     inkscape:showpageshadow="2"
     inkscape:pageopacity="0.0"
     inkscape:pagecheckerboard="0"
     inkscape:deskcolor="#d1d1d1"
     inkscape:document-units="mm"
     inkscape:lockguides="false"
     showgrid="true"
     showguides="true"
     inkscape:zoom="0.16014407"
     inkscape:cx="1557.9721"
     inkscape:cy="1367.5186"
     inkscape:window-width="1440"
     inkscape:window-height="855"
     inkscape:window-x="0"
     inkscape:window-y="23"
     inkscape:window-maximized="0"
     inkscape:current-layer="layer1"><sodipodi:guide
       position="0,500.00001"
       orientation="0,3779.5276"
       id="guide1"
       inkscape:locked="false" /><sodipodi:guide
       position="1000,500.00001"
       orientation="1889.7638,0"
       id="guide2"
       inkscape:locked="false" /><sodipodi:guide
       position="1000,0"
       orientation="0,-3779.5276"
       id="guide3"
       inkscape:locked="false" /><sodipodi:guide
       position="0,0"
       orientation="-1889.7638,0"
       id="guide4"
       inkscape:locked="false" /><inkscape:grid
       id="grid4"
       units="mm"
       originx="0"
       originy="0"
       spacingx="9.9999999"
       spacingy="9.9999999"
       empcolor="#0097e2"
       empopacity="0.80392157"
       color="#0099e5"
       opacity="0.14901961"
       empspacing="25"
       dotted="false"
       gridanglex="30"
       gridanglez="30"
       visible="false" /></sodipodi:namedview><defs
     id="defs1"><inkscape:perspective
       sodipodi:type="inkscape:persp3d"
       inkscape:vp_x="0 : 30 : 1"
       inkscape:vp_y="0 : 1000 : 0"
       inkscape:vp_z="19.999999 : 30 : 1"
       inkscape:persp3d-origin="9.9999996 : 20 : 1"
       id="perspective2626" /></defs><g
     inkscape:label="Layer 1"
     inkscape:groupmode="layer"
     id="layer1"><circle
       style="fill:#363a4f;fill-opacity:1;fill-rule:evenodd;stroke:none;stroke-width:0.765;stroke-linecap:round;stroke-dasharray:none;stroke-opacity:1"
       id="path5"
       cx="250"
       cy="250"
       r="250" /><path
       style="fill:#b7bdf8;fill-opacity:1;stroke-width:6.3538"
       d="m 394.91577,130.28323 c -41.13119,102.2192 -79.65588,191.98403 -119.97901,288.7662 6.06334,11.96913 9.79285,19.75147 18.04981,27.03152 C 376.01792,429.20123 451.09186,353.44536 450.97561,251.03044 450.83647,128.44609 347.78114,49.449842 250.0431,48.856871 211.38204,48.622316 185.41095,58.083396 168.45832,66.078409 159.25078,54.803042 125.84614,43.332819 96.139732,52.555233 106.30207,43.613013 165.92746,0 250,0 386.8445,0 500,109.74428 499.99813,250.96572 499.9963,389.79428 396.08957,470 318.99518,489.84986 c -55.2509,13.54769 -62.10615,-9.96015 -91.03901,-70.99913 -35.524,-80.16349 -39.49901,-91.09188 -106.93089,-249.576 -10.86304,-30.24122 -17.61767,-36.65627 -33.12619,-37.3886 -32.241308,41.53911 -39.40186,87.24534 -39.241994,119.5024 0.481118,97.07796 65.418644,166.61773 142.214344,191.45755 6.62375,18.19878 23.6042,48.75963 46.39599,57.33612 C 124.91975,495.73032 0,402.69041 0,250 0,183.42042 26.155582,124.65178 60,87.027731 c 60.2338,-10.438997 84.11452,7.862611 100.61232,51.841659 11.31262,24.40984 42.51941,97.71638 89.92549,220.10472 34.7857,-79.83915 57.14263,-137.46817 95.1908,-227.62328 z"
       id="path4"
       sodipodi:nodetypes="cccssccssccccsccsccccc"
       inkscape:label="V" /></g></svg>
