<?xml version="1.0" encoding="UTF-8" standalone="no"?>
<svg
   role="img"
   viewBox="0 0 24 24"
   version="1.1"
   id="svg1"
   xmlns="http://www.w3.org/2000/svg"
   xmlns:svg="http://www.w3.org/2000/svg"
   xmlns:rdf="http://www.w3.org/1999/02/22-rdf-syntax-ns#"
   xmlns:cc="http://creativecommons.org/ns#"
   xmlns:dc="http://purl.org/dc/elements/1.1/">
  <defs
     id="defs1" />
  <title
     id="title1">Instagram</title>
  <path
     d="M 7.0301,0.084 C 5.7533,0.1442 4.8814,0.348 4.1191,0.6474 3.3303,0.9549 2.6616,1.3674 1.9963,2.0351 1.3311,2.7028 0.9213,3.3719 0.6161,4.1621 0.3207,4.9259 0.1205,5.7986 0.0641,7.0761 c -0.0564,1.2775 -0.0689,1.6882 -0.0626,4.947 0.0062,3.2586 0.0206,3.6671 0.0825,4.9473 0.061,1.2765 0.264,2.1482 0.5635,2.9107 0.308,0.7889 0.72,1.4573 1.388,2.1228 0.6679,0.6655 1.3365,1.0743 2.1285,1.38 0.7632,0.295 1.6361,0.4961 2.9134,0.552 1.2773,0.056 1.6884,0.069 4.9462,0.0627 3.2578,-0.0062 3.668,-0.0207 4.9478,-0.0814 1.28,-0.0607 2.147,-0.2652 2.9098,-0.5633 0.7889,-0.3086 1.4578,-0.72 2.1228,-1.3881 0.665,-0.6682 1.0745,-1.3378 1.3795,-2.1284 0.2957,-0.7632 0.4966,-1.636 0.552,-2.9124 0.056,-1.2809 0.0692,-1.6898 0.063,-4.948 C 23.9922,8.7187 23.9775,8.3102 23.9168,7.0305 23.8561,5.7508 23.6528,4.8818 23.3535,4.1188 23.0451,3.3299 22.6335,2.662 21.9659,1.996 21.2982,1.33 20.628,0.9208 19.8378,0.6165 19.074,0.321 18.2017,0.1197 16.9244,0.0645 15.6471,0.0093 15.236,-0.005 11.977,0.0014 8.718,0.0076 8.31,0.0215 7.0301,0.0839 M 7.1703,21.7771 C 6.0003,21.7262 5.365,21.5318 4.9416,21.3691 4.381,21.1531 3.9816,20.892 3.5597,20.4741 3.1377,20.0563 2.8786,19.6555 2.6597,19.0961 2.4953,18.6727 2.2973,18.0381 2.2426,16.8681 2.1831,15.6036 2.1706,15.2239 2.1636,12.0201 2.1566,8.8164 2.1689,8.4371 2.2243,7.1721 2.2743,6.0031 2.4699,5.3671 2.6323,4.9439 2.8483,4.3826 3.1085,3.9839 3.5273,3.5623 3.9461,3.1406 4.3457,2.8809 4.9056,2.662 5.3286,2.4969 5.9631,2.3006 7.1326,2.2449 c 1.2655,-0.06 1.6447,-0.072 4.848,-0.079 3.2033,-0.007 3.5835,0.005 4.8495,0.0608 1.169,0.0508 1.8053,0.2445 2.228,0.408 0.5608,0.216 0.96,0.4754 1.3816,0.895 0.4217,0.4194 0.6816,0.8176 0.9005,1.3787 0.1653,0.4217 0.3617,1.056 0.4169,2.2263 0.0602,1.2655 0.0739,1.645 0.0796,4.848 0.0058,3.203 -0.0055,3.5834 -0.061,4.848 -0.051,1.17 -0.245,1.8055 -0.408,2.2294 -0.216,0.5604 -0.4763,0.96 -0.8954,1.3814 -0.419,0.4215 -0.8181,0.6811 -1.3783,0.9 -0.4224,0.1649 -1.0577,0.3617 -2.2262,0.4174 -1.2656,0.0595 -1.6448,0.072 -4.8493,0.079 -3.2045,0.007 -3.5825,-0.006 -4.848,-0.0608 M 16.953,5.5864 c 0.0021,1.2831339 1.554587,1.9227712 2.460088,1.0138676 C 20.318589,5.691364 19.673133,4.1413286 18.39,4.144 17.594944,4.1456553 16.951673,4.7913434 16.953,5.5864 M 5.8385,12.012 c 0.0067,3.4032 2.7706,6.1557 6.173,6.1493 3.4026,-0.0065 6.157,-2.7701 6.1506,-6.1733 -0.0065,-3.4032 -2.771,-6.1565 -6.174,-6.1498 -3.403,0.0067 -6.156,2.771 -6.1496,6.1738 M 8,12.0077 C 7.9929686,8.4438676 12.297937,6.6512123 14.822649,9.165909 17.347361,11.680606 15.571832,15.992665 12.008,15.9998 9.7987291,16.004444 8.0041379,14.216972 8,12.0077"
     id="path1"
     style="fill:#ffffff" />
  <metadata
     id="metadata1">
    <rdf:RDF>
      <cc:Work
         rdf:about="">
        <dc:title>Instagram</dc:title>
      </cc:Work>
    </rdf:RDF>
  </metadata>
</svg>
